<svg width="339" height="446" viewBox="0 0 339 446" fill="none" xmlns="http://www.w3.org/2000/svg">
<rect width="426" height="598" rx="16" fill="white"/>
<path d="M20.264 75L26.672 57.12H29.456L35.864 75H33.344L31.88 70.8H24.248L22.784 75H20.264ZM24.992 68.64H31.136L27.728 58.824H28.4L24.992 68.64ZM42.5442 75.288C41.3282 75.288 40.2322 74.992 39.2562 74.4C38.2962 73.808 37.5362 73 36.9762 71.976C36.4162 70.952 36.1362 69.808 36.1362 68.544C36.1362 67.248 36.4162 66.096 36.9762 65.088C37.5362 64.064 38.2962 63.256 39.2562 62.664C40.2322 62.072 41.3282 61.776 42.5442 61.776C43.6162 61.776 44.5682 62.008 45.4003 62.472C46.2323 62.92 46.8883 63.528 47.3682 64.296L47.0083 64.848V56.832H49.2642V75H47.0803V72.24L47.3682 72.624C46.9202 73.472 46.2643 74.128 45.4003 74.592C44.5523 75.056 43.6003 75.288 42.5442 75.288ZM42.7363 73.128C43.5523 73.128 44.2803 72.928 44.9202 72.528C45.5603 72.128 46.0643 71.584 46.4323 70.896C46.8163 70.192 47.0083 69.408 47.0083 68.544C47.0083 67.664 46.8163 66.88 46.4323 66.192C46.0643 65.488 45.5603 64.936 44.9202 64.536C44.2803 64.136 43.5523 63.936 42.7363 63.936C41.9362 63.936 41.2082 64.144 40.5523 64.56C39.9122 64.96 39.4082 65.504 39.0402 66.192C38.6722 66.864 38.4882 67.648 38.4882 68.544C38.4882 69.408 38.6722 70.192 39.0402 70.896C39.4082 71.584 39.9122 72.128 40.5523 72.528C41.1923 72.928 41.9203 73.128 42.7363 73.128ZM57.8789 75.288C56.6629 75.288 55.5669 74.992 54.5909 74.4C53.6309 73.808 52.8709 73 52.3109 71.976C51.7509 70.952 51.4709 69.808 51.4709 68.544C51.4709 67.248 51.7509 66.096 52.3109 65.088C52.8709 64.064 53.6309 63.256 54.5909 62.664C55.5669 62.072 56.6629 61.776 57.8789 61.776C58.9509 61.776 59.9029 62.008 60.7349 62.472C61.5669 62.92 62.2229 63.528 62.7029 64.296L62.3429 64.848V56.832H64.5989V75H62.4149V72.24L62.7029 72.624C62.2549 73.472 61.5989 74.128 60.7349 74.592C59.8869 75.056 58.9349 75.288 57.8789 75.288ZM58.0709 73.128C58.8869 73.128 59.6149 72.928 60.2549 72.528C60.8949 72.128 61.3989 71.584 61.7669 70.896C62.1509 70.192 62.3429 69.408 62.3429 68.544C62.3429 67.664 62.1509 66.88 61.7669 66.192C61.3989 65.488 60.8949 64.936 60.2549 64.536C59.6149 64.136 58.8869 63.936 58.0709 63.936C57.2709 63.936 56.5429 64.144 55.8869 64.56C55.2469 64.96 54.7429 65.504 54.3749 66.192C54.0069 66.864 53.8229 67.648 53.8229 68.544C53.8229 69.408 54.0069 70.192 54.3749 70.896C54.7429 71.584 55.2469 72.128 55.8869 72.528C56.5269 72.928 57.2549 73.128 58.0709 73.128ZM74.5541 75.288C73.7061 75.288 72.9541 75.136 72.2981 74.832C71.6581 74.512 71.1541 74.08 70.7861 73.536C70.4181 72.976 70.2341 72.336 70.2341 71.616C70.2341 70.928 70.3781 70.312 70.6661 69.768C70.9701 69.208 71.4341 68.736 72.0581 68.352C72.6981 67.968 73.4981 67.696 74.4581 67.536L79.2581 66.744V68.616L74.9621 69.336C74.1301 69.48 73.5221 69.744 73.1381 70.128C72.7701 70.512 72.5861 70.984 72.5861 71.544C72.5861 72.072 72.7941 72.512 73.2101 72.864C73.6421 73.216 74.1781 73.392 74.8181 73.392C75.6341 73.392 76.3381 73.224 76.9301 72.888C77.5381 72.536 78.0101 72.064 78.3461 71.472C78.6981 70.88 78.8741 70.224 78.8741 69.504V66.216C78.8741 65.512 78.6101 64.944 78.0821 64.512C77.5701 64.064 76.8901 63.84 76.0421 63.84C75.3061 63.84 74.6501 64.032 74.0741 64.416C73.5141 64.784 73.0981 65.28 72.8261 65.904L70.8821 64.896C71.1221 64.304 71.5061 63.776 72.0341 63.312C72.5621 62.832 73.1781 62.456 73.8821 62.184C74.5861 61.912 75.3221 61.776 76.0901 61.776C77.0821 61.776 77.9541 61.968 78.7061 62.352C79.4581 62.72 80.0421 63.24 80.4581 63.912C80.8901 64.568 81.1061 65.336 81.1061 66.216V75H78.9221V72.552L79.3301 72.696C79.0581 73.208 78.6901 73.656 78.2261 74.04C77.7621 74.424 77.2181 74.728 76.5941 74.952C75.9701 75.176 75.2901 75.288 74.5541 75.288ZM87.5392 75V57.12H89.5072L99.7792 71.568L98.8912 71.664V57.12H101.267V75H99.2992L89.0752 60.456L89.8912 60.36V75H87.5392ZM110.226 75.288C108.978 75.288 107.866 74.992 106.89 74.4C105.914 73.808 105.146 73 104.586 71.976C104.026 70.936 103.746 69.776 103.746 68.496C103.746 67.2 104.018 66.048 104.562 65.04C105.122 64.032 105.874 63.24 106.818 62.664C107.778 62.072 108.85 61.776 110.034 61.776C110.994 61.776 111.842 61.952 112.578 62.304C113.33 62.64 113.962 63.104 114.474 63.696C115.002 64.272 115.402 64.936 115.674 65.688C115.962 66.424 116.106 67.192 116.106 67.992C116.106 68.168 116.09 68.368 116.058 68.592C116.042 68.8 116.018 69 115.986 69.192H105.378V67.272H114.69L113.634 68.136C113.778 67.304 113.698 66.56 113.394 65.904C113.09 65.248 112.642 64.728 112.05 64.344C111.458 63.96 110.786 63.768 110.034 63.768C109.282 63.768 108.594 63.96 107.97 64.344C107.346 64.728 106.858 65.28 106.506 66C106.17 66.704 106.034 67.544 106.098 68.52C106.034 69.464 106.178 70.296 106.53 71.016C106.898 71.72 107.41 72.272 108.066 72.672C108.738 73.056 109.466 73.248 110.25 73.248C111.114 73.248 111.842 73.048 112.434 72.648C113.026 72.248 113.506 71.736 113.874 71.112L115.746 72.072C115.49 72.664 115.09 73.208 114.546 73.704C114.018 74.184 113.386 74.568 112.65 74.856C111.93 75.144 111.122 75.288 110.226 75.288ZM121.272 75L116.832 62.064H119.304L122.832 72.888L121.968 72.864L125.424 62.064H127.536L130.992 72.864L130.128 72.888L133.68 62.064H136.128L131.688 75H129.552L126.144 64.2H126.816L123.408 75H121.272ZM139.369 75L145.777 57.12H148.561L154.969 75H152.449L150.985 70.8H143.353L141.889 75H139.369ZM144.097 68.64H150.241L146.833 58.824H147.505L144.097 68.64ZM156.238 79.8V62.064H158.422V64.848L158.134 64.296C158.614 63.528 159.27 62.92 160.102 62.472C160.934 62.008 161.886 61.776 162.958 61.776C164.174 61.776 165.262 62.072 166.222 62.664C167.198 63.256 167.966 64.064 168.526 65.088C169.086 66.096 169.366 67.248 169.366 68.544C169.366 69.808 169.086 70.952 168.526 71.976C167.966 73 167.198 73.808 166.222 74.4C165.262 74.992 164.166 75.288 162.934 75.288C161.894 75.288 160.942 75.056 160.078 74.592C159.23 74.128 158.574 73.472 158.11 72.624L158.47 72.24V79.8H156.238ZM162.766 73.128C163.582 73.128 164.31 72.928 164.95 72.528C165.59 72.128 166.086 71.584 166.438 70.896C166.806 70.192 166.99 69.408 166.99 68.544C166.99 67.648 166.806 66.864 166.438 66.192C166.086 65.504 165.59 64.96 164.95 64.56C164.31 64.144 163.582 63.936 162.766 63.936C161.95 63.936 161.214 64.136 160.558 64.536C159.918 64.936 159.406 65.488 159.022 66.192C158.654 66.88 158.47 67.664 158.47 68.544C158.47 69.408 158.654 70.192 159.022 70.896C159.406 71.584 159.918 72.128 160.558 72.528C161.214 72.928 161.95 73.128 162.766 73.128ZM171.572 79.8V62.064H173.756V64.848L173.468 64.296C173.948 63.528 174.604 62.92 175.436 62.472C176.268 62.008 177.22 61.776 178.292 61.776C179.508 61.776 180.596 62.072 181.556 62.664C182.532 63.256 183.3 64.064 183.86 65.088C184.42 66.096 184.7 67.248 184.7 68.544C184.7 69.808 184.42 70.952 183.86 71.976C183.3 73 182.532 73.808 181.556 74.4C180.596 74.992 179.5 75.288 178.268 75.288C177.228 75.288 176.276 75.056 175.412 74.592C174.564 74.128 173.908 73.472 173.444 72.624L173.804 72.24V79.8H171.572ZM178.1 73.128C178.916 73.128 179.644 72.928 180.284 72.528C180.924 72.128 181.42 71.584 181.772 70.896C182.14 70.192 182.324 69.408 182.324 68.544C182.324 67.648 182.14 66.864 181.772 66.192C181.42 65.504 180.924 64.96 180.284 64.56C179.644 64.144 178.916 63.936 178.1 63.936C177.284 63.936 176.548 64.136 175.892 64.536C175.252 64.936 174.74 65.488 174.356 66.192C173.988 66.88 173.804 67.664 173.804 68.544C173.804 69.408 173.988 70.192 174.356 70.896C174.74 71.584 175.252 72.128 175.892 72.528C176.548 72.928 177.284 73.128 178.1 73.128ZM186.907 75V62.064H189.091V64.44L188.851 64.104C189.155 63.368 189.619 62.824 190.243 62.472C190.867 62.104 191.627 61.92 192.523 61.92H193.315V64.032H192.187C191.275 64.032 190.539 64.32 189.979 64.896C189.419 65.456 189.139 66.256 189.139 67.296V75H186.907ZM200.722 75.288C199.474 75.288 198.346 75 197.338 74.424C196.33 73.832 195.53 73.024 194.938 72C194.346 70.976 194.05 69.816 194.05 68.52C194.05 67.224 194.338 66.072 194.914 65.064C195.506 64.056 196.306 63.256 197.314 62.664C198.322 62.072 199.458 61.776 200.722 61.776C201.97 61.776 203.098 62.072 204.106 62.664C205.114 63.24 205.906 64.032 206.482 65.04C207.074 66.048 207.37 67.208 207.37 68.52C207.37 69.832 207.066 71 206.458 72.024C205.85 73.032 205.042 73.832 204.034 74.424C203.042 75 201.938 75.288 200.722 75.288ZM200.722 73.128C201.522 73.128 202.242 72.928 202.882 72.528C203.538 72.128 204.05 71.576 204.418 70.872C204.802 70.168 204.994 69.384 204.994 68.52C204.994 67.64 204.802 66.864 204.418 66.192C204.05 65.504 203.538 64.96 202.882 64.56C202.242 64.144 201.522 63.936 200.722 63.936C199.906 63.936 199.17 64.144 198.514 64.56C197.874 64.96 197.362 65.504 196.978 66.192C196.594 66.864 196.402 67.64 196.402 68.52C196.402 69.384 196.594 70.168 196.978 70.872C197.362 71.576 197.874 72.128 198.514 72.528C199.17 72.928 199.906 73.128 200.722 73.128ZM212.926 75L207.862 62.064H210.358L214.414 73.008H213.55L217.63 62.064H220.126L215.038 75H212.926ZM224.727 75.288C223.879 75.288 223.127 75.136 222.471 74.832C221.831 74.512 221.327 74.08 220.959 73.536C220.591 72.976 220.407 72.336 220.407 71.616C220.407 70.928 220.551 70.312 220.839 69.768C221.143 69.208 221.607 68.736 222.231 68.352C222.871 67.968 223.671 67.696 224.631 67.536L229.431 66.744V68.616L225.135 69.336C224.303 69.48 223.695 69.744 223.311 70.128C222.943 70.512 222.759 70.984 222.759 71.544C222.759 72.072 222.967 72.512 223.383 72.864C223.815 73.216 224.351 73.392 224.991 73.392C225.807 73.392 226.511 73.224 227.103 72.888C227.711 72.536 228.183 72.064 228.519 71.472C228.871 70.88 229.047 70.224 229.047 69.504V66.216C229.047 65.512 228.783 64.944 228.255 64.512C227.743 64.064 227.063 63.84 226.215 63.84C225.479 63.84 224.823 64.032 224.247 64.416C223.687 64.784 223.271 65.28 222.999 65.904L221.055 64.896C221.295 64.304 221.679 63.776 222.207 63.312C222.735 62.832 223.351 62.456 224.055 62.184C224.759 61.912 225.495 61.776 226.263 61.776C227.255 61.776 228.127 61.968 228.879 62.352C229.631 62.72 230.215 63.24 230.631 63.912C231.063 64.568 231.279 65.336 231.279 66.216V75H229.095V72.552L229.503 72.696C229.231 73.208 228.863 73.656 228.399 74.04C227.935 74.424 227.391 74.728 226.767 74.952C226.143 75.176 225.463 75.288 224.727 75.288ZM234.019 75V56.832H236.251V75H234.019ZM242.687 75V57.12H248.999C250.183 57.12 251.223 57.344 252.119 57.792C253.015 58.24 253.711 58.88 254.207 59.712C254.719 60.544 254.975 61.52 254.975 62.64C254.975 63.904 254.655 64.976 254.015 65.856C253.375 66.736 252.511 67.368 251.423 67.752L255.575 75H252.839L248.471 67.248L250.031 68.16H245.039V75H242.687ZM245.039 66H249.071C249.775 66 250.391 65.864 250.919 65.592C251.447 65.32 251.855 64.928 252.143 64.416C252.447 63.904 252.599 63.312 252.599 62.64C252.599 61.952 252.447 61.36 252.143 60.864C251.855 60.352 251.447 59.96 250.919 59.688C250.391 59.416 249.775 59.28 249.071 59.28H245.039V66ZM261.85 75.288C260.922 75.288 260.082 75.072 259.33 74.64C258.594 74.208 258.018 73.608 257.602 72.84C257.202 72.056 257.002 71.16 257.002 70.152V62.064H259.234V69.912C259.234 70.552 259.362 71.112 259.618 71.592C259.89 72.072 260.258 72.448 260.722 72.72C261.202 72.992 261.746 73.128 262.354 73.128C262.962 73.128 263.498 72.992 263.962 72.72C264.442 72.448 264.81 72.056 265.066 71.544C265.338 71.032 265.474 70.424 265.474 69.72V62.064H267.73V75H265.546V72.48L265.906 72.696C265.602 73.512 265.082 74.152 264.346 74.616C263.626 75.064 262.794 75.288 261.85 75.288ZM270.467 75V56.832H272.699V75H270.467ZM281.395 75.288C280.147 75.288 279.035 74.992 278.059 74.4C277.083 73.808 276.315 73 275.755 71.976C275.195 70.936 274.915 69.776 274.915 68.496C274.915 67.2 275.187 66.048 275.731 65.04C276.291 64.032 277.043 63.24 277.987 62.664C278.947 62.072 280.019 61.776 281.203 61.776C282.163 61.776 283.011 61.952 283.747 62.304C284.499 62.64 285.131 63.104 285.643 63.696C286.171 64.272 286.571 64.936 286.843 65.688C287.131 66.424 287.275 67.192 287.275 67.992C287.275 68.168 287.259 68.368 287.227 68.592C287.211 68.8 287.187 69 287.155 69.192H276.547V67.272H285.859L284.803 68.136C284.947 67.304 284.867 66.56 284.563 65.904C284.259 65.248 283.811 64.728 283.219 64.344C282.627 63.96 281.955 63.768 281.203 63.768C280.451 63.768 279.763 63.96 279.139 64.344C278.515 64.728 278.027 65.28 277.675 66C277.339 66.704 277.203 67.544 277.267 68.52C277.203 69.464 277.347 70.296 277.699 71.016C278.067 71.72 278.579 72.272 279.235 72.672C279.907 73.056 280.635 73.248 281.419 73.248C282.283 73.248 283.011 73.048 283.603 72.648C284.195 72.248 284.675 71.736 285.043 71.112L286.915 72.072C286.659 72.664 286.259 73.208 285.715 73.704C285.187 74.184 284.555 74.568 283.819 74.856C283.099 75.144 282.291 75.288 281.395 75.288Z" fill="#55555C"/>
<path d="M21.232 160V149.57H22.212L28.33 158.348H27.952V149.57H29.072V160H28.092L21.974 151.166H22.352V160H21.232ZM34.4806 160.168C33.7713 160.168 33.1273 160 32.5486 159.664C31.9699 159.319 31.5079 158.852 31.1626 158.264C30.8266 157.667 30.6586 156.99 30.6586 156.234C30.6586 155.487 30.8266 154.82 31.1626 154.232C31.4986 153.644 31.9513 153.182 32.5206 152.846C33.0993 152.501 33.7526 152.328 34.4806 152.328C35.2086 152.328 35.8573 152.496 36.4266 152.832C37.0053 153.168 37.4579 153.63 37.7846 154.218C38.1206 154.806 38.2886 155.478 38.2886 156.234C38.2886 156.999 38.1159 157.681 37.7706 158.278C37.4253 158.866 36.9633 159.328 36.3846 159.664C35.8153 160 35.1806 160.168 34.4806 160.168ZM34.4806 159.118C34.9846 159.118 35.4373 158.992 35.8386 158.74C36.2493 158.488 36.5713 158.143 36.8046 157.704C37.0473 157.265 37.1686 156.775 37.1686 156.234C37.1686 155.693 37.0473 155.207 36.8046 154.778C36.5713 154.349 36.2493 154.008 35.8386 153.756C35.4373 153.504 34.9846 153.378 34.4806 153.378C33.9766 153.378 33.5193 153.504 33.1086 153.756C32.7073 154.008 32.3853 154.349 32.1426 154.778C31.8999 155.207 31.7786 155.693 31.7786 156.234C31.7786 156.775 31.8999 157.265 32.1426 157.704C32.3853 158.143 32.7073 158.488 33.1086 158.74C33.5193 158.992 33.9766 159.118 34.4806 159.118ZM40.0844 160V158.46H41.2044V160H40.0844ZM48.7792 160.168C48.0699 160.168 47.4259 160 46.8472 159.664C46.2685 159.319 45.8065 158.852 45.4612 158.264C45.1252 157.667 44.9572 156.99 44.9572 156.234C44.9572 155.487 45.1252 154.82 45.4612 154.232C45.7972 153.644 46.2499 153.182 46.8192 152.846C47.3979 152.501 48.0512 152.328 48.7792 152.328C49.5072 152.328 50.1559 152.496 50.7252 152.832C51.3039 153.168 51.7565 153.63 52.0832 154.218C52.4192 154.806 52.5872 155.478 52.5872 156.234C52.5872 156.999 52.4145 157.681 52.0692 158.278C51.7239 158.866 51.2619 159.328 50.6832 159.664C50.1139 160 49.4792 160.168 48.7792 160.168ZM48.7792 159.118C49.2832 159.118 49.7359 158.992 50.1372 158.74C50.5479 158.488 50.8699 158.143 51.1032 157.704C51.3459 157.265 51.4672 156.775 51.4672 156.234C51.4672 155.693 51.3459 155.207 51.1032 154.778C50.8699 154.349 50.5479 154.008 50.1372 153.756C49.7359 153.504 49.2832 153.378 48.7792 153.378C48.2752 153.378 47.8179 153.504 47.4072 153.756C47.0059 154.008 46.6839 154.349 46.4412 154.778C46.1985 155.207 46.0772 155.693 46.0772 156.234C46.0772 156.775 46.1985 157.265 46.4412 157.704C46.6839 158.143 47.0059 158.488 47.4072 158.74C47.8179 158.992 48.2752 159.118 48.7792 159.118ZM54.5156 160V153.546H53.0176V152.496H54.5156V151.824C54.5156 151.301 54.6322 150.863 54.8656 150.508C55.0989 150.144 55.4069 149.869 55.7896 149.682C56.1722 149.495 56.5829 149.402 57.0216 149.402C57.1149 149.402 57.2222 149.411 57.3436 149.43C57.4649 149.439 57.5629 149.453 57.6376 149.472V150.424C57.5722 150.405 57.4836 150.396 57.3716 150.396C57.2596 150.387 57.1802 150.382 57.1336 150.382C56.6856 150.382 56.3122 150.489 56.0136 150.704C55.7149 150.919 55.5656 151.292 55.5656 151.824V152.496H57.3996V153.546H55.5656V160H54.5156ZM59.8566 160L63.6646 149.57H64.8686L68.6766 160H67.5006L66.6046 157.452H61.9426L61.0326 160H59.8566ZM62.3066 156.402H66.2126L64.0986 150.41H64.4346L62.3066 156.402ZM69.4934 162.8V152.496H70.5434V154.176L70.3754 153.882C70.6741 153.406 71.0707 153.028 71.5654 152.748C72.0694 152.468 72.6434 152.328 73.2874 152.328C73.9967 152.328 74.6267 152.501 75.1774 152.846C75.7374 153.182 76.1761 153.644 76.4934 154.232C76.8201 154.82 76.9834 155.492 76.9834 156.248C76.9834 156.995 76.8201 157.667 76.4934 158.264C76.1761 158.852 75.7374 159.319 75.1774 159.664C74.6267 160 73.9967 160.168 73.2874 160.168C72.6434 160.168 72.0601 160.023 71.5374 159.734C71.0241 159.435 70.6367 159.015 70.3754 158.474L70.5434 158.32V162.8H69.4934ZM73.2314 159.118C73.7354 159.118 74.1834 158.992 74.5754 158.74C74.9767 158.488 75.2894 158.147 75.5134 157.718C75.7467 157.279 75.8634 156.789 75.8634 156.248C75.8634 155.697 75.7467 155.207 75.5134 154.778C75.2894 154.349 74.9767 154.008 74.5754 153.756C74.1834 153.504 73.7354 153.378 73.2314 153.378C72.7274 153.378 72.2701 153.504 71.8594 153.756C71.4581 154.008 71.1361 154.353 70.8934 154.792C70.6601 155.221 70.5434 155.707 70.5434 156.248C70.5434 156.789 70.6601 157.279 70.8934 157.718C71.1361 158.147 71.4581 158.488 71.8594 158.74C72.2701 158.992 72.7274 159.118 73.2314 159.118ZM78.4113 162.8V152.496H79.4613V154.176L79.2933 153.882C79.5919 153.406 79.9886 153.028 80.4833 152.748C80.9873 152.468 81.5613 152.328 82.2053 152.328C82.9146 152.328 83.5446 152.501 84.0953 152.846C84.6553 153.182 85.0939 153.644 85.4113 154.232C85.7379 154.82 85.9013 155.492 85.9013 156.248C85.9013 156.995 85.7379 157.667 85.4113 158.264C85.0939 158.852 84.6553 159.319 84.0953 159.664C83.5446 160 82.9146 160.168 82.2053 160.168C81.5613 160.168 80.9779 160.023 80.4553 159.734C79.9419 159.435 79.5546 159.015 79.2933 158.474L79.4613 158.32V162.8H78.4113ZM82.1493 159.118C82.6533 159.118 83.1013 158.992 83.4933 158.74C83.8946 158.488 84.2073 158.147 84.4313 157.718C84.6646 157.279 84.7813 156.789 84.7813 156.248C84.7813 155.697 84.6646 155.207 84.4313 154.778C84.2073 154.349 83.8946 154.008 83.4933 153.756C83.1013 153.504 82.6533 153.378 82.1493 153.378C81.6453 153.378 81.1879 153.504 80.7773 153.756C80.3759 154.008 80.0539 154.353 79.8113 154.792C79.5779 155.221 79.4613 155.707 79.4613 156.248C79.4613 156.789 79.5779 157.279 79.8113 157.718C80.0539 158.147 80.3759 158.488 80.7773 158.74C81.1879 158.992 81.6453 159.118 82.1493 159.118ZM87.3292 160V152.496H88.3792V153.728L88.2392 153.546C88.4165 153.191 88.6825 152.911 89.0372 152.706C89.4012 152.501 89.8398 152.398 90.3532 152.398H90.8292V153.448H90.1712C89.6298 153.448 89.1958 153.616 88.8692 153.952C88.5425 154.288 88.3792 154.764 88.3792 155.38V160H87.3292ZM95.1536 160.168C94.4443 160.168 93.8003 160 93.2216 159.664C92.643 159.319 92.181 158.852 91.8356 158.264C91.4996 157.667 91.3316 156.99 91.3316 156.234C91.3316 155.487 91.4996 154.82 91.8356 154.232C92.1716 153.644 92.6243 153.182 93.1936 152.846C93.7723 152.501 94.4256 152.328 95.1536 152.328C95.8816 152.328 96.5303 152.496 97.0996 152.832C97.6783 153.168 98.131 153.63 98.4576 154.218C98.7936 154.806 98.9616 155.478 98.9616 156.234C98.9616 156.999 98.789 157.681 98.4436 158.278C98.0983 158.866 97.6363 159.328 97.0576 159.664C96.4883 160 95.8536 160.168 95.1536 160.168ZM95.1536 159.118C95.6576 159.118 96.1103 158.992 96.5116 158.74C96.9223 158.488 97.2443 158.143 97.4776 157.704C97.7203 157.265 97.8416 156.775 97.8416 156.234C97.8416 155.693 97.7203 155.207 97.4776 154.778C97.2443 154.349 96.9223 154.008 96.5116 153.756C96.1103 153.504 95.6576 153.378 95.1536 153.378C94.6496 153.378 94.1923 153.504 93.7816 153.756C93.3803 154.008 93.0583 154.349 92.8156 154.778C92.573 155.207 92.4516 155.693 92.4516 156.234C92.4516 156.775 92.573 157.265 92.8156 157.704C93.0583 158.143 93.3803 158.488 93.7816 158.74C94.1923 158.992 94.6496 159.118 95.1536 159.118ZM102.259 160L99.3327 152.496H100.509L102.973 159.076H102.595L105.073 152.496H106.263L103.309 160H102.259ZM108.966 160.168C108.49 160.168 108.065 160.079 107.692 159.902C107.318 159.715 107.024 159.463 106.81 159.146C106.595 158.829 106.488 158.465 106.488 158.054C106.488 157.662 106.572 157.307 106.74 156.99C106.908 156.663 107.169 156.388 107.524 156.164C107.878 155.94 108.331 155.781 108.882 155.688L111.822 155.198V156.15L109.134 156.598C108.592 156.691 108.2 156.864 107.958 157.116C107.724 157.368 107.608 157.667 107.608 158.012C107.608 158.348 107.738 158.633 108 158.866C108.27 159.099 108.616 159.216 109.036 159.216C109.549 159.216 109.997 159.109 110.38 158.894C110.762 158.67 111.061 158.371 111.276 157.998C111.49 157.625 111.598 157.209 111.598 156.752V154.848C111.598 154.4 111.434 154.036 111.108 153.756C110.781 153.476 110.356 153.336 109.834 153.336C109.376 153.336 108.975 153.453 108.63 153.686C108.284 153.91 108.028 154.204 107.86 154.568L106.908 154.05C107.048 153.733 107.267 153.443 107.566 153.182C107.874 152.921 108.224 152.715 108.616 152.566C109.008 152.407 109.414 152.328 109.834 152.328C110.384 152.328 110.87 152.435 111.29 152.65C111.719 152.865 112.05 153.163 112.284 153.546C112.526 153.919 112.648 154.353 112.648 154.848V160H111.598V158.502L111.752 158.656C111.621 158.936 111.416 159.193 111.136 159.426C110.865 159.65 110.543 159.832 110.17 159.972C109.806 160.103 109.404 160.168 108.966 160.168ZM114.387 160V149.402H115.437V160H114.387ZM119.771 160.168C119.052 160.168 118.422 159.986 117.881 159.622C117.339 159.258 116.947 158.763 116.705 158.138L117.587 157.718C117.801 158.175 118.1 158.539 118.483 158.81C118.875 159.081 119.304 159.216 119.771 159.216C120.219 159.216 120.597 159.109 120.905 158.894C121.213 158.67 121.367 158.381 121.367 158.026C121.367 157.765 121.292 157.559 121.143 157.41C120.993 157.251 120.821 157.13 120.625 157.046C120.429 156.962 120.256 156.901 120.107 156.864L119.029 156.556C118.338 156.36 117.839 156.085 117.531 155.73C117.223 155.375 117.069 154.965 117.069 154.498C117.069 154.059 117.181 153.677 117.405 153.35C117.629 153.023 117.932 152.771 118.315 152.594C118.697 152.417 119.122 152.328 119.589 152.328C120.223 152.328 120.797 152.496 121.311 152.832C121.833 153.159 122.202 153.616 122.417 154.204L121.521 154.624C121.334 154.204 121.063 153.877 120.709 153.644C120.363 153.401 119.976 153.28 119.547 153.28C119.127 153.28 118.791 153.387 118.539 153.602C118.287 153.817 118.161 154.087 118.161 154.414C118.161 154.666 118.226 154.867 118.357 155.016C118.487 155.165 118.637 155.277 118.805 155.352C118.982 155.427 119.136 155.483 119.267 155.52L120.513 155.884C121.119 156.061 121.591 156.337 121.927 156.71C122.272 157.083 122.445 157.522 122.445 158.026C122.445 158.437 122.328 158.805 122.095 159.132C121.871 159.459 121.558 159.715 121.157 159.902C120.755 160.079 120.293 160.168 119.771 160.168Z" fill="#55555C"/>
<rect x="19.5" y="174.5" width="108" height="51" rx="10.5" fill="white"/>
<rect x="19.5" y="174.5" width="108" height="51" rx="10.5" stroke="#E5E5E6"/>
<path d="M41.872 207.192C40.9333 207.192 40.1067 206.936 39.392 206.424C38.688 205.901 38.1387 205.181 37.744 204.264C37.3493 203.336 37.152 202.259 37.152 201.032C37.152 199.805 37.3493 198.733 37.744 197.816C38.1387 196.888 38.688 196.168 39.392 195.656C40.096 195.144 40.9173 194.888 41.856 194.888C42.7947 194.888 43.616 195.144 44.32 195.656C45.024 196.168 45.5733 196.888 45.968 197.816C46.3627 198.733 46.56 199.805 46.56 201.032C46.56 202.259 46.3627 203.336 45.968 204.264C45.584 205.192 45.04 205.912 44.336 206.424C43.632 206.936 42.8107 207.192 41.872 207.192ZM41.872 205.992C42.5547 205.992 43.152 205.784 43.664 205.368C44.176 204.952 44.576 204.376 44.864 203.64C45.152 202.893 45.296 202.024 45.296 201.032C45.296 200.04 45.152 199.176 44.864 198.44C44.576 197.693 44.176 197.117 43.664 196.712C43.152 196.296 42.5493 196.088 41.856 196.088C41.1733 196.088 40.576 196.296 40.064 196.712C39.552 197.117 39.152 197.693 38.864 198.44C38.576 199.176 38.432 200.04 38.432 201.032C38.432 202.013 38.576 202.877 38.864 203.624C39.152 204.371 39.552 204.952 40.064 205.368C40.5867 205.784 41.1893 205.992 41.872 205.992Z" fill="#B3B3B3"/>
<path d="M107 194L103 190L99 194" stroke="#999999" stroke-width="1.4" stroke-linecap="round" stroke-linejoin="round"/>
<path d="M99 206L103 210L107 206" stroke="#999999" stroke-width="1.4" stroke-linecap="round" stroke-linejoin="round"/>
<path d="M151.746 160.168C151.083 160.168 150.477 160.047 149.926 159.804C149.375 159.552 148.909 159.211 148.526 158.782C148.143 158.353 147.868 157.872 147.7 157.34L148.89 156.85C149.142 157.522 149.515 158.04 150.01 158.404C150.514 158.759 151.102 158.936 151.774 158.936C152.185 158.936 152.544 158.871 152.852 158.74C153.16 158.609 153.398 158.427 153.566 158.194C153.743 157.951 153.832 157.671 153.832 157.354C153.832 156.915 153.706 156.57 153.454 156.318C153.211 156.057 152.852 155.861 152.376 155.73L150.458 155.142C149.702 154.909 149.123 154.54 148.722 154.036C148.321 153.532 148.12 152.953 148.12 152.3C148.12 151.731 148.255 151.231 148.526 150.802C148.806 150.363 149.189 150.023 149.674 149.78C150.169 149.528 150.729 149.402 151.354 149.402C151.979 149.402 152.544 149.514 153.048 149.738C153.561 149.962 153.995 150.265 154.35 150.648C154.705 151.021 154.966 151.451 155.134 151.936L153.958 152.426C153.734 151.838 153.398 151.395 152.95 151.096C152.502 150.788 151.975 150.634 151.368 150.634C150.995 150.634 150.663 150.699 150.374 150.83C150.094 150.951 149.875 151.133 149.716 151.376C149.567 151.609 149.492 151.889 149.492 152.216C149.492 152.599 149.613 152.939 149.856 153.238C150.099 153.537 150.467 153.765 150.962 153.924L152.712 154.442C153.533 154.694 154.154 155.053 154.574 155.52C154.994 155.987 155.204 156.565 155.204 157.256C155.204 157.825 155.055 158.329 154.756 158.768C154.467 159.207 154.061 159.552 153.538 159.804C153.025 160.047 152.427 160.168 151.746 160.168ZM160.111 160.168C159.383 160.168 158.734 159.995 158.165 159.65C157.595 159.305 157.147 158.833 156.821 158.236C156.494 157.629 156.331 156.953 156.331 156.206C156.331 155.45 156.489 154.778 156.807 154.19C157.133 153.602 157.572 153.14 158.123 152.804C158.683 152.459 159.308 152.286 159.999 152.286C160.559 152.286 161.053 152.389 161.483 152.594C161.921 152.79 162.29 153.061 162.589 153.406C162.897 153.742 163.13 154.129 163.289 154.568C163.457 154.997 163.541 155.445 163.541 155.912C163.541 156.015 163.531 156.131 163.513 156.262C163.503 156.383 163.489 156.5 163.471 156.612H157.283V155.492H162.715L162.099 155.996C162.183 155.511 162.136 155.077 161.959 154.694C161.781 154.311 161.52 154.008 161.175 153.784C160.829 153.56 160.437 153.448 159.999 153.448C159.56 153.448 159.159 153.56 158.795 153.784C158.431 154.008 158.146 154.33 157.941 154.75C157.745 155.161 157.665 155.651 157.703 156.22C157.665 156.771 157.749 157.256 157.955 157.676C158.169 158.087 158.468 158.409 158.851 158.642C159.243 158.866 159.667 158.978 160.125 158.978C160.629 158.978 161.053 158.861 161.399 158.628C161.744 158.395 162.024 158.096 162.239 157.732L163.331 158.292C163.181 158.637 162.948 158.955 162.631 159.244C162.323 159.524 161.954 159.748 161.525 159.916C161.105 160.084 160.633 160.168 160.111 160.168ZM164.818 160V149.402H166.12V160H164.818ZM171.193 160.168C170.465 160.168 169.816 159.995 169.247 159.65C168.677 159.305 168.229 158.833 167.903 158.236C167.576 157.629 167.413 156.953 167.413 156.206C167.413 155.45 167.571 154.778 167.889 154.19C168.215 153.602 168.654 153.14 169.205 152.804C169.765 152.459 170.39 152.286 171.081 152.286C171.641 152.286 172.135 152.389 172.565 152.594C173.003 152.79 173.372 153.061 173.671 153.406C173.979 153.742 174.212 154.129 174.371 154.568C174.539 154.997 174.623 155.445 174.623 155.912C174.623 156.015 174.613 156.131 174.595 156.262C174.585 156.383 174.571 156.5 174.553 156.612H168.365V155.492H173.797L173.181 155.996C173.265 155.511 173.218 155.077 173.041 154.694C172.863 154.311 172.602 154.008 172.257 153.784C171.911 153.56 171.519 153.448 171.081 153.448C170.642 153.448 170.241 153.56 169.877 153.784C169.513 154.008 169.228 154.33 169.023 154.75C168.827 155.161 168.747 155.651 168.785 156.22C168.747 156.771 168.831 157.256 169.037 157.676C169.251 158.087 169.55 158.409 169.933 158.642C170.325 158.866 170.749 158.978 171.207 158.978C171.711 158.978 172.135 158.861 172.481 158.628C172.826 158.395 173.106 158.096 173.321 157.732L174.413 158.292C174.263 158.637 174.03 158.955 173.713 159.244C173.405 159.524 173.036 159.748 172.607 159.916C172.187 160.084 171.715 160.168 171.193 160.168ZM179.4 160.168C178.663 160.168 178.005 159.995 177.426 159.65C176.857 159.305 176.409 158.833 176.082 158.236C175.756 157.639 175.592 156.967 175.592 156.22C175.592 155.464 175.756 154.792 176.082 154.204C176.409 153.616 176.857 153.149 177.426 152.804C178.005 152.459 178.663 152.286 179.4 152.286C179.895 152.286 180.357 152.375 180.786 152.552C181.216 152.729 181.594 152.967 181.92 153.266C182.247 153.565 182.485 153.915 182.634 154.316L181.472 154.876C181.295 154.484 181.024 154.167 180.66 153.924C180.296 153.672 179.876 153.546 179.4 153.546C178.943 153.546 178.528 153.663 178.154 153.896C177.79 154.129 177.501 154.447 177.286 154.848C177.072 155.249 176.964 155.711 176.964 156.234C176.964 156.738 177.072 157.195 177.286 157.606C177.501 158.007 177.79 158.325 178.154 158.558C178.528 158.791 178.943 158.908 179.4 158.908C179.876 158.908 180.296 158.787 180.66 158.544C181.024 158.292 181.295 157.961 181.472 157.55L182.634 158.138C182.485 158.53 182.247 158.88 181.92 159.188C181.594 159.487 181.216 159.725 180.786 159.902C180.357 160.079 179.895 160.168 179.4 160.168ZM186.982 160.084C186.244 160.084 185.675 159.874 185.274 159.454C184.882 159.034 184.686 158.441 184.686 157.676V153.7H183.314V152.454H183.594C183.93 152.454 184.196 152.351 184.392 152.146C184.588 151.941 184.686 151.67 184.686 151.334V150.718H185.988V152.454H187.682V153.7H185.988V157.634C185.988 157.886 186.025 158.105 186.1 158.292C186.184 158.479 186.319 158.628 186.506 158.74C186.692 158.843 186.94 158.894 187.248 158.894C187.313 158.894 187.392 158.889 187.486 158.88C187.588 158.871 187.682 158.861 187.766 158.852V160C187.644 160.028 187.509 160.047 187.36 160.056C187.21 160.075 187.084 160.084 186.982 160.084ZM190.193 160L193.931 149.57H195.555L199.293 160H197.823L196.969 157.55H192.517L191.663 160H190.193ZM192.951 156.29H196.535L194.547 150.564H194.939L192.951 156.29ZM203.259 160.168C202.522 160.168 201.864 159.995 201.285 159.65C200.716 159.305 200.268 158.833 199.941 158.236C199.615 157.639 199.451 156.967 199.451 156.22C199.451 155.464 199.615 154.792 199.941 154.204C200.268 153.616 200.716 153.149 201.285 152.804C201.864 152.459 202.522 152.286 203.259 152.286C203.754 152.286 204.216 152.375 204.645 152.552C205.075 152.729 205.453 152.967 205.779 153.266C206.106 153.565 206.344 153.915 206.493 154.316L205.331 154.876C205.154 154.484 204.883 154.167 204.519 153.924C204.155 153.672 203.735 153.546 203.259 153.546C202.802 153.546 202.387 153.663 202.013 153.896C201.649 154.129 201.36 154.447 201.145 154.848C200.931 155.249 200.823 155.711 200.823 156.234C200.823 156.738 200.931 157.195 201.145 157.606C201.36 158.007 201.649 158.325 202.013 158.558C202.387 158.791 202.802 158.908 203.259 158.908C203.735 158.908 204.155 158.787 204.519 158.544C204.883 158.292 205.154 157.961 205.331 157.55L206.493 158.138C206.344 158.53 206.106 158.88 205.779 159.188C205.453 159.487 205.075 159.725 204.645 159.902C204.216 160.079 203.754 160.168 203.259 160.168ZM211.275 160.168C210.538 160.168 209.88 159.995 209.301 159.65C208.732 159.305 208.284 158.833 207.957 158.236C207.63 157.639 207.467 156.967 207.467 156.22C207.467 155.464 207.63 154.792 207.957 154.204C208.284 153.616 208.732 153.149 209.301 152.804C209.88 152.459 210.538 152.286 211.275 152.286C211.77 152.286 212.232 152.375 212.661 152.552C213.09 152.729 213.468 152.967 213.795 153.266C214.122 153.565 214.36 153.915 214.509 154.316L213.347 154.876C213.17 154.484 212.899 154.167 212.535 153.924C212.171 153.672 211.751 153.546 211.275 153.546C210.818 153.546 210.402 153.663 210.029 153.896C209.665 154.129 209.376 154.447 209.161 154.848C208.946 155.249 208.839 155.711 208.839 156.234C208.839 156.738 208.946 157.195 209.161 157.606C209.376 158.007 209.665 158.325 210.029 158.558C210.402 158.791 210.818 158.908 211.275 158.908C211.751 158.908 212.171 158.787 212.535 158.544C212.899 158.292 213.17 157.961 213.347 157.55L214.509 158.138C214.36 158.53 214.122 158.88 213.795 159.188C213.468 159.487 213.09 159.725 212.661 159.902C212.232 160.079 211.77 160.168 211.275 160.168ZM219.374 160.168C218.646 160.168 217.988 160 217.4 159.664C216.812 159.319 216.346 158.847 216 158.25C215.655 157.653 215.482 156.976 215.482 156.22C215.482 155.464 215.65 154.792 215.986 154.204C216.332 153.616 216.798 153.149 217.386 152.804C217.974 152.459 218.637 152.286 219.374 152.286C220.102 152.286 220.76 152.459 221.348 152.804C221.936 153.14 222.398 153.602 222.734 154.19C223.08 154.778 223.252 155.455 223.252 156.22C223.252 156.985 223.075 157.667 222.72 158.264C222.366 158.852 221.894 159.319 221.306 159.664C220.728 160 220.084 160.168 219.374 160.168ZM219.374 158.908C219.841 158.908 220.261 158.791 220.634 158.558C221.017 158.325 221.316 158.003 221.53 157.592C221.754 157.181 221.866 156.724 221.866 156.22C221.866 155.707 221.754 155.254 221.53 154.862C221.316 154.461 221.017 154.143 220.634 153.91C220.261 153.667 219.841 153.546 219.374 153.546C218.898 153.546 218.469 153.667 218.086 153.91C217.713 154.143 217.414 154.461 217.19 154.862C216.966 155.254 216.854 155.707 216.854 156.22C216.854 156.724 216.966 157.181 217.19 157.592C217.414 158.003 217.713 158.325 218.086 158.558C218.469 158.791 218.898 158.908 219.374 158.908ZM227.205 160.168C226.663 160.168 226.173 160.042 225.735 159.79C225.305 159.538 224.969 159.188 224.727 158.74C224.493 158.283 224.377 157.76 224.377 157.172V152.454H225.679V157.032C225.679 157.405 225.753 157.732 225.903 158.012C226.061 158.292 226.276 158.511 226.547 158.67C226.827 158.829 227.144 158.908 227.499 158.908C227.853 158.908 228.166 158.829 228.437 158.67C228.717 158.511 228.931 158.283 229.081 157.984C229.239 157.685 229.319 157.331 229.319 156.92V152.454H230.635V160H229.361V158.53L229.571 158.656C229.393 159.132 229.09 159.505 228.661 159.776C228.241 160.037 227.755 160.168 227.205 160.168ZM232.232 160V152.454H233.506V153.924L233.296 153.798C233.482 153.322 233.781 152.953 234.192 152.692C234.612 152.421 235.102 152.286 235.662 152.286C236.203 152.286 236.684 152.407 237.104 152.65C237.533 152.893 237.869 153.229 238.112 153.658C238.364 154.087 238.49 154.573 238.49 155.114V160H237.174V155.534C237.174 155.114 237.099 154.759 236.95 154.47C236.8 154.181 236.586 153.957 236.306 153.798C236.035 153.63 235.722 153.546 235.368 153.546C235.013 153.546 234.696 153.63 234.416 153.798C234.145 153.957 233.93 154.185 233.772 154.484C233.613 154.773 233.534 155.123 233.534 155.534V160H232.232ZM242.999 160.084C242.261 160.084 241.692 159.874 241.291 159.454C240.899 159.034 240.703 158.441 240.703 157.676V153.7H239.331V152.454H239.611C239.947 152.454 240.213 152.351 240.409 152.146C240.605 151.941 240.703 151.67 240.703 151.334V150.718H242.005V152.454H243.699V153.7H242.005V157.634C242.005 157.886 242.042 158.105 242.117 158.292C242.201 158.479 242.336 158.628 242.523 158.74C242.709 158.843 242.957 158.894 243.265 158.894C243.33 158.894 243.409 158.889 243.503 158.88C243.605 158.871 243.699 158.861 243.783 158.852V160C243.661 160.028 243.526 160.047 243.377 160.056C243.227 160.075 243.101 160.084 242.999 160.084ZM250.129 160.084C249.392 160.084 248.823 159.874 248.421 159.454C248.029 159.034 247.833 158.441 247.833 157.676V153.7H246.461V152.454H246.741C247.077 152.454 247.343 152.351 247.539 152.146C247.735 151.941 247.833 151.67 247.833 151.334V150.718H249.135V152.454H250.829V153.7H249.135V157.634C249.135 157.886 249.173 158.105 249.247 158.292C249.331 158.479 249.467 158.628 249.653 158.74C249.84 158.843 250.087 158.894 250.395 158.894C250.461 158.894 250.54 158.889 250.633 158.88C250.736 158.871 250.829 158.861 250.913 158.852V160C250.792 160.028 250.657 160.047 250.507 160.056C250.358 160.075 250.232 160.084 250.129 160.084ZM255.573 160.168C254.845 160.168 254.187 160 253.599 159.664C253.011 159.319 252.545 158.847 252.199 158.25C251.854 157.653 251.681 156.976 251.681 156.22C251.681 155.464 251.849 154.792 252.185 154.204C252.531 153.616 252.997 153.149 253.585 152.804C254.173 152.459 254.836 152.286 255.573 152.286C256.301 152.286 256.959 152.459 257.547 152.804C258.135 153.14 258.597 153.602 258.933 154.19C259.279 154.778 259.451 155.455 259.451 156.22C259.451 156.985 259.274 157.667 258.919 158.264C258.565 158.852 258.093 159.319 257.505 159.664C256.927 160 256.283 160.168 255.573 160.168ZM255.573 158.908C256.04 158.908 256.46 158.791 256.833 158.558C257.216 158.325 257.515 158.003 257.729 157.592C257.953 157.181 258.065 156.724 258.065 156.22C258.065 155.707 257.953 155.254 257.729 154.862C257.515 154.461 257.216 154.143 256.833 153.91C256.46 153.667 256.04 153.546 255.573 153.546C255.097 153.546 254.668 153.667 254.285 153.91C253.912 154.143 253.613 154.461 253.389 154.862C253.165 155.254 253.053 155.707 253.053 156.22C253.053 156.724 253.165 157.181 253.389 157.592C253.613 158.003 253.912 158.325 254.285 158.558C254.668 158.791 255.097 158.908 255.573 158.908ZM261.875 160L265.613 149.57H267.237L270.975 160H269.505L268.651 157.55H264.199L263.345 160H261.875ZM264.633 156.29H268.217L266.229 150.564H266.621L264.633 156.29ZM271.715 162.8V152.454H272.989V154.078L272.821 153.756C273.101 153.308 273.484 152.953 273.969 152.692C274.455 152.421 275.01 152.286 275.635 152.286C276.345 152.286 276.979 152.459 277.539 152.804C278.109 153.149 278.557 153.621 278.883 154.218C279.21 154.806 279.373 155.478 279.373 156.234C279.373 156.971 279.21 157.639 278.883 158.236C278.557 158.833 278.109 159.305 277.539 159.65C276.979 159.995 276.34 160.168 275.621 160.168C275.015 160.168 274.459 160.033 273.955 159.762C273.461 159.491 273.078 159.109 272.807 158.614L273.017 158.39V162.8H271.715ZM275.523 158.908C275.999 158.908 276.424 158.791 276.797 158.558C277.171 158.325 277.46 158.007 277.665 157.606C277.88 157.195 277.987 156.738 277.987 156.234C277.987 155.711 277.88 155.254 277.665 154.862C277.46 154.461 277.171 154.143 276.797 153.91C276.424 153.667 275.999 153.546 275.523 153.546C275.047 153.546 274.618 153.663 274.235 153.896C273.862 154.129 273.563 154.451 273.339 154.862C273.125 155.263 273.017 155.721 273.017 156.234C273.017 156.738 273.125 157.195 273.339 157.606C273.563 158.007 273.862 158.325 274.235 158.558C274.618 158.791 275.047 158.908 275.523 158.908ZM280.661 162.8V152.454H281.935V154.078L281.767 153.756C282.047 153.308 282.429 152.953 282.915 152.692C283.4 152.421 283.955 152.286 284.581 152.286C285.29 152.286 285.925 152.459 286.485 152.804C287.054 153.149 287.502 153.621 287.829 154.218C288.155 154.806 288.319 155.478 288.319 156.234C288.319 156.971 288.155 157.639 287.829 158.236C287.502 158.833 287.054 159.305 286.485 159.65C285.925 159.995 285.285 160.168 284.567 160.168C283.96 160.168 283.405 160.033 282.901 159.762C282.406 159.491 282.023 159.109 281.753 158.614L281.963 158.39V162.8H280.661ZM284.469 158.908C284.945 158.908 285.369 158.791 285.743 158.558C286.116 158.325 286.405 158.007 286.611 157.606C286.825 157.195 286.933 156.738 286.933 156.234C286.933 155.711 286.825 155.254 286.611 154.862C286.405 154.461 286.116 154.143 285.743 153.91C285.369 153.667 284.945 153.546 284.469 153.546C283.993 153.546 283.563 153.663 283.181 153.896C282.807 154.129 282.509 154.451 282.285 154.862C282.07 155.263 281.963 155.721 281.963 156.234C281.963 156.738 282.07 157.195 282.285 157.606C282.509 158.007 282.807 158.325 283.181 158.558C283.563 158.791 283.993 158.908 284.469 158.908ZM289.606 160V149.402H290.908V160H289.606ZM292.914 163.08C292.746 163.08 292.578 163.066 292.41 163.038C292.242 163.01 292.084 162.963 291.934 162.898V161.736C292.037 161.755 292.163 161.773 292.312 161.792C292.471 161.82 292.625 161.834 292.774 161.834C293.213 161.834 293.544 161.736 293.768 161.54C294.002 161.353 294.221 161.027 294.426 160.56L294.902 159.426L294.874 160.56L291.654 152.454H293.068L295.574 158.894H295.154L297.646 152.454H299.088L295.686 160.896C295.528 161.297 295.322 161.661 295.07 161.988C294.828 162.324 294.529 162.59 294.174 162.786C293.82 162.982 293.4 163.08 292.914 163.08ZM301.98 160V149.57H305.662C306.353 149.57 306.96 149.701 307.482 149.962C308.005 150.223 308.411 150.597 308.7 151.082C308.999 151.567 309.148 152.137 309.148 152.79C309.148 153.527 308.962 154.153 308.588 154.666C308.215 155.179 307.711 155.548 307.076 155.772L309.498 160H307.902L305.354 155.478L306.264 156.01H303.352V160H301.98ZM303.352 154.75H305.704C306.115 154.75 306.474 154.671 306.782 154.512C307.09 154.353 307.328 154.125 307.496 153.826C307.674 153.527 307.762 153.182 307.762 152.79C307.762 152.389 307.674 152.043 307.496 151.754C307.328 151.455 307.09 151.227 306.782 151.068C306.474 150.909 306.115 150.83 305.704 150.83H303.352V154.75ZM313.159 160.168C312.617 160.168 312.127 160.042 311.689 159.79C311.259 159.538 310.923 159.188 310.681 158.74C310.447 158.283 310.331 157.76 310.331 157.172V152.454H311.633V157.032C311.633 157.405 311.707 157.732 311.857 158.012C312.015 158.292 312.23 158.511 312.501 158.67C312.781 158.829 313.098 158.908 313.453 158.908C313.807 158.908 314.12 158.829 314.391 158.67C314.671 158.511 314.885 158.283 315.035 157.984C315.193 157.685 315.273 157.331 315.273 156.92V152.454H316.589V160H315.315V158.53L315.525 158.656C315.347 159.132 315.044 159.505 314.615 159.776C314.195 160.037 313.709 160.168 313.159 160.168ZM318.186 160V149.402H319.488V160H318.186ZM324.56 160.168C323.832 160.168 323.183 159.995 322.614 159.65C322.045 159.305 321.597 158.833 321.27 158.236C320.943 157.629 320.78 156.953 320.78 156.206C320.78 155.45 320.939 154.778 321.256 154.19C321.583 153.602 322.021 153.14 322.572 152.804C323.132 152.459 323.757 152.286 324.448 152.286C325.008 152.286 325.503 152.389 325.932 152.594C326.371 152.79 326.739 153.061 327.038 153.406C327.346 153.742 327.579 154.129 327.738 154.568C327.906 154.997 327.99 155.445 327.99 155.912C327.99 156.015 327.981 156.131 327.962 156.262C327.953 156.383 327.939 156.5 327.92 156.612H321.732V155.492H327.164L326.548 155.996C326.632 155.511 326.585 155.077 326.408 154.694C326.231 154.311 325.969 154.008 325.624 153.784C325.279 153.56 324.887 153.448 324.448 153.448C324.009 153.448 323.608 153.56 323.244 153.784C322.88 154.008 322.595 154.33 322.39 154.75C322.194 155.161 322.115 155.651 322.152 156.22C322.115 156.771 322.199 157.256 322.404 157.676C322.619 158.087 322.917 158.409 323.3 158.642C323.692 158.866 324.117 158.978 324.574 158.978C325.078 158.978 325.503 158.861 325.848 158.628C326.193 158.395 326.473 158.096 326.688 157.732L327.78 158.292C327.631 158.637 327.397 158.955 327.08 159.244C326.772 159.524 326.403 159.748 325.974 159.916C325.554 160.084 325.083 160.168 324.56 160.168Z" fill="#55555C"/>
<rect x="146.5" y="174.5" width="260" height="51" rx="10.5" fill="white"/>
<rect x="146.5" y="174.5" width="260" height="51" rx="10.5" stroke="#E5E5E6"/>
<path d="M163.176 207L167.528 195.08H168.904L173.256 207H171.912L170.888 204.088H165.56L164.52 207H163.176ZM165.976 202.888H170.44L168.024 196.04H168.408L165.976 202.888ZM174.67 207V194.888H175.87V207H174.67ZM178.326 207V194.888H179.526V207H178.326ZM183.645 207L187.997 195.08H189.373L193.725 207H192.381L191.357 204.088H186.029L184.989 207H183.645ZM186.445 202.888H190.909L188.493 196.04H188.877L186.445 202.888ZM198.746 207.192C197.903 207.192 197.162 206.995 196.522 206.6C195.882 206.205 195.38 205.672 195.018 205C194.655 204.317 194.474 203.549 194.474 202.696C194.474 201.843 194.655 201.08 195.018 200.408C195.38 199.736 195.882 199.208 196.522 198.824C197.162 198.429 197.903 198.232 198.746 198.232C199.279 198.232 199.78 198.328 200.25 198.52C200.719 198.712 201.135 198.973 201.498 199.304C201.86 199.624 202.132 199.997 202.314 200.424L201.226 200.984C201.012 200.525 200.687 200.152 200.25 199.864C199.812 199.576 199.311 199.432 198.746 199.432C198.18 199.432 197.668 199.576 197.21 199.864C196.762 200.141 196.404 200.531 196.138 201.032C195.882 201.523 195.754 202.083 195.754 202.712C195.754 203.331 195.882 203.891 196.138 204.392C196.404 204.883 196.762 205.272 197.21 205.56C197.668 205.848 198.18 205.992 198.746 205.992C199.311 205.992 199.807 205.848 200.234 205.56C200.671 205.272 201.002 204.888 201.226 204.408L202.314 205C202.132 205.416 201.86 205.789 201.498 206.12C201.135 206.451 200.719 206.712 200.25 206.904C199.78 207.096 199.279 207.192 198.746 207.192ZM208.34 207.192C207.497 207.192 206.756 206.995 206.116 206.6C205.476 206.205 204.974 205.672 204.612 205C204.249 204.317 204.068 203.549 204.068 202.696C204.068 201.843 204.249 201.08 204.612 200.408C204.974 199.736 205.476 199.208 206.116 198.824C206.756 198.429 207.497 198.232 208.34 198.232C208.873 198.232 209.374 198.328 209.844 198.52C210.313 198.712 210.729 198.973 211.092 199.304C211.454 199.624 211.726 199.997 211.908 200.424L210.82 200.984C210.606 200.525 210.281 200.152 209.844 199.864C209.406 199.576 208.905 199.432 208.34 199.432C207.774 199.432 207.262 199.576 206.804 199.864C206.356 200.141 205.998 200.531 205.732 201.032C205.476 201.523 205.348 202.083 205.348 202.712C205.348 203.331 205.476 203.891 205.732 204.392C205.998 204.883 206.356 205.272 206.804 205.56C207.262 205.848 207.774 205.992 208.34 205.992C208.905 205.992 209.401 205.848 209.828 205.56C210.265 205.272 210.596 204.888 210.82 204.408L211.908 205C211.726 205.416 211.454 205.789 211.092 206.12C210.729 206.451 210.313 206.712 209.844 206.904C209.374 207.096 208.873 207.192 208.34 207.192ZM218.029 207.192C217.219 207.192 216.483 207 215.821 206.616C215.16 206.221 214.632 205.688 214.237 205.016C213.853 204.333 213.661 203.56 213.661 202.696C213.661 201.843 213.853 201.08 214.237 200.408C214.621 199.736 215.139 199.208 215.789 198.824C216.451 198.429 217.197 198.232 218.029 198.232C218.861 198.232 219.603 198.424 220.253 198.808C220.915 199.192 221.432 199.72 221.805 200.392C222.189 201.064 222.381 201.832 222.381 202.696C222.381 203.571 222.184 204.349 221.789 205.032C221.395 205.704 220.867 206.232 220.205 206.616C219.555 207 218.829 207.192 218.029 207.192ZM218.029 205.992C218.605 205.992 219.123 205.848 219.581 205.56C220.051 205.272 220.419 204.877 220.685 204.376C220.963 203.875 221.101 203.315 221.101 202.696C221.101 202.077 220.963 201.523 220.685 201.032C220.419 200.541 220.051 200.152 219.581 199.864C219.123 199.576 218.605 199.432 218.029 199.432C217.453 199.432 216.931 199.576 216.461 199.864C216.003 200.152 215.635 200.541 215.357 201.032C215.08 201.523 214.941 202.077 214.941 202.696C214.941 203.315 215.08 203.875 215.357 204.376C215.635 204.877 216.003 205.272 216.461 205.56C216.931 205.848 217.453 205.992 218.029 205.992ZM227.538 207.192C226.94 207.192 226.396 207.053 225.906 206.776C225.415 206.488 225.026 206.093 224.738 205.592C224.46 205.08 224.322 204.493 224.322 203.832V198.424H225.522V203.688C225.522 204.147 225.612 204.552 225.794 204.904C225.986 205.245 226.247 205.512 226.578 205.704C226.919 205.896 227.308 205.992 227.746 205.992C228.183 205.992 228.572 205.896 228.914 205.704C229.255 205.501 229.522 205.219 229.714 204.856C229.906 204.483 230.002 204.04 230.002 203.528V198.424H231.202V207H230.002V205.336L230.274 205.4C230.071 205.955 229.724 206.392 229.234 206.712C228.743 207.032 228.178 207.192 227.538 207.192ZM233.67 207V198.424H234.87V200.088L234.598 200.024C234.811 199.469 235.158 199.032 235.638 198.712C236.128 198.392 236.694 198.232 237.334 198.232C237.942 198.232 238.486 198.371 238.966 198.648C239.456 198.925 239.84 199.309 240.118 199.8C240.406 200.28 240.55 200.824 240.55 201.432V207H239.35V201.896C239.35 201.373 239.254 200.931 239.062 200.568C238.88 200.205 238.619 199.928 238.278 199.736C237.947 199.533 237.563 199.432 237.126 199.432C236.688 199.432 236.299 199.533 235.958 199.736C235.616 199.928 235.35 200.211 235.158 200.584C234.966 200.947 234.87 201.384 234.87 201.896V207H233.67ZM246.121 207.096C245.353 207.096 244.761 206.872 244.345 206.424C243.929 205.976 243.721 205.336 243.721 204.504V199.624H242.137V198.424H242.537C242.9 198.424 243.188 198.307 243.401 198.072C243.615 197.827 243.721 197.523 243.721 197.16V196.44H244.921V198.424H246.809V199.624H244.921V204.504C244.921 204.792 244.964 205.048 245.049 205.272C245.135 205.485 245.279 205.656 245.481 205.784C245.695 205.912 245.977 205.976 246.329 205.976C246.415 205.976 246.516 205.971 246.633 205.96C246.751 205.949 246.852 205.939 246.937 205.928V207C246.809 207.032 246.665 207.053 246.505 207.064C246.345 207.085 246.217 207.096 246.121 207.096ZM252.021 207.192C251.199 207.192 250.479 206.984 249.861 206.568C249.242 206.152 248.794 205.587 248.517 204.872L249.525 204.392C249.77 204.915 250.111 205.331 250.549 205.64C250.997 205.949 251.487 206.104 252.021 206.104C252.533 206.104 252.965 205.981 253.317 205.736C253.669 205.48 253.845 205.149 253.845 204.744C253.845 204.445 253.759 204.211 253.589 204.04C253.418 203.859 253.221 203.72 252.997 203.624C252.773 203.528 252.575 203.459 252.405 203.416L251.173 203.064C250.383 202.84 249.813 202.525 249.461 202.12C249.109 201.715 248.933 201.245 248.933 200.712C248.933 200.211 249.061 199.773 249.317 199.4C249.573 199.027 249.919 198.739 250.357 198.536C250.794 198.333 251.279 198.232 251.812 198.232C252.538 198.232 253.194 198.424 253.781 198.808C254.378 199.181 254.799 199.704 255.045 200.376L254.021 200.856C253.807 200.376 253.498 200.003 253.093 199.736C252.698 199.459 252.255 199.32 251.765 199.32C251.285 199.32 250.901 199.443 250.613 199.688C250.325 199.933 250.181 200.243 250.181 200.616C250.181 200.904 250.255 201.133 250.405 201.304C250.554 201.475 250.725 201.603 250.917 201.688C251.119 201.773 251.295 201.837 251.445 201.88L252.869 202.296C253.562 202.499 254.101 202.813 254.485 203.24C254.879 203.667 255.077 204.168 255.077 204.744C255.077 205.213 254.943 205.635 254.677 206.008C254.421 206.381 254.063 206.675 253.605 206.888C253.146 207.091 252.618 207.192 252.021 207.192Z" fill="#AAAAAD"/>
<path d="M21.162 268V257.57H27.77V258.83H22.534V262.204H27.28V263.464H22.534V268H21.162ZM28.3263 268V260.454H29.6003V261.84L29.4603 261.644C29.6376 261.215 29.9083 260.897 30.2723 260.692C30.6363 260.477 31.0796 260.37 31.6023 260.37H32.0643V261.602H31.4063C30.8743 261.602 30.4449 261.77 30.1183 262.106C29.7916 262.433 29.6283 262.899 29.6283 263.506V268H28.3263ZM36.3848 268.168C35.6568 268.168 34.9988 268 34.4108 267.664C33.8228 267.319 33.3561 266.847 33.0108 266.25C32.6655 265.653 32.4928 264.976 32.4928 264.22C32.4928 263.464 32.6608 262.792 32.9968 262.204C33.3421 261.616 33.8088 261.149 34.3968 260.804C34.9848 260.459 35.6475 260.286 36.3848 260.286C37.1128 260.286 37.7708 260.459 38.3588 260.804C38.9468 261.14 39.4088 261.602 39.7448 262.19C40.0901 262.778 40.2628 263.455 40.2628 264.22C40.2628 264.985 40.0855 265.667 39.7308 266.264C39.3761 266.852 38.9048 267.319 38.3168 267.664C37.7381 268 37.0941 268.168 36.3848 268.168ZM36.3848 266.908C36.8515 266.908 37.2715 266.791 37.6448 266.558C38.0275 266.325 38.3261 266.003 38.5408 265.592C38.7648 265.181 38.8768 264.724 38.8768 264.22C38.8768 263.707 38.7648 263.254 38.5408 262.862C38.3261 262.461 38.0275 262.143 37.6448 261.91C37.2715 261.667 36.8515 261.546 36.3848 261.546C35.9088 261.546 35.4795 261.667 35.0968 261.91C34.7235 262.143 34.4248 262.461 34.2008 262.862C33.9768 263.254 33.8648 263.707 33.8648 264.22C33.8648 264.724 33.9768 265.181 34.2008 265.592C34.4248 266.003 34.7235 266.325 35.0968 266.558C35.4795 266.791 35.9088 266.908 36.3848 266.908ZM41.541 268V260.454H42.815V261.994L42.633 261.756C42.8196 261.28 43.1183 260.916 43.529 260.664C43.9396 260.412 44.4016 260.286 44.915 260.286C45.503 260.286 46.0303 260.449 46.497 260.776C46.973 261.103 47.2996 261.532 47.477 262.064L47.113 262.078C47.309 261.49 47.6403 261.047 48.107 260.748C48.5736 260.44 49.0916 260.286 49.661 260.286C50.1836 260.286 50.655 260.407 51.075 260.65C51.5043 260.893 51.845 261.229 52.097 261.658C52.349 262.087 52.475 262.573 52.475 263.114V268H51.159V263.534C51.159 263.114 51.0843 262.759 50.935 262.47C50.7856 262.181 50.5803 261.957 50.319 261.798C50.067 261.63 49.7683 261.546 49.423 261.546C49.087 261.546 48.7836 261.63 48.513 261.798C48.2516 261.957 48.0416 262.185 47.883 262.484C47.7336 262.773 47.659 263.123 47.659 263.534V268H46.343V263.534C46.343 263.114 46.2683 262.759 46.119 262.47C45.9696 262.181 45.7643 261.957 45.503 261.798C45.251 261.63 44.9523 261.546 44.607 261.546C44.271 261.546 43.9676 261.63 43.697 261.798C43.4356 261.957 43.2256 262.185 43.067 262.484C42.9176 262.773 42.843 263.123 42.843 263.534V268H41.541Z" fill="#55555C"/>
<rect x="19.5" y="282.5" width="387" height="51" rx="10.5" fill="white"/>
<rect x="19.5" y="282.5" width="387" height="51" rx="10.5" stroke="#E5E5E6"/>
<path d="M37.984 315V303.08H39.312L45.28 313.592H44.848V303.08H46.048V315H44.72L38.752 304.424H39.184V315H37.984ZM36.704 309.56V308.52H47.328V309.56H36.704ZM53.9033 315.192C52.9646 315.192 52.1379 314.936 51.4233 314.424C50.7193 313.901 50.1699 313.181 49.7753 312.264C49.3806 311.336 49.1833 310.259 49.1833 309.032C49.1833 307.805 49.3806 306.733 49.7753 305.816C50.1699 304.888 50.7193 304.168 51.4233 303.656C52.1273 303.144 52.9486 302.888 53.8873 302.888C54.8259 302.888 55.6473 303.144 56.3513 303.656C57.0553 304.168 57.6046 304.888 57.9993 305.816C58.3939 306.733 58.5913 307.805 58.5913 309.032C58.5913 310.259 58.3939 311.336 57.9993 312.264C57.6153 313.192 57.0713 313.912 56.3673 314.424C55.6633 314.936 54.8419 315.192 53.9033 315.192ZM53.9033 313.992C54.5859 313.992 55.1833 313.784 55.6953 313.368C56.2073 312.952 56.6073 312.376 56.8953 311.64C57.1833 310.893 57.3273 310.024 57.3273 309.032C57.3273 308.04 57.1833 307.176 56.8953 306.44C56.6073 305.693 56.2073 305.117 55.6953 304.712C55.1833 304.296 54.5806 304.088 53.8873 304.088C53.2046 304.088 52.6073 304.296 52.0953 304.712C51.5833 305.117 51.1833 305.693 50.8953 306.44C50.6073 307.176 50.4633 308.04 50.4633 309.032C50.4633 310.013 50.6073 310.877 50.8953 311.624C51.1833 312.371 51.5833 312.952 52.0953 313.368C52.6179 313.784 53.2206 313.992 53.9033 313.992ZM61.398 315V313.24H62.678V315H61.398ZM70.2001 315.192C69.2615 315.192 68.4348 314.936 67.7201 314.424C67.0161 313.901 66.4668 313.181 66.0721 312.264C65.6775 311.336 65.4801 310.259 65.4801 309.032C65.4801 307.805 65.6775 306.733 66.0721 305.816C66.4668 304.888 67.0161 304.168 67.7201 303.656C68.4241 303.144 69.2455 302.888 70.1841 302.888C71.1228 302.888 71.9441 303.144 72.6481 303.656C73.3521 304.168 73.9015 304.888 74.2961 305.816C74.6908 306.733 74.8881 307.805 74.8881 309.032C74.8881 310.259 74.6908 311.336 74.2961 312.264C73.9121 313.192 73.3681 313.912 72.6641 314.424C71.9601 314.936 71.1388 315.192 70.2001 315.192ZM70.2001 313.992C70.8828 313.992 71.4801 313.784 71.9921 313.368C72.5041 312.952 72.9041 312.376 73.1921 311.64C73.4801 310.893 73.6241 310.024 73.6241 309.032C73.6241 308.04 73.4801 307.176 73.1921 306.44C72.9041 305.693 72.5041 305.117 71.9921 304.712C71.4801 304.296 70.8775 304.088 70.1841 304.088C69.5015 304.088 68.9041 304.296 68.3921 304.712C67.8801 305.117 67.4801 305.693 67.1921 306.44C66.9041 307.176 66.7601 308.04 66.7601 309.032C66.7601 310.013 66.9041 310.877 67.1921 311.624C67.4801 312.371 67.8801 312.952 68.3921 313.368C68.9148 313.784 69.5175 313.992 70.2001 313.992ZM81.9189 315.192C80.9802 315.192 80.1535 314.936 79.4389 314.424C78.7349 313.901 78.1855 313.181 77.7909 312.264C77.3962 311.336 77.1989 310.259 77.1989 309.032C77.1989 307.805 77.3962 306.733 77.7909 305.816C78.1855 304.888 78.7349 304.168 79.4389 303.656C80.1429 303.144 80.9642 302.888 81.9029 302.888C82.8415 302.888 83.6629 303.144 84.3669 303.656C85.0709 304.168 85.6202 304.888 86.0149 305.816C86.4095 306.733 86.6069 307.805 86.6069 309.032C86.6069 310.259 86.4095 311.336 86.0149 312.264C85.6309 313.192 85.0869 313.912 84.3829 314.424C83.6789 314.936 82.8575 315.192 81.9189 315.192ZM81.9189 313.992C82.6015 313.992 83.1989 313.784 83.7109 313.368C84.2229 312.952 84.6229 312.376 84.9109 311.64C85.1989 310.893 85.3429 310.024 85.3429 309.032C85.3429 308.04 85.1989 307.176 84.9109 306.44C84.6229 305.693 84.2229 305.117 83.7109 304.712C83.1989 304.296 82.5962 304.088 81.9029 304.088C81.2202 304.088 80.6229 304.296 80.1109 304.712C79.5989 305.117 79.1989 305.693 78.9109 306.44C78.6229 307.176 78.4789 308.04 78.4789 309.032C78.4789 310.013 78.6229 310.877 78.9109 311.624C79.1989 312.371 79.5989 312.952 80.1109 313.368C80.6335 313.784 81.2362 313.992 81.9189 313.992Z" fill="#AAAAAD"/>
<path d="M22.982 376V366.83H20.154V365.57H27.154V366.83H24.368V376H22.982ZM30.5021 376.168C29.7741 376.168 29.1161 376 28.5281 375.664C27.9401 375.319 27.4734 374.847 27.1281 374.25C26.7827 373.653 26.6101 372.976 26.6101 372.22C26.6101 371.464 26.7781 370.792 27.1141 370.204C27.4594 369.616 27.9261 369.149 28.5141 368.804C29.1021 368.459 29.7647 368.286 30.5021 368.286C31.2301 368.286 31.8881 368.459 32.4761 368.804C33.0641 369.14 33.5261 369.602 33.8621 370.19C34.2074 370.778 34.3801 371.455 34.3801 372.22C34.3801 372.985 34.2027 373.667 33.8481 374.264C33.4934 374.852 33.0221 375.319 32.4341 375.664C31.8554 376 31.2114 376.168 30.5021 376.168ZM30.5021 374.908C30.9687 374.908 31.3887 374.791 31.7621 374.558C32.1447 374.325 32.4434 374.003 32.6581 373.592C32.8821 373.181 32.9941 372.724 32.9941 372.22C32.9941 371.707 32.8821 371.254 32.6581 370.862C32.4434 370.461 32.1447 370.143 31.7621 369.91C31.3887 369.667 30.9687 369.546 30.5021 369.546C30.0261 369.546 29.5967 369.667 29.2141 369.91C28.8407 370.143 28.5421 370.461 28.3181 370.862C28.0941 371.254 27.9821 371.707 27.9821 372.22C27.9821 372.724 28.0941 373.181 28.3181 373.592C28.5421 374.003 28.8407 374.325 29.2141 374.558C29.5967 374.791 30.0261 374.908 30.5021 374.908Z" fill="#55555C"/>
<rect x="19.5" y="390.5" width="387" height="51" rx="10.5" fill="white"/>
<rect x="19.5" y="390.5" width="387" height="51" rx="10.5" stroke="#E5E5E6"/>
<path d="M37.984 423V411.08H39.312L45.28 421.592H44.848V411.08H46.048V423H44.72L38.752 412.424H39.184V423H37.984ZM36.704 417.56V416.52H47.328V417.56H36.704ZM52.8633 423.192C52.2446 423.192 51.6686 423.085 51.1353 422.872C50.6126 422.659 50.1539 422.355 49.7593 421.96C49.3646 421.565 49.0659 421.096 48.8633 420.552L49.8393 420.072C50.0846 420.691 50.4846 421.181 51.0393 421.544C51.6046 421.896 52.2126 422.072 52.8633 422.072C53.3859 422.072 53.8499 421.949 54.2553 421.704C54.6713 421.459 54.9966 421.128 55.2313 420.712C55.4659 420.285 55.5833 419.811 55.5833 419.288C55.5833 418.744 55.4606 418.264 55.2153 417.848C54.9806 417.432 54.6606 417.107 54.2553 416.872C53.8499 416.627 53.3913 416.504 52.8793 416.504C52.3566 416.504 51.8713 416.627 51.4233 416.872C50.9859 417.107 50.6659 417.395 50.4633 417.736L49.4553 417.544L50.3513 411.08H56.3833V412.2H50.8153L51.3113 411.768L50.5913 416.856L50.0953 416.632C50.4686 416.173 50.9059 415.848 51.4073 415.656C51.9086 415.453 52.4206 415.352 52.9433 415.352C53.7113 415.352 54.3886 415.533 54.9753 415.896C55.5619 416.248 56.0206 416.723 56.3513 417.32C56.6926 417.907 56.8633 418.563 56.8633 419.288C56.8633 420.024 56.6873 420.691 56.3353 421.288C55.9939 421.875 55.5193 422.339 54.9113 422.68C54.3139 423.021 53.6313 423.192 52.8633 423.192ZM63.7626 423.192C62.824 423.192 61.9973 422.936 61.2826 422.424C60.5786 421.901 60.0293 421.181 59.6346 420.264C59.24 419.336 59.0426 418.259 59.0426 417.032C59.0426 415.805 59.24 414.733 59.6346 413.816C60.0293 412.888 60.5786 412.168 61.2826 411.656C61.9866 411.144 62.808 410.888 63.7466 410.888C64.6853 410.888 65.5066 411.144 66.2106 411.656C66.9146 412.168 67.464 412.888 67.8586 413.816C68.2533 414.733 68.4506 415.805 68.4506 417.032C68.4506 418.259 68.2533 419.336 67.8586 420.264C67.4746 421.192 66.9306 421.912 66.2266 422.424C65.5226 422.936 64.7013 423.192 63.7626 423.192ZM63.7626 421.992C64.4453 421.992 65.0426 421.784 65.5546 421.368C66.0666 420.952 66.4666 420.376 66.7546 419.64C67.0426 418.893 67.1866 418.024 67.1866 417.032C67.1866 416.04 67.0426 415.176 66.7546 414.44C66.4666 413.693 66.0666 413.117 65.5546 412.712C65.0426 412.296 64.44 412.088 63.7466 412.088C63.064 412.088 62.4666 412.296 61.9546 412.712C61.4426 413.117 61.0426 413.693 60.7546 414.44C60.4666 415.176 60.3226 416.04 60.3226 417.032C60.3226 418.013 60.4666 418.877 60.7546 419.624C61.0426 420.371 61.4426 420.952 61.9546 421.368C62.4773 421.784 63.08 421.992 63.7626 421.992ZM75.4814 423.192C74.5427 423.192 73.716 422.936 73.0014 422.424C72.2974 421.901 71.748 421.181 71.3534 420.264C70.9587 419.336 70.7614 418.259 70.7614 417.032C70.7614 415.805 70.9587 414.733 71.3534 413.816C71.748 412.888 72.2974 412.168 73.0014 411.656C73.7054 411.144 74.5267 410.888 75.4654 410.888C76.404 410.888 77.2254 411.144 77.9294 411.656C78.6334 412.168 79.1827 412.888 79.5774 413.816C79.972 414.733 80.1694 415.805 80.1694 417.032C80.1694 418.259 79.972 419.336 79.5774 420.264C79.1934 421.192 78.6494 421.912 77.9454 422.424C77.2414 422.936 76.42 423.192 75.4814 423.192ZM75.4814 421.992C76.164 421.992 76.7614 421.784 77.2734 421.368C77.7854 420.952 78.1854 420.376 78.4734 419.64C78.7614 418.893 78.9054 418.024 78.9054 417.032C78.9054 416.04 78.7614 415.176 78.4734 414.44C78.1854 413.693 77.7854 413.117 77.2734 412.712C76.7614 412.296 76.1587 412.088 75.4654 412.088C74.7827 412.088 74.1854 412.296 73.6734 412.712C73.1614 413.117 72.7614 413.693 72.4734 414.44C72.1854 415.176 72.0414 416.04 72.0414 417.032C72.0414 418.013 72.1854 418.877 72.4734 419.624C72.7614 420.371 73.1614 420.952 73.6734 421.368C74.196 421.784 74.7987 421.992 75.4814 421.992ZM82.6081 425.08V424.52C82.9281 424.435 83.1628 424.269 83.3121 424.024C83.4615 423.779 83.5361 423.437 83.5361 423H82.9281V421.24H84.2081V422.584C84.2081 423.277 84.0748 423.832 83.8081 424.248C83.5415 424.675 83.1415 424.952 82.6081 425.08ZM91.5126 423.192C90.574 423.192 89.7473 422.936 89.0326 422.424C88.3286 421.901 87.7793 421.181 87.3846 420.264C86.99 419.336 86.7926 418.259 86.7926 417.032C86.7926 415.805 86.99 414.733 87.3846 413.816C87.7793 412.888 88.3286 412.168 89.0326 411.656C89.7366 411.144 90.558 410.888 91.4966 410.888C92.4353 410.888 93.2566 411.144 93.9606 411.656C94.6646 412.168 95.214 412.888 95.6086 413.816C96.0033 414.733 96.2006 415.805 96.2006 417.032C96.2006 418.259 96.0033 419.336 95.6086 420.264C95.2246 421.192 94.6806 421.912 93.9766 422.424C93.2726 422.936 92.4513 423.192 91.5126 423.192ZM91.5126 421.992C92.1953 421.992 92.7926 421.784 93.3046 421.368C93.8166 420.952 94.2166 420.376 94.5046 419.64C94.7926 418.893 94.9366 418.024 94.9366 417.032C94.9366 416.04 94.7926 415.176 94.5046 414.44C94.2166 413.693 93.8166 413.117 93.3046 412.712C92.7926 412.296 92.19 412.088 91.4966 412.088C90.814 412.088 90.2166 412.296 89.7046 412.712C89.1926 413.117 88.7926 413.693 88.5046 414.44C88.2166 415.176 88.0726 416.04 88.0726 417.032C88.0726 418.013 88.2166 418.877 88.5046 419.624C88.7926 420.371 89.1926 420.952 89.7046 421.368C90.2273 421.784 90.83 421.992 91.5126 421.992ZM103.231 423.192C102.293 423.192 101.466 422.936 100.751 422.424C100.047 421.901 99.498 421.181 99.1034 420.264C98.7087 419.336 98.5114 418.259 98.5114 417.032C98.5114 415.805 98.7087 414.733 99.1034 413.816C99.498 412.888 100.047 412.168 100.751 411.656C101.455 411.144 102.277 410.888 103.215 410.888C104.154 410.888 104.975 411.144 105.679 411.656C106.383 412.168 106.933 412.888 107.327 413.816C107.722 414.733 107.919 415.805 107.919 417.032C107.919 418.259 107.722 419.336 107.327 420.264C106.943 421.192 106.399 421.912 105.695 422.424C104.991 422.936 104.17 423.192 103.231 423.192ZM103.231 421.992C103.914 421.992 104.511 421.784 105.023 421.368C105.535 420.952 105.935 420.376 106.223 419.64C106.511 418.893 106.655 418.024 106.655 417.032C106.655 416.04 106.511 415.176 106.223 414.44C105.935 413.693 105.535 413.117 105.023 412.712C104.511 412.296 103.909 412.088 103.215 412.088C102.533 412.088 101.935 412.296 101.423 412.712C100.911 413.117 100.511 413.693 100.223 414.44C99.9354 415.176 99.7914 416.04 99.7914 417.032C99.7914 418.013 99.9354 418.877 100.223 419.624C100.511 420.371 100.911 420.952 101.423 421.368C101.946 421.784 102.549 421.992 103.231 421.992ZM114.95 423.192C114.011 423.192 113.185 422.936 112.47 422.424C111.766 421.901 111.217 421.181 110.822 420.264C110.427 419.336 110.23 418.259 110.23 417.032C110.23 415.805 110.427 414.733 110.822 413.816C111.217 412.888 111.766 412.168 112.47 411.656C113.174 411.144 113.995 410.888 114.934 410.888C115.873 410.888 116.694 411.144 117.398 411.656C118.102 412.168 118.651 412.888 119.046 413.816C119.441 414.733 119.638 415.805 119.638 417.032C119.638 418.259 119.441 419.336 119.046 420.264C118.662 421.192 118.118 421.912 117.414 422.424C116.71 422.936 115.889 423.192 114.95 423.192ZM114.95 421.992C115.633 421.992 116.23 421.784 116.742 421.368C117.254 420.952 117.654 420.376 117.942 419.64C118.23 418.893 118.374 418.024 118.374 417.032C118.374 416.04 118.23 415.176 117.942 414.44C117.654 413.693 117.254 413.117 116.742 412.712C116.23 412.296 115.627 412.088 114.934 412.088C114.251 412.088 113.654 412.296 113.142 412.712C112.63 413.117 112.23 413.693 111.942 414.44C111.654 415.176 111.51 416.04 111.51 417.032C111.51 418.013 111.654 418.877 111.942 419.624C112.23 420.371 112.63 420.952 113.142 421.368C113.665 421.784 114.267 421.992 114.95 421.992ZM122.445 423V421.24H123.725V423H122.445ZM131.247 423.192C130.308 423.192 129.482 422.936 128.767 422.424C128.063 421.901 127.514 421.181 127.119 420.264C126.724 419.336 126.527 418.259 126.527 417.032C126.527 415.805 126.724 414.733 127.119 413.816C127.514 412.888 128.063 412.168 128.767 411.656C129.471 411.144 130.292 410.888 131.231 410.888C132.17 410.888 132.991 411.144 133.695 411.656C134.399 412.168 134.948 412.888 135.343 413.816C135.738 414.733 135.935 415.805 135.935 417.032C135.935 418.259 135.738 419.336 135.343 420.264C134.959 421.192 134.415 421.912 133.711 422.424C133.007 422.936 132.186 423.192 131.247 423.192ZM131.247 421.992C131.93 421.992 132.527 421.784 133.039 421.368C133.551 420.952 133.951 420.376 134.239 419.64C134.527 418.893 134.671 418.024 134.671 417.032C134.671 416.04 134.527 415.176 134.239 414.44C133.951 413.693 133.551 413.117 133.039 412.712C132.527 412.296 131.924 412.088 131.231 412.088C130.548 412.088 129.951 412.296 129.439 412.712C128.927 413.117 128.527 413.693 128.239 414.44C127.951 415.176 127.807 416.04 127.807 417.032C127.807 418.013 127.951 418.877 128.239 419.624C128.527 420.371 128.927 420.952 129.439 421.368C129.962 421.784 130.564 421.992 131.247 421.992ZM142.966 423.192C142.027 423.192 141.2 422.936 140.486 422.424C139.782 421.901 139.232 421.181 138.838 420.264C138.443 419.336 138.246 418.259 138.246 417.032C138.246 415.805 138.443 414.733 138.838 413.816C139.232 412.888 139.782 412.168 140.486 411.656C141.19 411.144 142.011 410.888 142.95 410.888C143.888 410.888 144.71 411.144 145.414 411.656C146.118 412.168 146.667 412.888 147.062 413.816C147.456 414.733 147.654 415.805 147.654 417.032C147.654 418.259 147.456 419.336 147.062 420.264C146.678 421.192 146.134 421.912 145.43 422.424C144.726 422.936 143.904 423.192 142.966 423.192ZM142.966 421.992C143.648 421.992 144.246 421.784 144.758 421.368C145.27 420.952 145.67 420.376 145.958 419.64C146.246 418.893 146.39 418.024 146.39 417.032C146.39 416.04 146.246 415.176 145.958 414.44C145.67 413.693 145.27 413.117 144.758 412.712C144.246 412.296 143.643 412.088 142.95 412.088C142.267 412.088 141.67 412.296 141.158 412.712C140.646 413.117 140.246 413.693 139.958 414.44C139.67 415.176 139.526 416.04 139.526 417.032C139.526 418.013 139.67 418.877 139.958 419.624C140.246 420.371 140.646 420.952 141.158 421.368C141.68 421.784 142.283 421.992 142.966 421.992Z" fill="#AAAAAD"/>
<rect x="20" y="94" width="90" height="33" rx="16.5" fill="#E7FDF3"/>
<path d="M40.056 115.144C39.488 115.144 38.96 115.04 38.472 114.832C37.992 114.624 37.576 114.336 37.224 113.968C36.88 113.592 36.628 113.156 36.468 112.66L37.824 112.072C38.04 112.584 38.352 112.988 38.76 113.284C39.168 113.572 39.628 113.716 40.14 113.716C40.428 113.716 40.676 113.672 40.884 113.584C41.1 113.488 41.264 113.36 41.376 113.2C41.496 113.04 41.556 112.848 41.556 112.624C41.556 112.36 41.476 112.144 41.316 111.976C41.164 111.8 40.932 111.664 40.62 111.568L38.904 111.016C38.208 110.8 37.684 110.476 37.332 110.044C36.98 109.612 36.804 109.104 36.804 108.52C36.804 108.008 36.928 107.556 37.176 107.164C37.432 106.772 37.784 106.468 38.232 106.252C38.688 106.028 39.208 105.916 39.792 105.916C40.328 105.916 40.82 106.012 41.268 106.204C41.716 106.388 42.1 106.648 42.42 106.984C42.748 107.312 42.992 107.7 43.152 108.148L41.808 108.748C41.632 108.3 41.368 107.956 41.016 107.716C40.664 107.468 40.256 107.344 39.792 107.344C39.52 107.344 39.28 107.392 39.072 107.488C38.864 107.576 38.7 107.704 38.58 107.872C38.468 108.032 38.412 108.224 38.412 108.448C38.412 108.696 38.492 108.916 38.652 109.108C38.812 109.292 39.056 109.436 39.384 109.54L41.028 110.056C41.74 110.288 42.272 110.608 42.624 111.016C42.984 111.424 43.164 111.928 43.164 112.528C43.164 113.04 43.032 113.492 42.768 113.884C42.504 114.276 42.14 114.584 41.676 114.808C41.212 115.032 40.672 115.144 40.056 115.144ZM47.3575 115.072C46.6215 115.072 46.0495 114.872 45.6415 114.472C45.2415 114.064 45.0415 113.492 45.0415 112.756V109.876H43.9135V108.472H44.0335C44.3535 108.472 44.6015 108.388 44.7775 108.22C44.9535 108.052 45.0415 107.808 45.0415 107.488V106.984H46.6135V108.472H48.1135V109.876H46.6135V112.672C46.6135 112.888 46.6495 113.072 46.7215 113.224C46.8015 113.376 46.9215 113.492 47.0815 113.572C47.2495 113.652 47.4615 113.692 47.7175 113.692C47.7735 113.692 47.8375 113.688 47.9095 113.68C47.9895 113.672 48.0655 113.664 48.1375 113.656V115C48.0255 115.016 47.8975 115.032 47.7535 115.048C47.6095 115.064 47.4775 115.072 47.3575 115.072ZM52.256 115.144C51.584 115.144 50.996 114.992 50.492 114.688C49.988 114.384 49.596 113.972 49.316 113.452C49.036 112.932 48.896 112.356 48.896 111.724C48.896 111.068 49.036 110.488 49.316 109.984C49.604 109.472 49.992 109.068 50.48 108.772C50.976 108.476 51.528 108.328 52.136 108.328C52.648 108.328 53.096 108.412 53.48 108.58C53.872 108.748 54.204 108.98 54.476 109.276C54.748 109.572 54.956 109.912 55.1 110.296C55.244 110.672 55.316 111.08 55.316 111.52C55.316 111.632 55.308 111.748 55.292 111.868C55.284 111.988 55.264 112.092 55.232 112.18H50.192V110.98H54.344L53.6 111.544C53.672 111.176 53.652 110.848 53.54 110.56C53.436 110.272 53.26 110.044 53.012 109.876C52.772 109.708 52.48 109.624 52.136 109.624C51.808 109.624 51.516 109.708 51.26 109.876C51.004 110.036 50.808 110.276 50.672 110.596C50.544 110.908 50.496 111.288 50.528 111.736C50.496 112.136 50.548 112.492 50.684 112.804C50.828 113.108 51.036 113.344 51.308 113.512C51.588 113.68 51.908 113.764 52.268 113.764C52.628 113.764 52.932 113.688 53.18 113.536C53.436 113.384 53.636 113.18 53.78 112.924L55.052 113.548C54.924 113.86 54.724 114.136 54.452 114.376C54.18 114.616 53.856 114.804 53.48 114.94C53.112 115.076 52.704 115.144 52.256 115.144ZM56.3876 117.4V108.472H57.8636V109.768L57.7196 109.444C57.9436 109.092 58.2476 108.82 58.6316 108.628C59.0156 108.428 59.4596 108.328 59.9636 108.328C60.5796 108.328 61.1356 108.48 61.6316 108.784C62.1276 109.088 62.5196 109.496 62.8076 110.008C63.1036 110.52 63.2516 111.096 63.2516 111.736C63.2516 112.368 63.1076 112.944 62.8196 113.464C62.5316 113.984 62.1396 114.396 61.6436 114.7C61.1476 114.996 60.5836 115.144 59.9516 115.144C59.4796 115.144 59.0436 115.052 58.6436 114.868C58.2516 114.676 57.9396 114.404 57.7076 114.052L57.9596 113.74V117.4H56.3876ZM59.7716 113.704C60.1316 113.704 60.4516 113.62 60.7316 113.452C61.0116 113.284 61.2276 113.052 61.3796 112.756C61.5396 112.46 61.6196 112.12 61.6196 111.736C61.6196 111.352 61.5396 111.016 61.3796 110.728C61.2276 110.432 61.0116 110.2 60.7316 110.032C60.4516 109.856 60.1316 109.768 59.7716 109.768C59.4276 109.768 59.1156 109.852 58.8356 110.02C58.5636 110.188 58.3476 110.424 58.1876 110.728C58.0356 111.024 57.9596 111.36 57.9596 111.736C57.9596 112.12 58.0356 112.46 58.1876 112.756C58.3476 113.052 58.5636 113.284 58.8356 113.452C59.1156 113.62 59.4276 113.704 59.7716 113.704ZM67.6869 115V107.452H65.9589V106.06H69.3189V115H67.6869ZM76.2676 115.144C75.6276 115.144 75.0436 114.996 74.5156 114.7C73.9956 114.404 73.5796 114 73.2676 113.488C72.9636 112.976 72.8116 112.392 72.8116 111.736C72.8116 111.08 72.9636 110.496 73.2676 109.984C73.5796 109.472 73.9956 109.068 74.5156 108.772C75.0356 108.476 75.6196 108.328 76.2676 108.328C76.9076 108.328 77.4876 108.476 78.0076 108.772C78.5276 109.068 78.9396 109.472 79.2436 109.984C79.5556 110.488 79.7116 111.072 79.7116 111.736C79.7116 112.392 79.5556 112.976 79.2436 113.488C78.9316 114 78.5156 114.404 77.9956 114.7C77.4756 114.996 76.8996 115.144 76.2676 115.144ZM76.2676 113.704C76.6196 113.704 76.9276 113.62 77.1916 113.452C77.4636 113.284 77.6756 113.052 77.8276 112.756C77.9876 112.452 78.0676 112.112 78.0676 111.736C78.0676 111.352 77.9876 111.016 77.8276 110.728C77.6756 110.432 77.4636 110.2 77.1916 110.032C76.9276 109.856 76.6196 109.768 76.2676 109.768C75.9076 109.768 75.5916 109.856 75.3196 110.032C75.0476 110.2 74.8316 110.432 74.6716 110.728C74.5196 111.016 74.4436 111.352 74.4436 111.736C74.4436 112.112 74.5196 112.452 74.6716 112.756C74.8316 113.052 75.0476 113.284 75.3196 113.452C75.5916 113.62 75.9076 113.704 76.2676 113.704ZM81.3991 115V109.876H80.2471V108.472H81.3991V108.256C81.3991 107.76 81.4991 107.34 81.6991 106.996C81.9071 106.644 82.1951 106.376 82.5631 106.192C82.9311 106.008 83.3671 105.916 83.8711 105.916C83.9671 105.916 84.0711 105.924 84.1831 105.94C84.3031 105.948 84.4031 105.96 84.4831 105.976V107.332C84.4031 107.316 84.3271 107.308 84.2551 107.308C84.1911 107.3 84.1311 107.296 84.0751 107.296C83.7231 107.296 83.4511 107.376 83.2591 107.536C83.0671 107.688 82.9711 107.928 82.9711 108.256V108.472H84.4231V109.876H82.9711V115H81.3991ZM87.2309 115V113.764L89.6549 111.232C90.1349 110.728 90.5029 110.328 90.7589 110.032C91.0229 109.728 91.2069 109.468 91.3109 109.252C91.4149 109.036 91.4669 108.816 91.4669 108.592C91.4669 108.216 91.3469 107.92 91.1069 107.704C90.8749 107.488 90.5749 107.38 90.2069 107.38C89.8229 107.38 89.4909 107.492 89.2109 107.716C88.9309 107.932 88.7269 108.252 88.5989 108.676L87.1709 108.232C87.2669 107.76 87.4629 107.352 87.7589 107.008C88.0549 106.656 88.4149 106.388 88.8389 106.204C89.2709 106.012 89.7269 105.916 90.2069 105.916C90.7829 105.916 91.2869 106.02 91.7189 106.228C92.1589 106.436 92.4989 106.728 92.7389 107.104C92.9869 107.48 93.1109 107.92 93.1109 108.424C93.1109 108.744 93.0509 109.06 92.9309 109.372C92.8109 109.684 92.6309 110.004 92.3909 110.332C92.1509 110.652 91.8389 111.012 91.4549 111.412L89.3549 113.62H93.2309V115H87.2309Z" fill="#01C467"/>
</svg>
