<svg width="22" height="26" viewBox="0 0 22 26" fill="none" xmlns="http://www.w3.org/2000/svg">
<path d="M1.46632 7.5993C1.32958 5.64389 1.26122 4.66618 1.58954 3.89271C1.87834 3.21234 2.37512 2.64086 3.00867 2.26018C3.72893 1.82741 4.70663 1.75904 6.66204 1.6223L10.4 1.36092C11.254 1.3012 11.681 1.27135 12.0895 1.33972C12.4518 1.40034 12.8022 1.51759 13.128 1.68718C13.4954 1.87846 13.8185 2.15928 14.4646 2.72091L18.4346 6.17197C19.0806 6.73361 19.4037 7.01442 19.6442 7.35167C19.8575 7.65067 20.0224 7.98138 20.1328 8.33166C20.2574 8.72674 20.2873 9.15373 20.347 10.0077L20.9339 18.401C21.0706 20.3564 21.139 21.3341 20.8107 22.1075C20.5219 22.7879 20.0251 23.3594 19.3915 23.7401C18.6713 24.1728 17.6936 24.2412 15.7382 24.3779L8.28969 24.8988C6.33428 25.0355 5.35658 25.1039 4.5831 24.7756C3.90273 24.4868 3.33125 23.99 2.95058 23.3564C2.5178 22.6362 2.44943 21.6585 2.3127 19.7031L1.46632 7.5993Z" fill="#01C467"/>
<path d="M6.78896 16.8171L7.0331 20.3086Z" fill="#01C467"/>
<path d="M15.9368 13.8384L16.3437 19.6575Z" fill="#01C467"/>
<path d="M11.078 11.2544L11.6884 19.9831Z" fill="#01C467"/>
<path d="M12.7359 1.5128L13.072 6.32003C13.1176 6.97183 13.1404 7.29773 13.2846 7.53782C13.4115 7.749 13.602 7.91459 13.8288 8.01086C14.0866 8.1203 14.4126 8.09751 15.0644 8.05193L19.8716 7.71578M6.78896 16.8171L7.0331 20.3086M15.9368 13.8384L16.3437 19.6575M11.078 11.2544L11.6884 19.9831M20.347 10.0077L20.9339 18.401C21.0706 20.3564 21.139 21.3341 20.8107 22.1075C20.5219 22.7879 20.0251 23.3594 19.3915 23.7401C18.6713 24.1728 17.6936 24.2412 15.7382 24.3779L8.28969 24.8988C6.33428 25.0355 5.35658 25.1039 4.5831 24.7756C3.90273 24.4868 3.33125 23.99 2.95058 23.3564C2.5178 22.6362 2.44943 21.6585 2.3127 19.7031L1.46632 7.5993C1.32958 5.64389 1.26122 4.66618 1.58954 3.89271C1.87834 3.21234 2.37512 2.64086 3.00867 2.26018C3.72893 1.82741 4.70663 1.75904 6.66204 1.6223L10.4 1.36092C11.254 1.3012 11.681 1.27135 12.0895 1.33972C12.4518 1.40034 12.8022 1.51759 13.128 1.68718C13.4954 1.87846 13.8185 2.15928 14.4646 2.72091L18.4346 6.17197C19.0806 6.73361 19.4037 7.01442 19.6442 7.35167C19.8575 7.65067 20.0224 7.98138 20.1328 8.33166C20.2574 8.72674 20.2873 9.15373 20.347 10.0077Z" stroke="#2B2B33" stroke-width="1.5" stroke-linecap="round" stroke-linejoin="round"/>
</svg>
