<svg width="29" height="28" viewBox="0 0 29 28" fill="none" xmlns="http://www.w3.org/2000/svg">
<path d="M11.6836 12.8333C14.2609 12.8333 16.3503 10.744 16.3503 8.16667C16.3503 5.58934 14.2609 3.5 11.6836 3.5C9.10626 3.5 7.01693 5.58934 7.01693 8.16667C7.01693 10.744 9.10626 12.8333 11.6836 12.8333Z" fill="#01C467"/>
<path d="M19.2669 21L22.7669 17.5M22.7669 17.5L26.2669 21M22.7669 17.5V24.5M18.6836 3.83922C20.3938 4.5315 21.6003 6.2082 21.6003 8.16667C21.6003 10.1251 20.3938 11.8018 18.6836 12.4941M14.6003 17.5H9.93359C7.7592 17.5 6.672 17.5 5.8144 17.8552C4.67094 18.3289 3.76246 19.2373 3.28882 20.3808C2.93359 21.2384 2.93359 22.3256 2.93359 24.5M16.3503 8.16667C16.3503 10.744 14.2609 12.8333 11.6836 12.8333C9.10626 12.8333 7.01693 10.744 7.01693 8.16667C7.01693 5.58934 9.10626 3.5 11.6836 3.5C14.2609 3.5 16.3503 5.58934 16.3503 8.16667Z" stroke="#01C467" stroke-width="2.5" stroke-linecap="round" stroke-linejoin="round"/>
</svg>
