<svg width="26" height="18" viewBox="0 0 26 18" fill="none" xmlns="http://www.w3.org/2000/svg">
<path d="M1.82348 9.83196C1.66459 9.58038 1.58515 9.45459 1.54068 9.26057C1.50727 9.11483 1.50727 8.885 1.54068 8.73927C1.58515 8.54525 1.66459 8.41946 1.82348 8.16788C3.13645 6.0889 7.04463 0.833252 13.0005 0.833252C18.9563 0.833252 22.8645 6.0889 24.1775 8.16788C24.3364 8.41946 24.4158 8.54525 24.4603 8.73927C24.4937 8.885 24.4937 9.11483 24.4603 9.26057C24.4158 9.45459 24.3364 9.58038 24.1775 9.83196C22.8645 11.9109 18.9563 17.1666 13.0005 17.1666C7.04463 17.1666 3.13645 11.9109 1.82348 9.83196Z" fill="#01C467"/>
<path d="M13.0005 12.4999C14.9335 12.4999 16.5005 10.9329 16.5005 8.99992C16.5005 7.06692 14.9335 5.49992 13.0005 5.49992C11.0675 5.49992 9.50047 7.06692 9.50047 8.99992C9.50047 10.9329 11.0675 12.4999 13.0005 12.4999Z" fill="#01C467"/>
<path d="M1.82348 9.83196C1.66459 9.58038 1.58515 9.45459 1.54068 9.26057C1.50727 9.11483 1.50727 8.885 1.54068 8.73927C1.58515 8.54525 1.66459 8.41946 1.82348 8.16788C3.13645 6.0889 7.04463 0.833252 13.0005 0.833252C18.9563 0.833252 22.8645 6.0889 24.1775 8.16788C24.3364 8.41946 24.4158 8.54525 24.4603 8.73927C24.4937 8.885 24.4937 9.11483 24.4603 9.26057C24.4158 9.45459 24.3364 9.58038 24.1775 9.83196C22.8645 11.9109 18.9563 17.1666 13.0005 17.1666C7.04463 17.1666 3.13645 11.9109 1.82348 9.83196Z" stroke="#2B2B33" stroke-width="1.5" stroke-linecap="round" stroke-linejoin="round"/>
<path d="M13.0005 12.4999C14.9335 12.4999 16.5005 10.9329 16.5005 8.99992C16.5005 7.06692 14.9335 5.49992 13.0005 5.49992C11.0675 5.49992 9.50047 7.06692 9.50047 8.99992C9.50047 10.9329 11.0675 12.4999 13.0005 12.4999Z" stroke="#2B2B33" stroke-width="1.5" stroke-linecap="round" stroke-linejoin="round"/>
</svg>
