<svg width="457" height="431" viewBox="0 0 457 431" fill="none" xmlns="http://www.w3.org/2000/svg">
<g clip-path="url(#clip0_6440_44447)">
<rect x="0.5" width="456" height="431" rx="16" fill="#DEFCEF"/>
<path d="M172.755 326.882L174.618 314.602C176.994 298.941 181.208 285.562 187.261 274.464C193.724 263.065 201.217 253.278 209.74 245.104C218.262 236.93 226.828 229.672 235.436 223.332C247.324 214.576 257.982 206.726 267.41 199.782C276.892 192.481 282.471 183.314 284.144 172.28C285.278 164.806 284.498 157.951 281.802 151.717C279.161 145.126 274.524 139.689 267.892 135.405C261.669 130.82 253.397 127.745 243.075 126.179C229.906 124.181 217.717 126.519 206.509 133.193C195.711 139.566 188.218 149.353 184.031 162.554L112.655 132.609C118.882 113.163 128.825 96.8296 142.482 83.6086C156.496 70.4416 173.227 60.9639 192.675 55.1756C212.479 49.4412 233.771 48.302 256.55 51.7579C284.312 55.9698 306.789 65.0235 323.979 78.9192C341.579 92.5129 353.888 108.581 360.906 127.123C367.978 145.31 370.083 163.835 367.222 182.699C365.17 196.225 360.664 207.921 353.705 217.789C347.156 227.355 339.292 235.993 330.111 243.703C320.985 251.058 311.53 258.18 301.746 265.07C289.146 273.718 277.711 283.089 267.441 293.183C257.171 303.276 250.874 315.976 248.553 331.281L247.5 338.221L172.755 326.882ZM151.99 449.353L164.139 369.269L244.223 381.418L232.074 461.502L151.99 449.353Z" fill="url(#paint0_angular_6440_44447)"/>
</g>
<defs>
<radialGradient id="paint0_angular_6440_44447" cx="0" cy="0" r="1" gradientUnits="userSpaceOnUse" gradientTransform="translate(113.5 276.5) rotate(-21.688) scale(281.422 231.718)">
<stop offset="0.0563682" stop-color="#B3F9D8"/>
<stop offset="0.490045" stop-color="#DEFCEE"/>
<stop offset="1" stop-color="#A0F8CF"/>
</radialGradient>
<clipPath id="clip0_6440_44447">
<rect x="0.5" width="456" height="431" rx="16" fill="white"/>
</clipPath>
</defs>
</svg>
