<svg width="56" height="56" viewBox="0 0 56 56" fill="none" xmlns="http://www.w3.org/2000/svg">
<circle cx="28" cy="28" r="28" fill="#E7FDF3"/>
<path d="M32.6665 23.333C34.523 23.333 36.3035 24.0705 37.6163 25.3833C38.929 26.696 39.6665 28.4765 39.6665 30.333V38.4997H34.9998V30.333C34.9998 29.7142 34.754 29.1207 34.3164 28.6831C33.8788 28.2455 33.2853 27.9997 32.6665 27.9997C32.0477 27.9997 31.4542 28.2455 31.0166 28.6831C30.579 29.1207 30.3332 29.7142 30.3332 30.333V38.4997H25.6665V30.333C25.6665 28.4765 26.404 26.696 27.7168 25.3833C29.0295 24.0705 30.81 23.333 32.6665 23.333Z" stroke="#01C467" stroke-width="1.2" stroke-linecap="round" stroke-linejoin="round"/>
<path d="M21.0002 24.5H16.3335V38.5H21.0002V24.5Z" stroke="#01C467" stroke-width="1.2" stroke-linecap="round" stroke-linejoin="round"/>
<path d="M18.6668 20.9997C19.9555 20.9997 21.0002 19.955 21.0002 18.6663C21.0002 17.3777 19.9555 16.333 18.6668 16.333C17.3782 16.333 16.3335 17.3777 16.3335 18.6663C16.3335 19.955 17.3782 20.9997 18.6668 20.9997Z" stroke="#01C467" stroke-width="1.2" stroke-linecap="round" stroke-linejoin="round"/>
</svg>
