<svg width="56" height="56" viewBox="0 0 56 56" fill="none" xmlns="http://www.w3.org/2000/svg">
<circle cx="28" cy="28" r="28" fill="#E7FDF3"/>
<path d="M33.8335 15.6094H22.1668C18.9452 15.6094 16.3335 18.221 16.3335 21.4427V33.1094C16.3335 36.331 18.9452 38.9427 22.1668 38.9427H33.8335C37.0552 38.9427 39.6668 36.331 39.6668 33.1094V21.4427C39.6668 18.221 37.0552 15.6094 33.8335 15.6094Z" stroke="#01C467" stroke-width="1.2" stroke-linecap="round" stroke-linejoin="round"/>
<path d="M32.6667 26.5417C32.8106 27.5127 32.6448 28.5043 32.1927 29.3756C31.7406 30.2468 31.0253 30.9534 30.1485 31.3947C29.2718 31.836 28.2782 31.9896 27.3091 31.8336C26.34 31.6777 25.4447 31.2201 24.7506 30.5261C24.0566 29.832 23.599 28.9367 23.4431 27.9676C23.2871 26.9985 23.4407 26.0049 23.882 25.1282C24.3233 24.2514 25.0299 23.5361 25.9011 23.084C26.7724 22.6319 27.764 22.4661 28.735 22.6101C29.7254 22.7569 30.6423 23.2184 31.3503 23.9264C32.0583 24.6344 32.5198 25.5513 32.6667 26.5417Z" stroke="#01C467" stroke-width="1.2" stroke-linecap="round" stroke-linejoin="round"/>
<path d="M34.4165 20.8594H34.4282" stroke="#01C467" stroke-width="1.2" stroke-linecap="round" stroke-linejoin="round"/>
</svg>
