<svg width="29" height="28" viewBox="0 0 29 28" fill="none" xmlns="http://www.w3.org/2000/svg">
<path d="M15.2174 2.54195C15.0643 2.46542 14.9878 2.42716 14.9075 2.4121C14.8364 2.39877 14.7635 2.39877 14.6924 2.4121C14.6121 2.42716 14.5356 2.46542 14.3826 2.54195L3.1333 8.16658L14.3826 13.7912C14.5356 13.8677 14.6121 13.906 14.6924 13.9211C14.7635 13.9344 14.8364 13.9344 14.9075 13.9211C14.9878 13.906 15.0643 13.8677 15.2174 13.7912L26.4666 8.16658L15.2174 2.54195Z" fill="#01C467"/>
<path d="M8.96663 11.0832L3.1333 13.9999L14.3826 19.6245C14.5356 19.7011 14.6121 19.7393 14.6924 19.7544C14.7635 19.7677 14.8364 19.7677 14.9075 19.7544C14.9878 19.7393 15.0643 19.7011 15.2174 19.6245L26.4666 13.9999L20.6333 11.0832M8.96663 16.9166L3.1333 19.8332L14.3826 25.4579C14.5356 25.5344 14.6121 25.5727 14.6924 25.5877C14.7635 25.6011 14.8364 25.6011 14.9075 25.5877C14.9878 25.5727 15.0643 25.5344 15.2174 25.4579L26.4666 19.8332L20.6333 16.9166M3.1333 8.16658L14.3826 2.54195C14.5356 2.46542 14.6121 2.42716 14.6924 2.4121C14.7635 2.39877 14.8364 2.39877 14.9075 2.4121C14.9878 2.42716 15.0643 2.46542 15.2174 2.54195L26.4666 8.16658L15.2174 13.7912C15.0643 13.8677 14.9878 13.906 14.9075 13.9211C14.8364 13.9344 14.7635 13.9344 14.6924 13.9211C14.6121 13.906 14.5356 13.8677 14.3826 13.7912L3.1333 8.16658Z" stroke="#01C467" stroke-width="1.5" stroke-linecap="round" stroke-linejoin="round"/>
</svg>
