<svg width="1440" height="650" viewBox="0 0 1440 650" fill="none" xmlns="http://www.w3.org/2000/svg">
<g clip-path="url(#clip0_80_1208)">
<rect width="1440" height="650" fill="#01C467"/>
<circle cx="1240" cy="67" r="200" fill="url(#paint0_radial_80_1208)"/>
<path d="M453.504 162L478.704 87.5H499.304L524.504 162H507.604L502.604 146.8H475.304L470.304 162H453.504ZM479.604 133.3H498.304L486.904 98.1H491.104L479.604 133.3ZM551.993 163.2C546.527 163.2 541.593 161.967 537.193 159.5C532.86 156.967 529.393 153.533 526.793 149.2C524.26 144.867 522.993 140 522.993 134.6C522.993 129.2 524.26 124.367 526.793 120.1C529.327 115.767 532.793 112.367 537.193 109.9C541.593 107.433 546.527 106.2 551.993 106.2C556.06 106.2 559.827 106.9 563.293 108.3C566.76 109.7 569.727 111.667 572.193 114.2C574.66 116.667 576.427 119.6 577.493 123L564.493 128.6C563.56 125.867 561.96 123.7 559.693 122.1C557.493 120.5 554.927 119.7 551.993 119.7C549.393 119.7 547.06 120.333 544.993 121.6C542.993 122.867 541.393 124.633 540.193 126.9C539.06 129.167 538.493 131.767 538.493 134.7C538.493 137.633 539.06 140.233 540.193 142.5C541.393 144.767 542.993 146.533 544.993 147.8C547.06 149.067 549.393 149.7 551.993 149.7C554.993 149.7 557.593 148.9 559.793 147.3C561.993 145.7 563.56 143.533 564.493 140.8L577.493 146.5C576.493 149.7 574.76 152.567 572.293 155.1C569.827 157.633 566.86 159.633 563.393 161.1C559.927 162.5 556.127 163.2 551.993 163.2ZM609.126 163.2C603.66 163.2 598.726 161.967 594.326 159.5C589.993 156.967 586.526 153.533 583.926 149.2C581.393 144.867 580.126 140 580.126 134.6C580.126 129.2 581.393 124.367 583.926 120.1C586.46 115.767 589.926 112.367 594.326 109.9C598.726 107.433 603.66 106.2 609.126 106.2C613.193 106.2 616.96 106.9 620.426 108.3C623.893 109.7 626.86 111.667 629.326 114.2C631.793 116.667 633.56 119.6 634.626 123L621.626 128.6C620.693 125.867 619.093 123.7 616.826 122.1C614.626 120.5 612.06 119.7 609.126 119.7C606.526 119.7 604.193 120.333 602.126 121.6C600.126 122.867 598.526 124.633 597.326 126.9C596.193 129.167 595.626 131.767 595.626 134.7C595.626 137.633 596.193 140.233 597.326 142.5C598.526 144.767 600.126 146.533 602.126 147.8C604.193 149.067 606.526 149.7 609.126 149.7C612.126 149.7 614.726 148.9 616.926 147.3C619.126 145.7 620.693 143.533 621.626 140.8L634.626 146.5C633.626 149.7 631.893 152.567 629.426 155.1C626.96 157.633 623.993 159.633 620.526 161.1C617.06 162.5 613.26 163.2 609.126 163.2ZM666.559 163.2C661.159 163.2 656.226 161.967 651.759 159.5C647.359 157.033 643.826 153.667 641.159 149.4C638.559 145.067 637.259 140.167 637.259 134.7C637.259 129.167 638.559 124.267 641.159 120C643.826 115.733 647.359 112.367 651.759 109.9C656.226 107.433 661.159 106.2 666.559 106.2C671.959 106.2 676.859 107.433 681.259 109.9C685.659 112.367 689.159 115.733 691.759 120C694.426 124.267 695.759 129.167 695.759 134.7C695.759 140.167 694.426 145.067 691.759 149.4C689.159 153.667 685.659 157.033 681.259 159.5C676.859 161.967 671.959 163.2 666.559 163.2ZM666.559 149.7C669.292 149.7 671.659 149.067 673.659 147.8C675.726 146.533 677.326 144.767 678.459 142.5C679.659 140.233 680.259 137.633 680.259 134.7C680.259 131.767 679.659 129.2 678.459 127C677.326 124.733 675.726 122.967 673.659 121.7C671.659 120.367 669.292 119.7 666.559 119.7C663.826 119.7 661.426 120.367 659.359 121.7C657.292 122.967 655.659 124.733 654.459 127C653.326 129.2 652.759 131.767 652.759 134.7C652.759 137.633 653.326 140.233 654.459 142.5C655.659 144.767 657.292 146.533 659.359 147.8C661.426 149.067 663.826 149.7 666.559 149.7ZM720.196 163.2C715.796 163.2 712.029 162.267 708.896 160.4C705.829 158.467 703.496 155.8 701.896 152.4C700.296 149 699.496 145.033 699.496 140.5V107.4H714.496V139.3C714.496 141.367 714.896 143.2 715.696 144.8C716.562 146.333 717.762 147.533 719.296 148.4C720.829 149.267 722.562 149.7 724.496 149.7C726.496 149.7 728.229 149.267 729.696 148.4C731.229 147.533 732.396 146.333 733.196 144.8C734.062 143.2 734.496 141.367 734.496 139.3V107.4H749.496V162H735.496V151.2L736.296 153.6C735.029 156.867 732.962 159.3 730.096 160.9C727.296 162.433 723.996 163.2 720.196 163.2ZM756.459 162V107.4H770.459V118.2L769.659 115.8C770.926 112.533 772.959 110.133 775.759 108.6C778.626 107 781.959 106.2 785.759 106.2C789.892 106.2 793.492 107.067 796.559 108.8C799.692 110.533 802.126 112.967 803.859 116.1C805.592 119.167 806.459 122.767 806.459 126.9V162H791.459V130.1C791.459 127.967 791.026 126.133 790.159 124.6C789.359 123.067 788.192 121.867 786.659 121C785.192 120.133 783.459 119.7 781.459 119.7C779.526 119.7 777.792 120.133 776.259 121C774.726 121.867 773.526 123.067 772.659 124.6C771.859 126.133 771.459 127.967 771.459 130.1V162H756.459ZM838.622 162.6C832.022 162.6 826.889 160.833 823.222 157.3C819.622 153.7 817.822 148.7 817.822 142.3V120.4H808.622V107.4H809.122C811.922 107.4 814.056 106.7 815.522 105.3C817.056 103.9 817.822 101.8 817.822 99V95H832.822V107.4H845.622V120.4H832.822V141.3C832.822 143.167 833.156 144.733 833.822 146C834.489 147.2 835.522 148.1 836.922 148.7C838.322 149.3 840.056 149.6 842.122 149.6C842.589 149.6 843.122 149.567 843.722 149.5C844.322 149.433 844.956 149.367 845.622 149.3V162C844.622 162.133 843.489 162.267 842.222 162.4C840.956 162.533 839.756 162.6 838.622 162.6ZM850.412 162V107.4H865.412V162H850.412ZM850.412 102.5V87.5H865.412V102.5H850.412ZM872.389 162V107.4H886.389V118.2L885.589 115.8C886.855 112.533 888.889 110.133 891.689 108.6C894.555 107 897.889 106.2 901.689 106.2C905.822 106.2 909.422 107.067 912.489 108.8C915.622 110.533 918.055 112.967 919.789 116.1C921.522 119.167 922.389 122.767 922.389 126.9V162H907.389V130.1C907.389 127.967 906.955 126.133 906.089 124.6C905.289 123.067 904.122 121.867 902.589 121C901.122 120.133 899.389 119.7 897.389 119.7C895.455 119.7 893.722 120.133 892.189 121C890.655 121.867 889.455 123.067 888.589 124.6C887.789 126.133 887.389 127.967 887.389 130.1V162H872.389ZM955.052 184C950.852 184 946.952 183.3 943.352 181.9C939.752 180.5 936.652 178.533 934.052 176C931.519 173.533 929.685 170.6 928.552 167.2L942.452 162.3C943.185 164.833 944.685 166.833 946.952 168.3C949.219 169.767 951.919 170.5 955.052 170.5C957.519 170.5 959.652 170.033 961.452 169.1C963.252 168.233 964.619 166.933 965.552 165.2C966.552 163.467 967.052 161.433 967.052 159.1V146.6L969.952 150.2C968.085 153.267 965.685 155.567 962.752 157.1C959.819 158.567 956.385 159.3 952.452 159.3C947.385 159.3 942.852 158.167 938.852 155.9C934.852 153.567 931.719 150.4 929.452 146.4C927.185 142.333 926.052 137.733 926.052 132.6C926.052 127.467 927.185 122.933 929.452 119C931.719 115 934.819 111.867 938.752 109.6C942.685 107.333 947.152 106.2 952.152 106.2C956.085 106.2 959.519 107 962.452 108.6C965.385 110.133 967.885 112.5 969.952 115.7L968.052 119.3V107.4H982.052V159.1C982.052 163.9 980.885 168.167 978.552 171.9C976.219 175.7 973.019 178.667 968.952 180.8C964.952 182.933 960.319 184 955.052 184ZM954.552 145.7C957.085 145.7 959.285 145.167 961.152 144.1C963.019 143.033 964.452 141.533 965.452 139.6C966.519 137.667 967.052 135.4 967.052 132.8C967.052 130.2 966.519 127.933 965.452 126C964.385 124 962.919 122.467 961.052 121.4C959.185 120.267 957.019 119.7 954.552 119.7C952.019 119.7 949.752 120.267 947.752 121.4C945.819 122.467 944.285 124 943.152 126C942.085 127.933 941.552 130.2 941.552 132.8C941.552 135.333 942.085 137.567 943.152 139.5C944.285 141.433 945.819 142.967 947.752 144.1C949.752 145.167 952.019 145.7 954.552 145.7Z" fill="url(#paint1_linear_80_1208)" fill-opacity="0.25"/>
<path d="M407.385 382V277.7H447.425C454.612 277.7 460.958 278.96 466.465 281.48C472.065 284 476.452 287.733 479.625 292.68C482.798 297.627 484.385 303.74 484.385 311.02C484.385 318.113 482.752 324.133 479.485 329.08C476.312 334.027 471.925 337.807 466.325 340.42C460.818 342.94 454.518 344.2 447.425 344.2H429.085V382H407.385ZM429.085 325.3H447.565C450.645 325.3 453.305 324.693 455.545 323.48C457.785 322.267 459.512 320.587 460.725 318.44C462.032 316.293 462.685 313.82 462.685 311.02C462.685 308.127 462.032 305.607 460.725 303.46C459.512 301.313 457.785 299.633 455.545 298.42C453.305 297.207 450.645 296.6 447.565 296.6H429.085V325.3ZM510.585 383.68C505.078 383.68 500.318 382.793 496.305 381.02C492.291 379.247 489.211 376.727 487.065 373.46C484.918 370.1 483.845 366.133 483.845 361.56C483.845 357.267 484.825 353.487 486.785 350.22C488.745 346.86 491.731 344.06 495.745 341.82C499.851 339.58 504.938 337.993 511.005 337.06L534.385 333.28V348.68L514.785 352.18C511.798 352.74 509.511 353.72 507.925 355.12C506.338 356.427 505.545 358.34 505.545 360.86C505.545 363.193 506.431 365.013 508.205 366.32C509.978 367.627 512.171 368.28 514.785 368.28C518.238 368.28 521.271 367.533 523.885 366.04C526.498 364.547 528.505 362.54 529.905 360.02C531.398 357.407 532.145 354.56 532.145 351.48V331.6C532.145 328.707 530.978 326.28 528.645 324.32C526.405 322.36 523.325 321.38 519.405 321.38C515.671 321.38 512.358 322.407 509.465 324.46C506.665 326.513 504.611 329.22 503.305 332.58L486.505 324.6C487.998 320.307 490.378 316.62 493.645 313.54C496.911 310.46 500.831 308.08 505.405 306.4C509.978 304.72 514.971 303.88 520.385 303.88C526.825 303.88 532.518 305.047 537.465 307.38C542.411 309.713 546.238 312.98 548.945 317.18C551.745 321.287 553.145 326.093 553.145 331.6V382H533.545V369.68L538.305 368.84C536.065 372.2 533.591 375 530.885 377.24C528.178 379.387 525.145 380.973 521.785 382C518.425 383.12 514.691 383.68 510.585 383.68ZM574.846 412.8C572.606 412.8 570.412 412.613 568.266 412.24C566.212 411.867 564.392 411.26 562.806 410.42V393.2C564.112 393.573 565.652 393.9 567.426 394.18C569.199 394.46 570.832 394.6 572.326 394.6C576.432 394.6 579.372 393.62 581.146 391.66C582.919 389.793 584.366 387.647 585.486 385.22L590.666 373.32L590.386 390.82L556.786 305.56H579.326L601.586 366.18H593.186L615.446 305.56H637.986L605.226 389.14C603.172 394.367 600.652 398.753 597.666 402.3C594.679 405.847 591.272 408.46 587.446 410.14C583.712 411.913 579.512 412.8 574.846 412.8ZM641.564 382V305.56H661.164V324.18L659.064 321.1C660.184 315.22 662.891 310.88 667.184 308.08C671.478 305.28 676.611 303.88 682.584 303.88C688.931 303.88 694.484 305.513 699.244 308.78C704.098 311.953 707.131 316.247 708.344 321.66L702.324 322.22C704.844 315.967 708.438 311.347 713.104 308.36C717.771 305.373 723.231 303.88 729.484 303.88C734.991 303.88 739.844 305.093 744.044 307.52C748.338 309.947 751.698 313.353 754.124 317.74C756.551 322.033 757.764 327.073 757.764 332.86V382H736.764V337.34C736.764 334.353 736.204 331.787 735.084 329.64C734.058 327.493 732.564 325.813 730.604 324.6C728.644 323.387 726.264 322.78 723.464 322.78C720.758 322.78 718.378 323.387 716.324 324.6C714.364 325.813 712.824 327.493 711.704 329.64C710.678 331.787 710.164 334.353 710.164 337.34V382H689.164V337.34C689.164 334.353 688.604 331.787 687.484 329.64C686.458 327.493 684.964 325.813 683.004 324.6C681.044 323.387 678.664 322.78 675.864 322.78C673.158 322.78 670.778 323.387 668.724 324.6C666.764 325.813 665.224 327.493 664.104 329.64C663.078 331.787 662.564 334.353 662.564 337.34V382H641.564ZM802.804 383.68C794.684 383.68 787.637 381.907 781.664 378.36C775.691 374.72 771.071 369.867 767.804 363.8C764.537 357.733 762.904 351.013 762.904 343.64C762.904 335.987 764.584 329.173 767.944 323.2C771.397 317.227 776.017 312.513 781.804 309.06C787.591 305.607 794.124 303.88 801.404 303.88C807.471 303.88 812.837 304.86 817.504 306.82C822.171 308.687 826.091 311.347 829.264 314.8C832.531 318.253 835.004 322.267 836.684 326.84C838.364 331.32 839.204 336.22 839.204 341.54C839.204 343.033 839.111 344.527 838.924 346.02C838.831 347.42 838.597 348.633 838.224 349.66H780.964V334.26H826.324L816.384 341.54C817.317 337.527 817.271 333.98 816.244 330.9C815.217 327.727 813.397 325.253 810.784 323.48C808.264 321.613 805.137 320.68 801.404 320.68C797.764 320.68 794.637 321.567 792.024 323.34C789.411 325.113 787.451 327.727 786.144 331.18C784.837 334.633 784.324 338.833 784.604 343.78C784.231 348.073 784.744 351.853 786.144 355.12C787.544 358.387 789.691 360.953 792.584 362.82C795.477 364.593 798.977 365.48 803.084 365.48C806.817 365.48 809.991 364.733 812.604 363.24C815.311 361.747 817.411 359.693 818.904 357.08L835.704 365.06C834.211 368.793 831.831 372.06 828.564 374.86C825.391 377.66 821.611 379.853 817.224 381.44C812.837 382.933 808.031 383.68 802.804 383.68ZM845.97 382V305.56H865.57V320.68L864.45 317.32C866.223 312.747 869.07 309.387 872.99 307.24C877.003 305 881.67 303.88 886.99 303.88C892.777 303.88 897.817 305.093 902.11 307.52C906.497 309.947 909.903 313.353 912.33 317.74C914.757 322.033 915.97 327.073 915.97 332.86V382H894.97V337.34C894.97 334.353 894.363 331.787 893.15 329.64C892.03 327.493 890.397 325.813 888.25 324.6C886.197 323.387 883.77 322.78 880.97 322.78C878.263 322.78 875.837 323.387 873.69 324.6C871.543 325.813 869.863 327.493 868.65 329.64C867.53 331.787 866.97 334.353 866.97 337.34V382H845.97ZM960.999 382.84C951.759 382.84 944.572 380.367 939.439 375.42C934.399 370.38 931.879 363.38 931.879 354.42V323.76H918.999V305.56H919.699C923.619 305.56 926.605 304.58 928.659 302.62C930.805 300.66 931.879 297.72 931.879 293.8V288.2H952.879V305.56H970.799V323.76H952.879V353.02C952.879 355.633 953.345 357.827 954.279 359.6C955.212 361.28 956.659 362.54 958.619 363.38C960.579 364.22 963.005 364.64 965.899 364.64C966.552 364.64 967.299 364.593 968.139 364.5C968.979 364.407 969.865 364.313 970.799 364.22V382C969.399 382.187 967.812 382.373 966.039 382.56C964.265 382.747 962.585 382.84 960.999 382.84ZM1007.46 383.68C999.064 383.68 991.738 381.72 985.484 377.8C979.324 373.787 975.124 368.42 972.884 361.7L988.284 354.42C990.244 358.527 992.904 361.747 996.264 364.08C999.624 366.413 1003.36 367.58 1007.46 367.58C1010.45 367.58 1012.74 366.973 1014.32 365.76C1015.91 364.547 1016.7 362.867 1016.7 360.72C1016.7 359.6 1016.42 358.667 1015.86 357.92C1015.3 357.08 1014.46 356.333 1013.34 355.68C1012.22 355.027 1010.82 354.467 1009.14 354L996.124 350.36C989.871 348.587 985.064 345.74 981.704 341.82C978.344 337.807 976.664 333.093 976.664 327.68C976.664 322.92 977.878 318.767 980.304 315.22C982.731 311.673 986.138 308.92 990.524 306.96C994.911 304.907 999.951 303.88 1005.64 303.88C1013.11 303.88 1019.64 305.653 1025.24 309.2C1030.94 312.653 1034.95 317.553 1037.28 323.9L1021.74 331.18C1020.62 328.007 1018.57 325.487 1015.58 323.62C1012.69 321.66 1009.38 320.68 1005.64 320.68C1002.94 320.68 1000.79 321.24 999.204 322.36C997.711 323.48 996.964 325.02 996.964 326.98C996.964 328.007 997.244 328.94 997.804 329.78C998.364 330.62 999.251 331.367 1000.46 332.02C1001.77 332.673 1003.36 333.28 1005.22 333.84L1017.4 337.48C1023.75 339.347 1028.6 342.193 1031.96 346.02C1035.32 349.753 1037 354.373 1037 359.88C1037 364.64 1035.74 368.793 1033.22 372.34C1030.8 375.887 1027.39 378.687 1023 380.74C1018.62 382.7 1013.44 383.68 1007.46 383.68Z" fill="white"/>
<path d="M407.385 382V277.7H447.425C454.612 277.7 460.958 278.96 466.465 281.48C472.065 284 476.452 287.733 479.625 292.68C482.798 297.627 484.385 303.74 484.385 311.02C484.385 318.113 482.752 324.133 479.485 329.08C476.312 334.027 471.925 337.807 466.325 340.42C460.818 342.94 454.518 344.2 447.425 344.2H429.085V382H407.385ZM429.085 325.3H447.565C450.645 325.3 453.305 324.693 455.545 323.48C457.785 322.267 459.512 320.587 460.725 318.44C462.032 316.293 462.685 313.82 462.685 311.02C462.685 308.127 462.032 305.607 460.725 303.46C459.512 301.313 457.785 299.633 455.545 298.42C453.305 297.207 450.645 296.6 447.565 296.6H429.085V325.3ZM510.585 383.68C505.078 383.68 500.318 382.793 496.305 381.02C492.291 379.247 489.211 376.727 487.065 373.46C484.918 370.1 483.845 366.133 483.845 361.56C483.845 357.267 484.825 353.487 486.785 350.22C488.745 346.86 491.731 344.06 495.745 341.82C499.851 339.58 504.938 337.993 511.005 337.06L534.385 333.28V348.68L514.785 352.18C511.798 352.74 509.511 353.72 507.925 355.12C506.338 356.427 505.545 358.34 505.545 360.86C505.545 363.193 506.431 365.013 508.205 366.32C509.978 367.627 512.171 368.28 514.785 368.28C518.238 368.28 521.271 367.533 523.885 366.04C526.498 364.547 528.505 362.54 529.905 360.02C531.398 357.407 532.145 354.56 532.145 351.48V331.6C532.145 328.707 530.978 326.28 528.645 324.32C526.405 322.36 523.325 321.38 519.405 321.38C515.671 321.38 512.358 322.407 509.465 324.46C506.665 326.513 504.611 329.22 503.305 332.58L486.505 324.6C487.998 320.307 490.378 316.62 493.645 313.54C496.911 310.46 500.831 308.08 505.405 306.4C509.978 304.72 514.971 303.88 520.385 303.88C526.825 303.88 532.518 305.047 537.465 307.38C542.411 309.713 546.238 312.98 548.945 317.18C551.745 321.287 553.145 326.093 553.145 331.6V382H533.545V369.68L538.305 368.84C536.065 372.2 533.591 375 530.885 377.24C528.178 379.387 525.145 380.973 521.785 382C518.425 383.12 514.691 383.68 510.585 383.68ZM574.846 412.8C572.606 412.8 570.412 412.613 568.266 412.24C566.212 411.867 564.392 411.26 562.806 410.42V393.2C564.112 393.573 565.652 393.9 567.426 394.18C569.199 394.46 570.832 394.6 572.326 394.6C576.432 394.6 579.372 393.62 581.146 391.66C582.919 389.793 584.366 387.647 585.486 385.22L590.666 373.32L590.386 390.82L556.786 305.56H579.326L601.586 366.18H593.186L615.446 305.56H637.986L605.226 389.14C603.172 394.367 600.652 398.753 597.666 402.3C594.679 405.847 591.272 408.46 587.446 410.14C583.712 411.913 579.512 412.8 574.846 412.8ZM641.564 382V305.56H661.164V324.18L659.064 321.1C660.184 315.22 662.891 310.88 667.184 308.08C671.478 305.28 676.611 303.88 682.584 303.88C688.931 303.88 694.484 305.513 699.244 308.78C704.098 311.953 707.131 316.247 708.344 321.66L702.324 322.22C704.844 315.967 708.438 311.347 713.104 308.36C717.771 305.373 723.231 303.88 729.484 303.88C734.991 303.88 739.844 305.093 744.044 307.52C748.338 309.947 751.698 313.353 754.124 317.74C756.551 322.033 757.764 327.073 757.764 332.86V382H736.764V337.34C736.764 334.353 736.204 331.787 735.084 329.64C734.058 327.493 732.564 325.813 730.604 324.6C728.644 323.387 726.264 322.78 723.464 322.78C720.758 322.78 718.378 323.387 716.324 324.6C714.364 325.813 712.824 327.493 711.704 329.64C710.678 331.787 710.164 334.353 710.164 337.34V382H689.164V337.34C689.164 334.353 688.604 331.787 687.484 329.64C686.458 327.493 684.964 325.813 683.004 324.6C681.044 323.387 678.664 322.78 675.864 322.78C673.158 322.78 670.778 323.387 668.724 324.6C666.764 325.813 665.224 327.493 664.104 329.64C663.078 331.787 662.564 334.353 662.564 337.34V382H641.564ZM802.804 383.68C794.684 383.68 787.637 381.907 781.664 378.36C775.691 374.72 771.071 369.867 767.804 363.8C764.537 357.733 762.904 351.013 762.904 343.64C762.904 335.987 764.584 329.173 767.944 323.2C771.397 317.227 776.017 312.513 781.804 309.06C787.591 305.607 794.124 303.88 801.404 303.88C807.471 303.88 812.837 304.86 817.504 306.82C822.171 308.687 826.091 311.347 829.264 314.8C832.531 318.253 835.004 322.267 836.684 326.84C838.364 331.32 839.204 336.22 839.204 341.54C839.204 343.033 839.111 344.527 838.924 346.02C838.831 347.42 838.597 348.633 838.224 349.66H780.964V334.26H826.324L816.384 341.54C817.317 337.527 817.271 333.98 816.244 330.9C815.217 327.727 813.397 325.253 810.784 323.48C808.264 321.613 805.137 320.68 801.404 320.68C797.764 320.68 794.637 321.567 792.024 323.34C789.411 325.113 787.451 327.727 786.144 331.18C784.837 334.633 784.324 338.833 784.604 343.78C784.231 348.073 784.744 351.853 786.144 355.12C787.544 358.387 789.691 360.953 792.584 362.82C795.477 364.593 798.977 365.48 803.084 365.48C806.817 365.48 809.991 364.733 812.604 363.24C815.311 361.747 817.411 359.693 818.904 357.08L835.704 365.06C834.211 368.793 831.831 372.06 828.564 374.86C825.391 377.66 821.611 379.853 817.224 381.44C812.837 382.933 808.031 383.68 802.804 383.68ZM845.97 382V305.56H865.57V320.68L864.45 317.32C866.223 312.747 869.07 309.387 872.99 307.24C877.003 305 881.67 303.88 886.99 303.88C892.777 303.88 897.817 305.093 902.11 307.52C906.497 309.947 909.903 313.353 912.33 317.74C914.757 322.033 915.97 327.073 915.97 332.86V382H894.97V337.34C894.97 334.353 894.363 331.787 893.15 329.64C892.03 327.493 890.397 325.813 888.25 324.6C886.197 323.387 883.77 322.78 880.97 322.78C878.263 322.78 875.837 323.387 873.69 324.6C871.543 325.813 869.863 327.493 868.65 329.64C867.53 331.787 866.97 334.353 866.97 337.34V382H845.97ZM960.999 382.84C951.759 382.84 944.572 380.367 939.439 375.42C934.399 370.38 931.879 363.38 931.879 354.42V323.76H918.999V305.56H919.699C923.619 305.56 926.605 304.58 928.659 302.62C930.805 300.66 931.879 297.72 931.879 293.8V288.2H952.879V305.56H970.799V323.76H952.879V353.02C952.879 355.633 953.345 357.827 954.279 359.6C955.212 361.28 956.659 362.54 958.619 363.38C960.579 364.22 963.005 364.64 965.899 364.64C966.552 364.64 967.299 364.593 968.139 364.5C968.979 364.407 969.865 364.313 970.799 364.22V382C969.399 382.187 967.812 382.373 966.039 382.56C964.265 382.747 962.585 382.84 960.999 382.84ZM1007.46 383.68C999.064 383.68 991.738 381.72 985.484 377.8C979.324 373.787 975.124 368.42 972.884 361.7L988.284 354.42C990.244 358.527 992.904 361.747 996.264 364.08C999.624 366.413 1003.36 367.58 1007.46 367.58C1010.45 367.58 1012.74 366.973 1014.32 365.76C1015.91 364.547 1016.7 362.867 1016.7 360.72C1016.7 359.6 1016.42 358.667 1015.86 357.92C1015.3 357.08 1014.46 356.333 1013.34 355.68C1012.22 355.027 1010.82 354.467 1009.14 354L996.124 350.36C989.871 348.587 985.064 345.74 981.704 341.82C978.344 337.807 976.664 333.093 976.664 327.68C976.664 322.92 977.878 318.767 980.304 315.22C982.731 311.673 986.138 308.92 990.524 306.96C994.911 304.907 999.951 303.88 1005.64 303.88C1013.11 303.88 1019.64 305.653 1025.24 309.2C1030.94 312.653 1034.95 317.553 1037.28 323.9L1021.74 331.18C1020.62 328.007 1018.57 325.487 1015.58 323.62C1012.69 321.66 1009.38 320.68 1005.64 320.68C1002.94 320.68 1000.79 321.24 999.204 322.36C997.711 323.48 996.964 325.02 996.964 326.98C996.964 328.007 997.244 328.94 997.804 329.78C998.364 330.62 999.251 331.367 1000.46 332.02C1001.77 332.673 1003.36 333.28 1005.22 333.84L1017.4 337.48C1023.75 339.347 1028.6 342.193 1031.96 346.02C1035.32 349.753 1037 354.373 1037 359.88C1037 364.64 1035.74 368.793 1033.22 372.34C1030.8 375.887 1027.39 378.687 1023 380.74C1018.62 382.7 1013.44 383.68 1007.46 383.68Z" fill="url(#paint2_linear_80_1208)"/>
<path d="M505.883 570V495.5H555.983V509H521.383V525.9H553.983V539.4H521.383V556.5H555.983V570H505.883ZM555.37 570L574.47 542.6L555.27 515.4H572.67L587.07 536.6H579.47L593.87 515.4H611.27L592.07 542.6L611.07 570H593.77L579.67 548.8H586.87L572.77 570H555.37ZM613.873 590V515.4H627.873V525.8L626.573 522.8C628.373 520.067 630.806 517.967 633.873 516.5C637.006 514.967 640.573 514.2 644.573 514.2C649.773 514.2 654.473 515.467 658.673 518C662.873 520.533 666.206 523.967 668.673 528.3C671.14 532.567 672.373 537.367 672.373 542.7C672.373 547.967 671.14 552.767 668.673 557.1C666.273 561.433 662.973 564.867 658.773 567.4C654.573 569.933 649.806 571.2 644.473 571.2C640.74 571.2 637.273 570.533 634.073 569.2C630.94 567.8 628.406 565.767 626.473 563.1L628.873 560V590H613.873ZM642.673 557.7C645.473 557.7 647.94 557.067 650.073 555.8C652.206 554.533 653.873 552.767 655.073 550.5C656.273 548.233 656.873 545.633 656.873 542.7C656.873 539.767 656.273 537.2 655.073 535C653.873 532.733 652.206 530.967 650.073 529.7C647.94 528.367 645.473 527.7 642.673 527.7C640.006 527.7 637.606 528.333 635.473 529.6C633.406 530.867 631.773 532.633 630.573 534.9C629.44 537.167 628.873 539.767 628.873 542.7C628.873 545.633 629.44 548.233 630.573 550.5C631.773 552.767 633.406 554.533 635.473 555.8C637.606 557.067 640.006 557.7 642.673 557.7ZM703.458 571.2C697.658 571.2 692.625 569.933 688.358 567.4C684.092 564.8 680.792 561.333 678.458 557C676.125 552.667 674.958 547.867 674.958 542.6C674.958 537.133 676.158 532.267 678.558 528C681.025 523.733 684.325 520.367 688.458 517.9C692.592 515.433 697.258 514.2 702.458 514.2C706.792 514.2 710.625 514.9 713.958 516.3C717.292 517.633 720.092 519.533 722.358 522C724.692 524.467 726.458 527.333 727.658 530.6C728.858 533.8 729.458 537.3 729.458 541.1C729.458 542.167 729.392 543.233 729.258 544.3C729.192 545.3 729.025 546.167 728.758 546.9H687.858V535.9H720.258L713.158 541.1C713.825 538.233 713.792 535.7 713.058 533.5C712.325 531.233 711.025 529.467 709.158 528.2C707.358 526.867 705.125 526.2 702.458 526.2C699.858 526.2 697.625 526.833 695.758 528.1C693.892 529.367 692.492 531.233 691.558 533.7C690.625 536.167 690.258 539.167 690.458 542.7C690.192 545.767 690.558 548.467 691.558 550.8C692.558 553.133 694.092 554.967 696.158 556.3C698.225 557.567 700.725 558.2 703.658 558.2C706.325 558.2 708.592 557.667 710.458 556.6C712.392 555.533 713.892 554.067 714.958 552.2L726.958 557.9C725.892 560.567 724.192 562.9 721.858 564.9C719.592 566.9 716.892 568.467 713.758 569.6C710.625 570.667 707.192 571.2 703.458 571.2ZM734.291 570V515.4H748.291V526.2L747.491 523.8C748.758 520.533 750.791 518.133 753.591 516.6C756.458 515 759.791 514.2 763.591 514.2C767.724 514.2 771.324 515.067 774.391 516.8C777.524 518.533 779.958 520.967 781.691 524.1C783.424 527.167 784.291 530.767 784.291 534.9V570H769.291V538.1C769.291 535.967 768.858 534.133 767.991 532.6C767.191 531.067 766.024 529.867 764.491 529C763.024 528.133 761.291 527.7 759.291 527.7C757.358 527.7 755.624 528.133 754.091 529C752.558 529.867 751.358 531.067 750.491 532.6C749.691 534.133 749.291 535.967 749.291 538.1V570H734.291ZM811.554 571.2C805.554 571.2 800.321 569.8 795.854 567C791.454 564.133 788.454 560.3 786.854 555.5L797.854 550.3C799.254 553.233 801.154 555.533 803.554 557.2C805.954 558.867 808.621 559.7 811.554 559.7C813.688 559.7 815.321 559.267 816.454 558.4C817.588 557.533 818.154 556.333 818.154 554.8C818.154 554 817.954 553.333 817.554 552.8C817.154 552.2 816.554 551.667 815.754 551.2C814.954 550.733 813.954 550.333 812.754 550L803.454 547.4C798.988 546.133 795.554 544.1 793.154 541.3C790.754 538.433 789.554 535.067 789.554 531.2C789.554 527.8 790.421 524.833 792.154 522.3C793.888 519.767 796.321 517.8 799.454 516.4C802.588 514.933 806.188 514.2 810.254 514.2C815.588 514.2 820.254 515.467 824.254 518C828.321 520.467 831.188 523.967 832.854 528.5L821.754 533.7C820.954 531.433 819.488 529.633 817.354 528.3C815.288 526.9 812.921 526.2 810.254 526.2C808.321 526.2 806.788 526.6 805.654 527.4C804.588 528.2 804.054 529.3 804.054 530.7C804.054 531.433 804.254 532.1 804.654 532.7C805.054 533.3 805.688 533.833 806.554 534.3C807.488 534.767 808.621 535.2 809.954 535.6L818.654 538.2C823.188 539.533 826.654 541.567 829.054 544.3C831.454 546.967 832.654 550.267 832.654 554.2C832.654 557.6 831.754 560.567 829.954 563.1C828.221 565.633 825.788 567.633 822.654 569.1C819.521 570.5 815.821 571.2 811.554 571.2ZM863.919 571.2C858.119 571.2 853.086 569.933 848.819 567.4C844.552 564.8 841.252 561.333 838.919 557C836.586 552.667 835.419 547.867 835.419 542.6C835.419 537.133 836.619 532.267 839.019 528C841.486 523.733 844.786 520.367 848.919 517.9C853.052 515.433 857.719 514.2 862.919 514.2C867.252 514.2 871.086 514.9 874.419 516.3C877.752 517.633 880.552 519.533 882.819 522C885.152 524.467 886.919 527.333 888.119 530.6C889.319 533.8 889.919 537.3 889.919 541.1C889.919 542.167 889.852 543.233 889.719 544.3C889.652 545.3 889.486 546.167 889.219 546.9H848.319V535.9H880.719L873.619 541.1C874.286 538.233 874.252 535.7 873.519 533.5C872.786 531.233 871.486 529.467 869.619 528.2C867.819 526.867 865.586 526.2 862.919 526.2C860.319 526.2 858.086 526.833 856.219 528.1C854.352 529.367 852.952 531.233 852.019 533.7C851.086 536.167 850.719 539.167 850.919 542.7C850.652 545.767 851.019 548.467 852.019 550.8C853.019 553.133 854.552 554.967 856.619 556.3C858.686 557.567 861.186 558.2 864.119 558.2C866.786 558.2 869.052 557.667 870.919 556.6C872.852 555.533 874.352 554.067 875.419 552.2L887.419 557.9C886.352 560.567 884.652 562.9 882.319 564.9C880.052 566.9 877.352 568.467 874.219 569.6C871.086 570.667 867.652 571.2 863.919 571.2ZM916.152 571.2C910.152 571.2 904.919 569.8 900.452 567C896.052 564.133 893.052 560.3 891.452 555.5L902.452 550.3C903.852 553.233 905.752 555.533 908.152 557.2C910.552 558.867 913.219 559.7 916.152 559.7C918.285 559.7 919.919 559.267 921.052 558.4C922.185 557.533 922.752 556.333 922.752 554.8C922.752 554 922.552 553.333 922.152 552.8C921.752 552.2 921.152 551.667 920.352 551.2C919.552 550.733 918.552 550.333 917.352 550L908.052 547.4C903.585 546.133 900.152 544.1 897.752 541.3C895.352 538.433 894.152 535.067 894.152 531.2C894.152 527.8 895.019 524.833 896.752 522.3C898.485 519.767 900.919 517.8 904.052 516.4C907.185 514.933 910.785 514.2 914.852 514.2C920.185 514.2 924.852 515.467 928.852 518C932.919 520.467 935.785 523.967 937.452 528.5L926.352 533.7C925.552 531.433 924.085 529.633 921.952 528.3C919.885 526.9 917.519 526.2 914.852 526.2C912.919 526.2 911.385 526.6 910.252 527.4C909.185 528.2 908.652 529.3 908.652 530.7C908.652 531.433 908.852 532.1 909.252 532.7C909.652 533.3 910.285 533.833 911.152 534.3C912.085 534.767 913.219 535.2 914.552 535.6L923.252 538.2C927.785 539.533 931.252 541.567 933.652 544.3C936.052 546.967 937.252 550.267 937.252 554.2C937.252 557.6 936.352 560.567 934.552 563.1C932.819 565.633 930.385 567.633 927.252 569.1C924.119 570.5 920.419 571.2 916.152 571.2Z" fill="url(#paint3_linear_80_1208)" fill-opacity="0.35"/>
<circle cx="312.446" cy="666.998" r="250" transform="rotate(-100.111 312.446 666.998)" fill="url(#paint4_radial_80_1208)"/>
</g>
<defs>
<radialGradient id="paint0_radial_80_1208" cx="0" cy="0" r="1" gradientUnits="userSpaceOnUse" gradientTransform="translate(1274 -97) rotate(95.3363) scale(365.584)">
<stop stop-color="#2BEE91"/>
<stop offset="1" stop-color="#01C467"/>
</radialGradient>
<linearGradient id="paint1_linear_80_1208" x1="719.527" y1="87.2645" x2="755.304" y2="158.788" gradientUnits="userSpaceOnUse">
<stop stop-color="#01DA72"/>
<stop offset="0.483401" stop-color="#89F5C2"/>
<stop offset="1" stop-color="#01DA73"/>
</linearGradient>
<linearGradient id="paint2_linear_80_1208" x1="719.432" y1="277.877" x2="773.711" y2="371.216" gradientUnits="userSpaceOnUse">
<stop stop-color="#01DA72"/>
<stop offset="0.483401" stop-color="#89F5C2"/>
<stop offset="1" stop-color="#01DA73"/>
</linearGradient>
<linearGradient id="paint3_linear_80_1208" x1="719.61" y1="495.265" x2="759.261" y2="560.632" gradientUnits="userSpaceOnUse">
<stop stop-color="#01DA72"/>
<stop offset="0.483401" stop-color="#89F5C2"/>
<stop offset="1" stop-color="#01DA73"/>
</linearGradient>
<radialGradient id="paint4_radial_80_1208" cx="0" cy="0" r="1" gradientUnits="userSpaceOnUse" gradientTransform="translate(354.946 461.998) rotate(95.3363) scale(456.981)">
<stop stop-color="#2BEE91"/>
<stop offset="1" stop-color="#01C467"/>
</radialGradient>
<clipPath id="clip0_80_1208">
<rect width="1440" height="650" fill="white"/>
</clipPath>
</defs>
</svg>
