<svg width="370" height="371" viewBox="0 0 370 371" fill="none" xmlns="http://www.w3.org/2000/svg">
<rect x="-56" width="426" height="522" rx="16" fill="white"/>
<path d="M-34.174 54V37.61H-32.018V52.02H-24.824V54H-34.174ZM-17.8466 54.264C-18.9906 54.264 -20.0099 53.9927 -20.9046 53.45C-21.7992 52.9073 -22.5032 52.1667 -23.0166 51.228C-23.5299 50.2747 -23.7866 49.2113 -23.7866 48.038C-23.7866 46.85 -23.5372 45.794 -23.0386 44.87C-22.5252 43.946 -21.8359 43.22 -20.9706 42.692C-20.0906 42.1493 -19.1079 41.878 -18.0226 41.878C-17.1426 41.878 -16.3652 42.0393 -15.6906 42.362C-15.0012 42.67 -14.4219 43.0953 -13.9526 43.638C-13.4686 44.166 -13.1019 44.7747 -12.8526 45.464C-12.5886 46.1387 -12.4566 46.8427 -12.4566 47.576C-12.4566 47.7373 -12.4712 47.9207 -12.5006 48.126C-12.5152 48.3167 -12.5372 48.5 -12.5666 48.676H-22.2906V46.916H-13.7546L-14.7226 47.708C-14.5906 46.9453 -14.6639 46.2633 -14.9426 45.662C-15.2212 45.0607 -15.6319 44.584 -16.1746 44.232C-16.7172 43.88 -17.3332 43.704 -18.0226 43.704C-18.7119 43.704 -19.3426 43.88 -19.9146 44.232C-20.4866 44.584 -20.9339 45.09 -21.2566 45.75C-21.5646 46.3953 -21.6892 47.1653 -21.6306 48.06C-21.6892 48.9253 -21.5572 49.688 -21.2346 50.348C-20.8972 50.9933 -20.4279 51.4993 -19.8266 51.866C-19.2106 52.218 -18.5432 52.394 -17.8246 52.394C-17.0326 52.394 -16.3652 52.2107 -15.8226 51.844C-15.2799 51.4773 -14.8399 51.008 -14.5026 50.436L-12.7866 51.316C-13.0212 51.8587 -13.3879 52.3573 -13.8866 52.812C-14.3706 53.252 -14.9499 53.604 -15.6246 53.868C-16.2846 54.132 -17.0252 54.264 -17.8466 54.264ZM-5.63089 54.132C-6.78956 54.132 -7.68422 53.802 -8.31489 53.142C-8.93089 52.482 -9.23889 51.5507 -9.23889 50.348V44.1H-11.3949V42.142H-10.9549C-10.4269 42.142 -10.0089 41.9807 -9.70089 41.658C-9.39289 41.3353 -9.23889 40.91 -9.23889 40.382V39.414H-7.19289V42.142H-4.53089V44.1H-7.19289V50.282C-7.19289 50.678 -7.13422 51.0227 -7.01689 51.316C-6.88489 51.6093 -6.67222 51.844 -6.37889 52.02C-6.08556 52.1813 -5.69689 52.262 -5.21289 52.262C-5.11022 52.262 -4.98556 52.2547 -4.83889 52.24C-4.67756 52.2253 -4.53089 52.2107 -4.39889 52.196V54C-4.58956 54.044 -4.80222 54.0733 -5.03689 54.088C-5.27156 54.1173 -5.46956 54.132 -5.63089 54.132ZM-2.03423 43.088V42.098C-1.57957 41.9807 -1.24223 41.768 -1.02223 41.46C-0.787567 41.1373 -0.648234 40.734 -0.604234 40.25H-1.59423V37.61H0.539766V39.48C0.539766 40.4333 0.319766 41.2253 -0.120234 41.856C-0.545567 42.472 -1.18357 42.8827 -2.03423 43.088ZM7.77399 54.264C6.58599 54.264 5.55199 53.9707 4.67199 53.384C3.79199 52.7973 3.16865 52.0053 2.80199 51.008L4.42999 50.216C4.76732 50.92 5.22932 51.4773 5.81599 51.888C6.40265 52.2987 7.05532 52.504 7.77399 52.504C8.41932 52.504 8.95465 52.35 9.37999 52.042C9.80532 51.734 10.018 51.3307 10.018 50.832C10.018 50.48 9.91532 50.2013 9.70999 49.996C9.51932 49.776 9.28465 49.6073 9.00599 49.49C8.72732 49.358 8.47065 49.2627 8.23599 49.204L6.45399 48.698C5.38332 48.39 4.59865 47.95 4.09999 47.378C3.61599 46.806 3.37399 46.1387 3.37399 45.376C3.37399 44.672 3.54999 44.0633 3.90199 43.55C4.26865 43.022 4.75999 42.6113 5.37599 42.318C6.00665 42.0247 6.71065 41.878 7.48799 41.878C8.52932 41.878 9.46065 42.142 10.282 42.67C11.118 43.198 11.712 43.9387 12.064 44.892L10.392 45.662C10.128 45.046 9.73199 44.562 9.20399 44.21C8.67599 43.8433 8.08199 43.66 7.42199 43.66C6.82065 43.66 6.34399 43.814 5.99199 44.122C5.63999 44.4153 5.46399 44.7893 5.46399 45.244C5.46399 45.5813 5.55199 45.86 5.72799 46.08C5.90399 46.2853 6.11665 46.4467 6.36599 46.564C6.61532 46.6667 6.85732 46.7547 7.09199 46.828L9.02799 47.4C9.99599 47.6787 10.744 48.1113 11.272 48.698C11.8147 49.2847 12.086 49.9887 12.086 50.81C12.086 51.47 11.9027 52.064 11.536 52.592C11.1693 53.12 10.6633 53.5307 10.018 53.824C9.37265 54.1173 8.62465 54.264 7.77399 54.264ZM17.247 54V42.142H19.293V54H17.247ZM17.247 40.25V37.61H19.293V40.25H17.247ZM21.8078 54V42.142H23.8098V44.562L23.5238 44.188C23.8171 43.44 24.2864 42.868 24.9318 42.472C25.5771 42.076 26.3031 41.878 27.1098 41.878C28.0338 41.878 28.8624 42.1347 29.5958 42.648C30.3438 43.1613 30.8571 43.836 31.1358 44.672L30.5638 44.694C30.8718 43.77 31.3924 43.0733 32.1258 42.604C32.8591 42.12 33.6731 41.878 34.5678 41.878C35.3891 41.878 36.1298 42.0687 36.7898 42.45C37.4644 42.8313 37.9998 43.3593 38.3958 44.034C38.7918 44.7087 38.9898 45.4713 38.9898 46.322V54H36.9218V46.982C36.9218 46.322 36.8044 45.7647 36.5698 45.31C36.3351 44.8553 36.0124 44.5033 35.6018 44.254C35.2058 43.99 34.7364 43.858 34.1938 43.858C33.6658 43.858 33.1891 43.99 32.7638 44.254C32.3531 44.5033 32.0231 44.8627 31.7738 45.332C31.5391 45.7867 31.4218 46.3367 31.4218 46.982V54H29.3538V46.982C29.3538 46.322 29.2364 45.7647 29.0018 45.31C28.7671 44.8553 28.4444 44.5033 28.0338 44.254C27.6378 43.99 27.1684 43.858 26.6258 43.858C26.0978 43.858 25.6211 43.99 25.1958 44.254C24.7851 44.5033 24.4551 44.8627 24.2058 45.332C23.9711 45.7867 23.8538 46.3367 23.8538 46.982V54H21.8078ZM41.2356 58.4V42.142H43.2376V44.694L42.9736 44.188C43.4136 43.484 44.015 42.9267 44.7776 42.516C45.5403 42.0907 46.413 41.878 47.3956 41.878C48.5103 41.878 49.5076 42.1493 50.3876 42.692C51.2823 43.2347 51.9863 43.9753 52.4996 44.914C53.013 45.838 53.2696 46.894 53.2696 48.082C53.2696 49.2407 53.013 50.2893 52.4996 51.228C51.9863 52.1667 51.2823 52.9073 50.3876 53.45C49.5076 53.9927 48.503 54.264 47.3736 54.264C46.4203 54.264 45.5476 54.0513 44.7556 53.626C43.9783 53.2007 43.377 52.5993 42.9516 51.822L43.2816 51.47V58.4H41.2356ZM47.2196 52.284C47.9676 52.284 48.635 52.1007 49.2216 51.734C49.8083 51.3673 50.263 50.8687 50.5856 50.238C50.923 49.5927 51.0916 48.874 51.0916 48.082C51.0916 47.2607 50.923 46.542 50.5856 45.926C50.263 45.2953 49.8083 44.7967 49.2216 44.43C48.635 44.0487 47.9676 43.858 47.2196 43.858C46.4716 43.858 45.797 44.0413 45.1956 44.408C44.609 44.7747 44.1396 45.2807 43.7876 45.926C43.4503 46.5567 43.2816 47.2753 43.2816 48.082C43.2816 48.874 43.4503 49.5927 43.7876 50.238C44.1396 50.8687 44.609 51.3673 45.1956 51.734C45.797 52.1007 46.4716 52.284 47.2196 52.284ZM60.9244 54.264C59.7804 54.264 58.7464 54 57.8224 53.472C56.8984 52.9293 56.1651 52.1887 55.6224 51.25C55.0798 50.3113 54.8084 49.248 54.8084 48.06C54.8084 46.872 55.0724 45.816 55.6004 44.892C56.1431 43.968 56.8764 43.2347 57.8004 42.692C58.7244 42.1493 59.7658 41.878 60.9244 41.878C62.0684 41.878 63.1024 42.1493 64.0264 42.692C64.9504 43.22 65.6764 43.946 66.2044 44.87C66.7471 45.794 67.0184 46.8573 67.0184 48.06C67.0184 49.2627 66.7398 50.3333 66.1824 51.272C65.6251 52.196 64.8844 52.9293 63.9604 53.472C63.0511 54 62.0391 54.264 60.9244 54.264ZM60.9244 52.284C61.6578 52.284 62.3178 52.1007 62.9044 51.734C63.5058 51.3673 63.9751 50.8613 64.3124 50.216C64.6644 49.5707 64.8404 48.852 64.8404 48.06C64.8404 47.2533 64.6644 46.542 64.3124 45.926C63.9751 45.2953 63.5058 44.7967 62.9044 44.43C62.3178 44.0487 61.6578 43.858 60.9244 43.858C60.1764 43.858 59.5018 44.0487 58.9004 44.43C58.3138 44.7967 57.8444 45.2953 57.4924 45.926C57.1404 46.542 56.9644 47.2533 56.9644 48.06C56.9644 48.852 57.1404 49.5707 57.4924 50.216C57.8444 50.8613 58.3138 51.3673 58.9004 51.734C59.5018 52.1007 60.1764 52.284 60.9244 52.284ZM69.027 54V42.142H71.029V44.32L70.809 44.012C71.0876 43.3373 71.513 42.8387 72.085 42.516C72.657 42.1787 73.3536 42.01 74.175 42.01H74.901V43.946H73.867C73.031 43.946 72.3563 44.21 71.843 44.738C71.3296 45.2513 71.073 45.9847 71.073 46.938V54H69.027ZM80.9838 54.132C79.8251 54.132 78.9305 53.802 78.2998 53.142C77.6838 52.482 77.3758 51.5507 77.3758 50.348V44.1H75.2198V42.142H75.6598C76.1878 42.142 76.6058 41.9807 76.9138 41.658C77.2218 41.3353 77.3758 40.91 77.3758 40.382V39.414H79.4218V42.142H82.0838V44.1H79.4218V50.282C79.4218 50.678 79.4805 51.0227 79.5978 51.316C79.7298 51.6093 79.9425 51.844 80.2358 52.02C80.5291 52.1813 80.9178 52.262 81.4018 52.262C81.5045 52.262 81.6291 52.2547 81.7758 52.24C81.9371 52.2253 82.0838 52.2107 82.2158 52.196V54C82.0251 54.044 81.8125 54.0733 81.5778 54.088C81.3431 54.1173 81.1451 54.132 80.9838 54.132ZM88.0092 58.84C87.7452 58.84 87.4812 58.818 87.2172 58.774C86.9532 58.73 86.7039 58.6567 86.4692 58.554V56.728C86.6305 56.7573 86.8285 56.7867 87.0632 56.816C87.3125 56.86 87.5545 56.882 87.7892 56.882C88.4785 56.882 88.9992 56.728 89.3512 56.42C89.7179 56.1267 90.0625 55.6133 90.3852 54.88L91.1332 53.098L91.0892 54.88L86.0292 42.142H88.2512L92.1892 52.262H91.5292L95.4452 42.142H97.7112L92.3652 55.408C92.1159 56.0387 91.7932 56.6107 91.3972 57.124C91.0159 57.652 90.5465 58.07 89.9892 58.378C89.4319 58.686 88.7719 58.84 88.0092 58.84ZM104.288 54.264C103.144 54.264 102.11 54 101.186 53.472C100.262 52.9293 99.5292 52.1887 98.9865 51.25C98.4438 50.3113 98.1725 49.248 98.1725 48.06C98.1725 46.872 98.4365 45.816 98.9645 44.892C99.5072 43.968 100.24 43.2347 101.164 42.692C102.088 42.1493 103.13 41.878 104.288 41.878C105.432 41.878 106.466 42.1493 107.39 42.692C108.314 43.22 109.04 43.946 109.568 44.87C110.111 45.794 110.382 46.8573 110.382 48.06C110.382 49.2627 110.104 50.3333 109.546 51.272C108.989 52.196 108.248 52.9293 107.324 53.472C106.415 54 105.403 54.264 104.288 54.264ZM104.288 52.284C105.022 52.284 105.682 52.1007 106.268 51.734C106.87 51.3673 107.339 50.8613 107.676 50.216C108.028 49.5707 108.204 48.852 108.204 48.06C108.204 47.2533 108.028 46.542 107.676 45.926C107.339 45.2953 106.87 44.7967 106.268 44.43C105.682 44.0487 105.022 43.858 104.288 43.858C103.54 43.858 102.866 44.0487 102.264 44.43C101.678 44.7967 101.208 45.2953 100.856 45.926C100.504 46.542 100.328 47.2533 100.328 48.06C100.328 48.852 100.504 49.5707 100.856 50.216C101.208 50.8613 101.678 51.3673 102.264 51.734C102.866 52.1007 103.54 52.284 104.288 52.284ZM116.593 54.264C115.742 54.264 114.972 54.066 114.283 53.67C113.608 53.274 113.08 52.724 112.699 52.02C112.332 51.3013 112.149 50.48 112.149 49.556V42.142H114.195V49.336C114.195 49.9227 114.312 50.436 114.547 50.876C114.796 51.316 115.134 51.6607 115.559 51.91C115.999 52.1593 116.498 52.284 117.055 52.284C117.612 52.284 118.104 52.1593 118.529 51.91C118.969 51.6607 119.306 51.3013 119.541 50.832C119.79 50.3627 119.915 49.8053 119.915 49.16V42.142H121.983V54H119.981V51.69L120.311 51.888C120.032 52.636 119.556 53.2227 118.881 53.648C118.221 54.0587 117.458 54.264 116.593 54.264ZM124.493 54V42.142H126.495V44.32L126.275 44.012C126.553 43.3373 126.979 42.8387 127.551 42.516C128.123 42.1787 128.819 42.01 129.641 42.01H130.367V43.946H129.333C128.497 43.946 127.822 44.21 127.309 44.738C126.795 45.2513 126.539 45.9847 126.539 46.938V54H124.493ZM134.909 54V37.61H137.065V54H134.909ZM139.808 54V42.142H141.81V44.452L141.48 44.254C141.773 43.506 142.242 42.9267 142.888 42.516C143.548 42.0907 144.318 41.878 145.198 41.878C146.048 41.878 146.804 42.0687 147.464 42.45C148.138 42.8313 148.666 43.3593 149.048 44.034C149.444 44.7087 149.642 45.4713 149.642 46.322V54H147.574V46.982C147.574 46.322 147.456 45.7647 147.222 45.31C146.987 44.8553 146.65 44.5033 146.21 44.254C145.784 43.99 145.293 43.858 144.736 43.858C144.178 43.858 143.68 43.99 143.24 44.254C142.814 44.5033 142.477 44.8627 142.228 45.332C141.978 45.7867 141.854 46.3367 141.854 46.982V54H139.808ZM154.995 54L150.353 42.142H152.641L156.359 52.174H155.567L159.307 42.142H161.595L156.931 54H154.995ZM168.182 54.264C167.038 54.264 166.004 54 165.08 53.472C164.156 52.9293 163.423 52.1887 162.88 51.25C162.338 50.3113 162.066 49.248 162.066 48.06C162.066 46.872 162.33 45.816 162.858 44.892C163.401 43.968 164.134 43.2347 165.058 42.692C165.982 42.1493 167.024 41.878 168.182 41.878C169.326 41.878 170.36 42.1493 171.284 42.692C172.208 43.22 172.934 43.946 173.462 44.87C174.005 45.794 174.276 46.8573 174.276 48.06C174.276 49.2627 173.998 50.3333 173.44 51.272C172.883 52.196 172.142 52.9293 171.218 53.472C170.309 54 169.297 54.264 168.182 54.264ZM168.182 52.284C168.916 52.284 169.576 52.1007 170.162 51.734C170.764 51.3673 171.233 50.8613 171.57 50.216C171.922 49.5707 172.098 48.852 172.098 48.06C172.098 47.2533 171.922 46.542 171.57 45.926C171.233 45.2953 170.764 44.7967 170.162 44.43C169.576 44.0487 168.916 43.858 168.182 43.858C167.434 43.858 166.76 44.0487 166.158 44.43C165.572 44.7967 165.102 45.2953 164.75 45.926C164.398 46.542 164.222 47.2533 164.222 48.06C164.222 48.852 164.398 49.5707 164.75 50.216C165.102 50.8613 165.572 51.3673 166.158 51.734C166.76 52.1007 167.434 52.284 168.182 52.284ZM176.285 54V42.142H178.331V54H176.285ZM176.285 40.25V37.61H178.331V40.25H176.285ZM186.345 54.264C185.187 54.264 184.153 53.9927 183.243 53.45C182.349 52.9073 181.645 52.1667 181.131 51.228C180.618 50.2893 180.361 49.2333 180.361 48.06C180.361 46.872 180.618 45.816 181.131 44.892C181.645 43.968 182.349 43.2347 183.243 42.692C184.153 42.1493 185.187 41.878 186.345 41.878C187.123 41.878 187.849 42.0173 188.523 42.296C189.198 42.5747 189.792 42.9487 190.305 43.418C190.819 43.8873 191.193 44.4373 191.427 45.068L189.601 45.948C189.323 45.332 188.897 44.8333 188.325 44.452C187.753 44.056 187.093 43.858 186.345 43.858C185.627 43.858 184.974 44.0413 184.387 44.408C183.815 44.7747 183.361 45.2733 183.023 45.904C182.686 46.5347 182.517 47.2607 182.517 48.082C182.517 48.874 182.686 49.5927 183.023 50.238C183.361 50.8687 183.815 51.3673 184.387 51.734C184.974 52.1007 185.627 52.284 186.345 52.284C187.093 52.284 187.753 52.0933 188.325 51.712C188.897 51.316 189.323 50.7953 189.601 50.15L191.427 51.074C191.193 51.69 190.819 52.24 190.305 52.724C189.792 53.1933 189.198 53.5673 188.523 53.846C187.849 54.1247 187.123 54.264 186.345 54.264ZM198.897 54.264C197.753 54.264 196.734 53.9927 195.839 53.45C194.945 52.9073 194.241 52.1667 193.727 51.228C193.214 50.2747 192.957 49.2113 192.957 48.038C192.957 46.85 193.207 45.794 193.705 44.87C194.219 43.946 194.908 43.22 195.773 42.692C196.653 42.1493 197.636 41.878 198.721 41.878C199.601 41.878 200.379 42.0393 201.053 42.362C201.743 42.67 202.322 43.0953 202.791 43.638C203.275 44.166 203.642 44.7747 203.891 45.464C204.155 46.1387 204.287 46.8427 204.287 47.576C204.287 47.7373 204.273 47.9207 204.243 48.126C204.229 48.3167 204.207 48.5 204.177 48.676H194.453V46.916H202.989L202.021 47.708C202.153 46.9453 202.08 46.2633 201.801 45.662C201.523 45.0607 201.112 44.584 200.569 44.232C200.027 43.88 199.411 43.704 198.721 43.704C198.032 43.704 197.401 43.88 196.829 44.232C196.257 44.584 195.81 45.09 195.487 45.75C195.179 46.3953 195.055 47.1653 195.113 48.06C195.055 48.9253 195.187 49.688 195.509 50.348C195.847 50.9933 196.316 51.4993 196.917 51.866C197.533 52.218 198.201 52.394 198.919 52.394C199.711 52.394 200.379 52.2107 200.921 51.844C201.464 51.4773 201.904 51.008 202.241 50.436L203.957 51.316C203.723 51.8587 203.356 52.3573 202.857 52.812C202.373 53.252 201.794 53.604 201.119 53.868C200.459 54.132 199.719 54.264 198.897 54.264ZM214.828 54.264C213.713 54.264 212.708 53.9927 211.814 53.45C210.934 52.9073 210.237 52.1667 209.724 51.228C209.21 50.2893 208.954 49.2407 208.954 48.082C208.954 46.894 209.21 45.838 209.724 44.914C210.237 43.9753 210.934 43.2347 211.814 42.692C212.708 42.1493 213.713 41.878 214.828 41.878C215.81 41.878 216.683 42.0907 217.446 42.516C218.208 42.9267 218.81 43.484 219.25 44.188L218.92 44.694V37.346H220.988V54H218.986V51.47L219.25 51.822C218.839 52.5993 218.238 53.2007 217.446 53.626C216.668 54.0513 215.796 54.264 214.828 54.264ZM215.004 52.284C215.752 52.284 216.419 52.1007 217.006 51.734C217.592 51.3673 218.054 50.8687 218.392 50.238C218.744 49.5927 218.92 48.874 218.92 48.082C218.92 47.2753 218.744 46.5567 218.392 45.926C218.054 45.2807 217.592 44.7747 217.006 44.408C216.419 44.0413 215.752 43.858 215.004 43.858C214.27 43.858 213.603 44.0487 213.002 44.43C212.415 44.7967 211.953 45.2953 211.616 45.926C211.278 46.542 211.11 47.2607 211.11 48.082C211.11 48.874 211.278 49.5927 211.616 50.238C211.953 50.8687 212.415 51.3673 213.002 51.734C213.588 52.1007 214.256 52.284 215.004 52.284ZM226.97 54.264C226.193 54.264 225.504 54.1247 224.902 53.846C224.316 53.5527 223.854 53.1567 223.516 52.658C223.179 52.1447 223.01 51.558 223.01 50.898C223.01 50.2673 223.142 49.7027 223.406 49.204C223.685 48.6907 224.11 48.258 224.682 47.906C225.269 47.554 226.002 47.3047 226.882 47.158L231.282 46.432V48.148L227.344 48.808C226.582 48.94 226.024 49.182 225.672 49.534C225.335 49.886 225.166 50.3187 225.166 50.832C225.166 51.316 225.357 51.7193 225.738 52.042C226.134 52.3647 226.626 52.526 227.212 52.526C227.96 52.526 228.606 52.372 229.148 52.064C229.706 51.7413 230.138 51.3087 230.446 50.766C230.769 50.2233 230.93 49.622 230.93 48.962V45.948C230.93 45.3027 230.688 44.782 230.204 44.386C229.735 43.9753 229.112 43.77 228.334 43.77C227.66 43.77 227.058 43.946 226.53 44.298C226.017 44.6353 225.636 45.09 225.386 45.662L223.604 44.738C223.824 44.1953 224.176 43.7113 224.66 43.286C225.144 42.846 225.709 42.5013 226.354 42.252C227 42.0027 227.674 41.878 228.378 41.878C229.288 41.878 230.087 42.054 230.776 42.406C231.466 42.7433 232.001 43.22 232.382 43.836C232.778 44.4373 232.976 45.1413 232.976 45.948V54H230.974V51.756L231.348 51.888C231.099 52.3573 230.762 52.768 230.336 53.12C229.911 53.472 229.412 53.7507 228.84 53.956C228.268 54.1613 227.645 54.264 226.97 54.264ZM240.092 54.132C238.933 54.132 238.039 53.802 237.408 53.142C236.792 52.482 236.484 51.5507 236.484 50.348V44.1H234.328V42.142H234.768C235.296 42.142 235.714 41.9807 236.022 41.658C236.33 41.3353 236.484 40.91 236.484 40.382V39.414H238.53V42.142H241.192V44.1H238.53V50.282C238.53 50.678 238.589 51.0227 238.706 51.316C238.838 51.6093 239.051 51.844 239.344 52.02C239.637 52.1813 240.026 52.262 240.51 52.262C240.613 52.262 240.737 52.2547 240.884 52.24C241.045 52.2253 241.192 52.2107 241.324 52.196V54C241.133 54.044 240.921 54.0733 240.686 54.088C240.451 54.1173 240.253 54.132 240.092 54.132ZM246.662 54.264C245.885 54.264 245.196 54.1247 244.594 53.846C244.008 53.5527 243.546 53.1567 243.208 52.658C242.871 52.1447 242.702 51.558 242.702 50.898C242.702 50.2673 242.834 49.7027 243.098 49.204C243.377 48.6907 243.802 48.258 244.374 47.906C244.961 47.554 245.694 47.3047 246.574 47.158L250.974 46.432V48.148L247.036 48.808C246.274 48.94 245.716 49.182 245.364 49.534C245.027 49.886 244.858 50.3187 244.858 50.832C244.858 51.316 245.049 51.7193 245.43 52.042C245.826 52.3647 246.318 52.526 246.904 52.526C247.652 52.526 248.298 52.372 248.84 52.064C249.398 51.7413 249.83 51.3087 250.138 50.766C250.461 50.2233 250.622 49.622 250.622 48.962V45.948C250.622 45.3027 250.38 44.782 249.896 44.386C249.427 43.9753 248.804 43.77 248.026 43.77C247.352 43.77 246.75 43.946 246.222 44.298C245.709 44.6353 245.328 45.09 245.078 45.662L243.296 44.738C243.516 44.1953 243.868 43.7113 244.352 43.286C244.836 42.846 245.401 42.5013 246.046 42.252C246.692 42.0027 247.366 41.878 248.07 41.878C248.98 41.878 249.779 42.054 250.468 42.406C251.158 42.7433 251.693 43.22 252.074 43.836C252.47 44.4373 252.668 45.1413 252.668 45.948V54H250.666V51.756L251.04 51.888C250.791 52.3573 250.454 52.768 250.028 53.12C249.603 53.472 249.104 53.7507 248.532 53.956C247.96 54.1613 247.337 54.264 246.662 54.264ZM-33.162 86V76.1H-35.428V74.142H-33.162V73.306C-33.162 72.4553 -32.9787 71.7367 -32.612 71.15C-32.2307 70.5633 -31.732 70.116 -31.116 69.808C-30.4853 69.5 -29.7887 69.346 -29.026 69.346C-28.8647 69.346 -28.6887 69.3607 -28.498 69.39C-28.2927 69.4047 -28.124 69.4267 -27.992 69.456V71.282C-28.1093 71.2527 -28.2487 71.238 -28.41 71.238C-28.5713 71.2233 -28.696 71.216 -28.784 71.216C-29.4587 71.216 -30.016 71.3773 -30.456 71.7C-30.8813 72.0227 -31.094 72.558 -31.094 73.306V74.142H-28.278V76.1H-31.094V86H-33.162ZM-26.4822 86V74.142H-24.4802V76.32L-24.7002 76.012C-24.4216 75.3373 -23.9962 74.8387 -23.4242 74.516C-22.8522 74.1787 -22.1556 74.01 -21.3342 74.01H-20.6082V75.946H-21.6422C-22.4782 75.946 -23.1529 76.21 -23.6662 76.738C-24.1796 77.2513 -24.4362 77.9847 -24.4362 78.938V86H-26.4822ZM-13.8188 86.264C-14.9628 86.264 -15.9968 86 -16.9208 85.472C-17.8448 84.9293 -18.5782 84.1887 -19.1208 83.25C-19.6635 82.3113 -19.9348 81.248 -19.9348 80.06C-19.9348 78.872 -19.6708 77.816 -19.1428 76.892C-18.6002 75.968 -17.8668 75.2347 -16.9428 74.692C-16.0188 74.1493 -14.9775 73.878 -13.8188 73.878C-12.6748 73.878 -11.6408 74.1493 -10.7168 74.692C-9.79284 75.22 -9.06684 75.946 -8.53884 76.87C-7.99618 77.794 -7.72484 78.8573 -7.72484 80.06C-7.72484 81.2627 -8.00351 82.3333 -8.56084 83.272C-9.11818 84.196 -9.85884 84.9293 -10.7828 85.472C-11.6922 86 -12.7042 86.264 -13.8188 86.264ZM-13.8188 84.284C-13.0855 84.284 -12.4255 84.1007 -11.8388 83.734C-11.2375 83.3673 -10.7682 82.8613 -10.4308 82.216C-10.0788 81.5707 -9.90284 80.852 -9.90284 80.06C-9.90284 79.2533 -10.0788 78.542 -10.4308 77.926C-10.7682 77.2953 -11.2375 76.7967 -11.8388 76.43C-12.4255 76.0487 -13.0855 75.858 -13.8188 75.858C-14.5668 75.858 -15.2415 76.0487 -15.8428 76.43C-16.4295 76.7967 -16.8988 77.2953 -17.2508 77.926C-17.6028 78.542 -17.7788 79.2533 -17.7788 80.06C-17.7788 80.852 -17.6028 81.5707 -17.2508 82.216C-16.8988 82.8613 -16.4295 83.3673 -15.8428 83.734C-15.2415 84.1007 -14.5668 84.284 -13.8188 84.284ZM-5.71631 86V74.142H-3.71431V76.562L-4.00031 76.188C-3.70698 75.44 -3.23765 74.868 -2.59231 74.472C-1.94698 74.076 -1.22098 73.878 -0.414312 73.878C0.509688 73.878 1.33836 74.1347 2.07169 74.648C2.81969 75.1613 3.33302 75.836 3.61169 76.672L3.03969 76.694C3.34769 75.77 3.86836 75.0733 4.60169 74.604C5.33502 74.12 6.14902 73.878 7.04369 73.878C7.86502 73.878 8.60569 74.0687 9.26569 74.45C9.94036 74.8313 10.4757 75.3593 10.8717 76.034C11.2677 76.7087 11.4657 77.4713 11.4657 78.322V86H9.39769V78.982C9.39769 78.322 9.28036 77.7647 9.04569 77.31C8.81102 76.8553 8.48836 76.5033 8.07769 76.254C7.68169 75.99 7.21236 75.858 6.66969 75.858C6.14169 75.858 5.66502 75.99 5.23969 76.254C4.82902 76.5033 4.49902 76.8627 4.24969 77.332C4.01502 77.7867 3.89769 78.3367 3.89769 78.982V86H1.82969V78.982C1.82969 78.322 1.71236 77.7647 1.47769 77.31C1.24302 76.8553 0.920355 76.5033 0.509688 76.254C0.113688 75.99 -0.355645 75.858 -0.898312 75.858C-1.42631 75.858 -1.90298 75.99 -2.32831 76.254C-2.73898 76.5033 -3.06898 76.8627 -3.31831 77.332C-3.55298 77.7867 -3.67031 78.3367 -3.67031 78.982V86H-5.71631ZM20.3303 86.264C19.553 86.264 18.8636 86.1247 18.2623 85.846C17.6756 85.5527 17.2136 85.1567 16.8763 84.658C16.539 84.1447 16.3703 83.558 16.3703 82.898C16.3703 82.2673 16.5023 81.7027 16.7663 81.204C17.045 80.6907 17.4703 80.258 18.0423 79.906C18.629 79.554 19.3623 79.3047 20.2423 79.158L24.6423 78.432V80.148L20.7043 80.808C19.9416 80.94 19.3843 81.182 19.0323 81.534C18.695 81.886 18.5263 82.3187 18.5263 82.832C18.5263 83.316 18.717 83.7193 19.0983 84.042C19.4943 84.3647 19.9856 84.526 20.5723 84.526C21.3203 84.526 21.9656 84.372 22.5083 84.064C23.0656 83.7413 23.4983 83.3087 23.8063 82.766C24.129 82.2233 24.2903 81.622 24.2903 80.962V77.948C24.2903 77.3027 24.0483 76.782 23.5643 76.386C23.095 75.9753 22.4716 75.77 21.6943 75.77C21.0196 75.77 20.4183 75.946 19.8903 76.298C19.377 76.6353 18.9956 77.09 18.7463 77.662L16.9643 76.738C17.1843 76.1953 17.5363 75.7113 18.0203 75.286C18.5043 74.846 19.069 74.5013 19.7143 74.252C20.3596 74.0027 21.0343 73.878 21.7383 73.878C22.6476 73.878 23.447 74.054 24.1363 74.406C24.8256 74.7433 25.361 75.22 25.7423 75.836C26.1383 76.4373 26.3363 77.1413 26.3363 77.948V86H24.3343V83.756L24.7083 83.888C24.459 84.3573 24.1216 84.768 23.6963 85.12C23.271 85.472 22.7723 85.7507 22.2003 85.956C21.6283 86.1613 21.005 86.264 20.3303 86.264ZM28.8486 86V74.142H30.8506V76.452L30.5206 76.254C30.8139 75.506 31.2833 74.9267 31.9286 74.516C32.5886 74.0907 33.3586 73.878 34.2386 73.878C35.0893 73.878 35.8446 74.0687 36.5046 74.45C37.1793 74.8313 37.7073 75.3593 38.0886 76.034C38.4846 76.7087 38.6826 77.4713 38.6826 78.322V86H36.6146V78.982C36.6146 78.322 36.4973 77.7647 36.2626 77.31C36.0279 76.8553 35.6906 76.5033 35.2506 76.254C34.8253 75.99 34.3339 75.858 33.7766 75.858C33.2193 75.858 32.7206 75.99 32.2806 76.254C31.8553 76.5033 31.5179 76.8627 31.2686 77.332C31.0193 77.7867 30.8946 78.3367 30.8946 78.982V86H28.8486ZM42.7511 86L48.6251 69.61H51.1771L57.0511 86H54.7411L53.3991 82.15H46.4031L45.0611 86H42.7511ZM47.0851 80.17H52.7171L49.5931 71.172H50.2091L47.0851 80.17ZM63.2846 86.264C62.126 86.264 61.092 85.9927 60.1826 85.45C59.288 84.9073 58.584 84.1667 58.0706 83.228C57.5573 82.2893 57.3006 81.2333 57.3006 80.06C57.3006 78.872 57.5573 77.816 58.0706 76.892C58.584 75.968 59.288 75.2347 60.1826 74.692C61.092 74.1493 62.126 73.878 63.2846 73.878C64.062 73.878 64.788 74.0173 65.4626 74.296C66.1373 74.5747 66.7313 74.9487 67.2446 75.418C67.758 75.8873 68.132 76.4373 68.3666 77.068L66.5406 77.948C66.262 77.332 65.8366 76.8333 65.2646 76.452C64.6926 76.056 64.0326 75.858 63.2846 75.858C62.566 75.858 61.9133 76.0413 61.3266 76.408C60.7546 76.7747 60.3 77.2733 59.9626 77.904C59.6253 78.5347 59.4566 79.2607 59.4566 80.082C59.4566 80.874 59.6253 81.5927 59.9626 82.238C60.3 82.8687 60.7546 83.3673 61.3266 83.734C61.9133 84.1007 62.566 84.284 63.2846 84.284C64.0326 84.284 64.6926 84.0933 65.2646 83.712C65.8366 83.316 66.262 82.7953 66.5406 82.15L68.3666 83.074C68.132 83.69 67.758 84.24 67.2446 84.724C66.7313 85.1933 66.1373 85.5673 65.4626 85.846C64.788 86.1247 64.062 86.264 63.2846 86.264ZM75.8805 86.264C74.7218 86.264 73.6878 85.9927 72.7785 85.45C71.8838 84.9073 71.1798 84.1667 70.6665 83.228C70.1532 82.2893 69.8965 81.2333 69.8965 80.06C69.8965 78.872 70.1532 77.816 70.6665 76.892C71.1798 75.968 71.8838 75.2347 72.7785 74.692C73.6878 74.1493 74.7218 73.878 75.8805 73.878C76.6578 73.878 77.3838 74.0173 78.0585 74.296C78.7332 74.5747 79.3272 74.9487 79.8405 75.418C80.3538 75.8873 80.7278 76.4373 80.9625 77.068L79.1365 77.948C78.8578 77.332 78.4325 76.8333 77.8605 76.452C77.2885 76.056 76.6285 75.858 75.8805 75.858C75.1618 75.858 74.5092 76.0413 73.9225 76.408C73.3505 76.7747 72.8958 77.2733 72.5585 77.904C72.2212 78.5347 72.0525 79.2607 72.0525 80.082C72.0525 80.874 72.2212 81.5927 72.5585 82.238C72.8958 82.8687 73.3505 83.3673 73.9225 83.734C74.5092 84.1007 75.1618 84.284 75.8805 84.284C76.6285 84.284 77.2885 84.0933 77.8605 83.712C78.4325 83.316 78.8578 82.7953 79.1365 82.15L80.9625 83.074C80.7278 83.69 80.3538 84.24 79.8405 84.724C79.3272 85.1933 78.7332 85.5673 78.0585 85.846C77.3838 86.1247 76.6578 86.264 75.8805 86.264ZM88.6083 86.264C87.4643 86.264 86.4303 86 85.5063 85.472C84.5823 84.9293 83.849 84.1887 83.3063 83.25C82.7637 82.3113 82.4923 81.248 82.4923 80.06C82.4923 78.872 82.7563 77.816 83.2843 76.892C83.827 75.968 84.5603 75.2347 85.4843 74.692C86.4083 74.1493 87.4497 73.878 88.6083 73.878C89.7523 73.878 90.7863 74.1493 91.7103 74.692C92.6343 75.22 93.3603 75.946 93.8883 76.87C94.431 77.794 94.7023 78.8573 94.7023 80.06C94.7023 81.2627 94.4237 82.3333 93.8663 83.272C93.309 84.196 92.5683 84.9293 91.6443 85.472C90.735 86 89.723 86.264 88.6083 86.264ZM88.6083 84.284C89.3417 84.284 90.0017 84.1007 90.5883 83.734C91.1897 83.3673 91.659 82.8613 91.9963 82.216C92.3483 81.5707 92.5243 80.852 92.5243 80.06C92.5243 79.2533 92.3483 78.542 91.9963 77.926C91.659 77.2953 91.1897 76.7967 90.5883 76.43C90.0017 76.0487 89.3417 75.858 88.6083 75.858C87.8603 75.858 87.1857 76.0487 86.5843 76.43C85.9977 76.7967 85.5283 77.2953 85.1763 77.926C84.8243 78.542 84.6483 79.2533 84.6483 80.06C84.6483 80.852 84.8243 81.5707 85.1763 82.216C85.5283 82.8613 85.9977 83.3673 86.5843 83.734C87.1857 84.1007 87.8603 84.284 88.6083 84.284ZM100.913 86.264C100.062 86.264 99.2922 86.066 98.6029 85.67C97.9282 85.274 97.4002 84.724 97.0189 84.02C96.6522 83.3013 96.4689 82.48 96.4689 81.556V74.142H98.5149V81.336C98.5149 81.9227 98.6322 82.436 98.8669 82.876C99.1162 83.316 99.4535 83.6607 99.8789 83.91C100.319 84.1593 100.818 84.284 101.375 84.284C101.932 84.284 102.424 84.1593 102.849 83.91C103.289 83.6607 103.626 83.3013 103.861 82.832C104.11 82.3627 104.235 81.8053 104.235 81.16V74.142H106.303V86H104.301V83.69L104.631 83.888C104.352 84.636 103.876 85.2227 103.201 85.648C102.541 86.0587 101.778 86.264 100.913 86.264ZM108.813 86V74.142H110.815V76.452L110.485 76.254C110.778 75.506 111.247 74.9267 111.893 74.516C112.553 74.0907 113.323 73.878 114.203 73.878C115.053 73.878 115.809 74.0687 116.469 74.45C117.143 74.8313 117.671 75.3593 118.053 76.034C118.449 76.7087 118.647 77.4713 118.647 78.322V86H116.579V78.982C116.579 78.322 116.461 77.7647 116.227 77.31C115.992 76.8553 115.655 76.5033 115.215 76.254C114.789 75.99 114.298 75.858 113.741 75.858C113.183 75.858 112.685 75.99 112.245 76.254C111.819 76.5033 111.482 76.8627 111.233 77.332C110.983 77.7867 110.859 78.3367 110.859 78.982V86H108.813ZM125.732 86.132C124.574 86.132 123.679 85.802 123.048 85.142C122.432 84.482 122.124 83.5507 122.124 82.348V76.1H119.968V74.142H120.408C120.936 74.142 121.354 73.9807 121.662 73.658C121.97 73.3353 122.124 72.91 122.124 72.382V71.414H124.17V74.142H126.832V76.1H124.17V82.282C124.17 82.678 124.229 83.0227 124.346 83.316C124.478 83.6093 124.691 83.844 124.984 84.02C125.278 84.1813 125.666 84.262 126.15 84.262C126.253 84.262 126.378 84.2547 126.524 84.24C126.686 84.2253 126.832 84.2107 126.964 84.196V86C126.774 86.044 126.561 86.0733 126.326 86.088C126.092 86.1173 125.894 86.132 125.732 86.132ZM128.977 86V74.142H131.023V86H128.977ZM128.977 72.25V69.61H131.023V72.25H128.977ZM133.538 86V74.142H135.54V76.452L135.21 76.254C135.503 75.506 135.972 74.9267 136.618 74.516C137.278 74.0907 138.048 73.878 138.928 73.878C139.778 73.878 140.534 74.0687 141.194 74.45C141.868 74.8313 142.396 75.3593 142.778 76.034C143.174 76.7087 143.372 77.4713 143.372 78.322V86H141.304V78.982C141.304 78.322 141.186 77.7647 140.952 77.31C140.717 76.8553 140.38 76.5033 139.94 76.254C139.514 75.99 139.023 75.858 138.466 75.858C137.908 75.858 137.41 75.99 136.97 76.254C136.544 76.5033 136.207 76.8627 135.958 77.332C135.708 77.7867 135.584 78.3367 135.584 78.982V86H133.538ZM151.293 90.84C150.457 90.84 149.68 90.708 148.961 90.444C148.257 90.18 147.649 89.8133 147.135 89.344C146.637 88.8893 146.255 88.354 145.991 87.738L147.905 86.858C148.111 87.4153 148.499 87.8847 149.071 88.266C149.658 88.662 150.391 88.86 151.271 88.86C151.946 88.86 152.555 88.728 153.097 88.464C153.655 88.2147 154.095 87.8333 154.417 87.32C154.74 86.8213 154.901 86.2127 154.901 85.494V82.832L155.275 83.228C154.865 84.0347 154.271 84.6507 153.493 85.076C152.731 85.5013 151.887 85.714 150.963 85.714C149.849 85.714 148.851 85.4573 147.971 84.944C147.091 84.416 146.402 83.7047 145.903 82.81C145.405 81.9007 145.155 80.896 145.155 79.796C145.155 78.6813 145.405 77.6767 145.903 76.782C146.402 75.8873 147.084 75.1833 147.949 74.67C148.829 74.142 149.827 73.878 150.941 73.878C151.865 73.878 152.701 74.0907 153.449 74.516C154.212 74.9267 154.821 75.4987 155.275 76.232L154.967 76.782V74.142H156.969V85.494C156.969 86.5207 156.727 87.4373 156.243 88.244C155.759 89.0507 155.085 89.6813 154.219 90.136C153.369 90.6053 152.393 90.84 151.293 90.84ZM151.139 83.734C151.843 83.734 152.474 83.558 153.031 83.206C153.603 82.854 154.058 82.3847 154.395 81.798C154.733 81.1967 154.901 80.5293 154.901 79.796C154.901 79.0773 154.733 78.4173 154.395 77.816C154.058 77.2147 153.603 76.738 153.031 76.386C152.474 76.034 151.843 75.858 151.139 75.858C150.421 75.858 149.768 76.034 149.181 76.386C148.595 76.738 148.133 77.2147 147.795 77.816C147.473 78.4027 147.311 79.0627 147.311 79.796C147.311 80.5293 147.473 81.1967 147.795 81.798C148.133 82.3847 148.587 82.854 149.159 83.206C149.746 83.558 150.406 83.734 151.139 83.734ZM166.87 86.264C165.682 86.264 164.648 85.9707 163.768 85.384C162.888 84.7973 162.265 84.0053 161.898 83.008L163.526 82.216C163.863 82.92 164.325 83.4773 164.912 83.888C165.499 84.2987 166.151 84.504 166.87 84.504C167.515 84.504 168.051 84.35 168.476 84.042C168.901 83.734 169.114 83.3307 169.114 82.832C169.114 82.48 169.011 82.2013 168.806 81.996C168.615 81.776 168.381 81.6073 168.102 81.49C167.823 81.358 167.567 81.2627 167.332 81.204L165.55 80.698C164.479 80.39 163.695 79.95 163.196 79.378C162.712 78.806 162.47 78.1387 162.47 77.376C162.47 76.672 162.646 76.0633 162.998 75.55C163.365 75.022 163.856 74.6113 164.472 74.318C165.103 74.0247 165.807 73.878 166.584 73.878C167.625 73.878 168.557 74.142 169.378 74.67C170.214 75.198 170.808 75.9387 171.16 76.892L169.488 77.662C169.224 77.046 168.828 76.562 168.3 76.21C167.772 75.8433 167.178 75.66 166.518 75.66C165.917 75.66 165.44 75.814 165.088 76.122C164.736 76.4153 164.56 76.7893 164.56 77.244C164.56 77.5813 164.648 77.86 164.824 78.08C165 78.2853 165.213 78.4467 165.462 78.564C165.711 78.6667 165.953 78.7547 166.188 78.828L168.124 79.4C169.092 79.6787 169.84 80.1113 170.368 80.698C170.911 81.2847 171.182 81.9887 171.182 82.81C171.182 83.47 170.999 84.064 170.632 84.592C170.265 85.12 169.759 85.5307 169.114 85.824C168.469 86.1173 167.721 86.264 166.87 86.264ZM178.832 86.264C177.688 86.264 176.654 86 175.73 85.472C174.806 84.9293 174.073 84.1887 173.53 83.25C172.988 82.3113 172.716 81.248 172.716 80.06C172.716 78.872 172.98 77.816 173.508 76.892C174.051 75.968 174.784 75.2347 175.708 74.692C176.632 74.1493 177.674 73.878 178.832 73.878C179.976 73.878 181.01 74.1493 181.934 74.692C182.858 75.22 183.584 75.946 184.112 76.87C184.655 77.794 184.926 78.8573 184.926 80.06C184.926 81.2627 184.648 82.3333 184.09 83.272C183.533 84.196 182.792 84.9293 181.868 85.472C180.959 86 179.947 86.264 178.832 86.264ZM178.832 84.284C179.566 84.284 180.226 84.1007 180.812 83.734C181.414 83.3673 181.883 82.8613 182.22 82.216C182.572 81.5707 182.748 80.852 182.748 80.06C182.748 79.2533 182.572 78.542 182.22 77.926C181.883 77.2953 181.414 76.7967 180.812 76.43C180.226 76.0487 179.566 75.858 178.832 75.858C178.084 75.858 177.41 76.0487 176.808 76.43C176.222 76.7967 175.752 77.2953 175.4 77.926C175.048 78.542 174.872 79.2533 174.872 80.06C174.872 80.852 175.048 81.5707 175.4 82.216C175.752 82.8613 176.222 83.3673 176.808 83.734C177.41 84.1007 178.084 84.284 178.832 84.284ZM187.824 86V76.1H185.558V74.142H187.824V73.306C187.824 72.4553 188.007 71.7367 188.374 71.15C188.755 70.5633 189.254 70.116 189.87 69.808C190.5 69.5 191.197 69.346 191.96 69.346C192.121 69.346 192.297 69.3607 192.488 69.39C192.693 69.4047 192.862 69.4267 192.994 69.456V71.282C192.876 71.2527 192.737 71.238 192.576 71.238C192.414 71.2233 192.29 71.216 192.202 71.216C191.527 71.216 190.97 71.3773 190.53 71.7C190.104 72.0227 189.892 72.558 189.892 73.306V74.142H192.708V76.1H189.892V86H187.824ZM199.794 86.132C198.635 86.132 197.741 85.802 197.11 85.142C196.494 84.482 196.186 83.5507 196.186 82.348V76.1H194.03V74.142H194.47C194.998 74.142 195.416 73.9807 195.724 73.658C196.032 73.3353 196.186 72.91 196.186 72.382V71.414H198.232V74.142H200.894V76.1H198.232V82.282C198.232 82.678 198.291 83.0227 198.408 83.316C198.54 83.6093 198.753 83.844 199.046 84.02C199.339 84.1813 199.728 84.262 200.212 84.262C200.315 84.262 200.439 84.2547 200.586 84.24C200.747 84.2253 200.894 84.2107 201.026 84.196V86C200.835 86.044 200.623 86.0733 200.388 86.088C200.153 86.1173 199.955 86.132 199.794 86.132ZM205.767 86L201.697 74.142H203.963L207.197 84.064L206.405 84.042L209.573 74.142H211.509L214.677 84.042L213.885 84.064L217.141 74.142H219.385L215.315 86H213.357L210.233 76.1H210.849L207.725 86H205.767ZM223.601 86.264C222.824 86.264 222.134 86.1247 221.533 85.846C220.946 85.5527 220.484 85.1567 220.147 84.658C219.81 84.1447 219.641 83.558 219.641 82.898C219.641 82.2673 219.773 81.7027 220.037 81.204C220.316 80.6907 220.741 80.258 221.313 79.906C221.9 79.554 222.633 79.3047 223.513 79.158L227.913 78.432V80.148L223.975 80.808C223.212 80.94 222.655 81.182 222.303 81.534C221.966 81.886 221.797 82.3187 221.797 82.832C221.797 83.316 221.988 83.7193 222.369 84.042C222.765 84.3647 223.256 84.526 223.843 84.526C224.591 84.526 225.236 84.372 225.779 84.064C226.336 83.7413 226.769 83.3087 227.077 82.766C227.4 82.2233 227.561 81.622 227.561 80.962V77.948C227.561 77.3027 227.319 76.782 226.835 76.386C226.366 75.9753 225.742 75.77 224.965 75.77C224.29 75.77 223.689 75.946 223.161 76.298C222.648 76.6353 222.266 77.09 222.017 77.662L220.235 76.738C220.455 76.1953 220.807 75.7113 221.291 75.286C221.775 74.846 222.34 74.5013 222.985 74.252C223.63 74.0027 224.305 73.878 225.009 73.878C225.918 73.878 226.718 74.054 227.407 74.406C228.096 74.7433 228.632 75.22 229.013 75.836C229.409 76.4373 229.607 77.1413 229.607 77.948V86H227.605V83.756L227.979 83.888C227.73 84.3573 227.392 84.768 226.967 85.12C226.542 85.472 226.043 85.7507 225.471 85.956C224.899 86.1613 224.276 86.264 223.601 86.264ZM232.119 86V74.142H234.121V76.32L233.901 76.012C234.18 75.3373 234.605 74.8387 235.177 74.516C235.749 74.1787 236.446 74.01 237.267 74.01H237.993V75.946H236.959C236.123 75.946 235.448 76.21 234.935 76.738C234.422 77.2513 234.165 77.9847 234.165 78.938V86H232.119ZM244.607 86.264C243.463 86.264 242.443 85.9927 241.549 85.45C240.654 84.9073 239.95 84.1667 239.437 83.228C238.923 82.2747 238.667 81.2113 238.667 80.038C238.667 78.85 238.916 77.794 239.415 76.87C239.928 75.946 240.617 75.22 241.483 74.692C242.363 74.1493 243.345 73.878 244.431 73.878C245.311 73.878 246.088 74.0393 246.763 74.362C247.452 74.67 248.031 75.0953 248.501 75.638C248.985 76.166 249.351 76.7747 249.601 77.464C249.865 78.1387 249.997 78.8427 249.997 79.576C249.997 79.7373 249.982 79.9207 249.953 80.126C249.938 80.3167 249.916 80.5 249.887 80.676H240.163V78.916H248.699L247.731 79.708C247.863 78.9453 247.789 78.2633 247.511 77.662C247.232 77.0607 246.821 76.584 246.279 76.232C245.736 75.88 245.12 75.704 244.431 75.704C243.741 75.704 243.111 75.88 242.539 76.232C241.967 76.584 241.519 77.09 241.197 77.75C240.889 78.3953 240.764 79.1653 240.823 80.06C240.764 80.9253 240.896 81.688 241.219 82.348C241.556 82.9933 242.025 83.4993 242.627 83.866C243.243 84.218 243.91 84.394 244.629 84.394C245.421 84.394 246.088 84.2107 246.631 83.844C247.173 83.4773 247.613 83.008 247.951 82.436L249.667 83.316C249.432 83.8587 249.065 84.3573 248.567 84.812C248.083 85.252 247.503 85.604 246.829 85.868C246.169 86.132 245.428 86.264 244.607 86.264ZM252.84 86V83.36H254.974V86H252.84Z" fill="#55555C"/>
<rect x="-36" y="111" width="386" height="232" rx="12" fill="#FAFAFA"/>
<rect x="-24.3535" y="127" width="362" height="74" rx="8" fill="white"/>
<circle cx="13.6465" cy="164" r="22" fill="#01C467"/>
<mask id="path-6-outside-1_428_1846" maskUnits="userSpaceOnUse" x="3.64648" y="151" width="23" height="24" fill="black">
<rect fill="white" x="3.64648" y="151" width="23" height="24"/>
<path d="M15.1825 171.288C13.8385 171.288 12.5905 171.056 11.4385 170.592C10.2865 170.128 9.27848 169.48 8.41448 168.648C7.56648 167.8 6.90248 166.816 6.42248 165.696C5.94248 164.576 5.70248 163.36 5.70248 162.048C5.70248 160.736 5.93448 159.52 6.39848 158.4C6.87848 157.28 7.54248 156.304 8.39048 155.472C9.25448 154.64 10.2625 153.992 11.4145 153.528C12.5665 153.064 13.8225 152.832 15.1825 152.832C16.5425 152.832 17.7985 153.064 18.9505 153.528C20.1025 153.992 21.1025 154.64 21.9505 155.472C22.8145 156.304 23.4785 157.28 23.9425 158.4C24.4225 159.52 24.6625 160.736 24.6625 162.048C24.6625 163.36 24.4225 164.576 23.9425 165.696C23.4625 166.816 22.7905 167.8 21.9265 168.648C21.0785 169.48 20.0785 170.128 18.9265 170.592C17.7745 171.056 16.5265 171.288 15.1825 171.288ZM15.1825 167.928C15.9985 167.928 16.7505 167.784 17.4385 167.496C18.1425 167.208 18.7585 166.808 19.2865 166.296C19.8145 165.768 20.2225 165.144 20.5105 164.424C20.7985 163.704 20.9425 162.912 20.9425 162.048C20.9425 161.184 20.7985 160.4 20.5105 159.696C20.2225 158.976 19.8145 158.352 19.2865 157.824C18.7585 157.296 18.1425 156.896 17.4385 156.624C16.7505 156.336 15.9985 156.192 15.1825 156.192C14.3665 156.192 13.6065 156.336 12.9025 156.624C12.2145 156.896 11.6065 157.296 11.0785 157.824C10.5505 158.352 10.1425 158.976 9.85448 159.696C9.56648 160.4 9.42248 161.184 9.42248 162.048C9.42248 162.912 9.56648 163.704 9.85448 164.424C10.1425 165.144 10.5505 165.768 11.0785 166.296C11.6065 166.808 12.2145 167.208 12.9025 167.496C13.6065 167.784 14.3665 167.928 15.1825 167.928ZM18.9745 173.16L13.6465 163.848H17.4865L22.8865 173.16H18.9745Z"/>
</mask>
<path d="M15.1825 171.288C13.8385 171.288 12.5905 171.056 11.4385 170.592C10.2865 170.128 9.27848 169.48 8.41448 168.648C7.56648 167.8 6.90248 166.816 6.42248 165.696C5.94248 164.576 5.70248 163.36 5.70248 162.048C5.70248 160.736 5.93448 159.52 6.39848 158.4C6.87848 157.28 7.54248 156.304 8.39048 155.472C9.25448 154.64 10.2625 153.992 11.4145 153.528C12.5665 153.064 13.8225 152.832 15.1825 152.832C16.5425 152.832 17.7985 153.064 18.9505 153.528C20.1025 153.992 21.1025 154.64 21.9505 155.472C22.8145 156.304 23.4785 157.28 23.9425 158.4C24.4225 159.52 24.6625 160.736 24.6625 162.048C24.6625 163.36 24.4225 164.576 23.9425 165.696C23.4625 166.816 22.7905 167.8 21.9265 168.648C21.0785 169.48 20.0785 170.128 18.9265 170.592C17.7745 171.056 16.5265 171.288 15.1825 171.288ZM15.1825 167.928C15.9985 167.928 16.7505 167.784 17.4385 167.496C18.1425 167.208 18.7585 166.808 19.2865 166.296C19.8145 165.768 20.2225 165.144 20.5105 164.424C20.7985 163.704 20.9425 162.912 20.9425 162.048C20.9425 161.184 20.7985 160.4 20.5105 159.696C20.2225 158.976 19.8145 158.352 19.2865 157.824C18.7585 157.296 18.1425 156.896 17.4385 156.624C16.7505 156.336 15.9985 156.192 15.1825 156.192C14.3665 156.192 13.6065 156.336 12.9025 156.624C12.2145 156.896 11.6065 157.296 11.0785 157.824C10.5505 158.352 10.1425 158.976 9.85448 159.696C9.56648 160.4 9.42248 161.184 9.42248 162.048C9.42248 162.912 9.56648 163.704 9.85448 164.424C10.1425 165.144 10.5505 165.768 11.0785 166.296C11.6065 166.808 12.2145 167.208 12.9025 167.496C13.6065 167.784 14.3665 167.928 15.1825 167.928ZM18.9745 173.16L13.6465 163.848H17.4865L22.8865 173.16H18.9745Z" fill="#01EB7B"/>
<path d="M11.4385 170.592L11.9989 169.201L11.4385 170.592ZM8.41448 168.648L7.35382 169.709L7.36383 169.719L7.37402 169.728L8.41448 168.648ZM6.42248 165.696L7.8012 165.105H7.8012L6.42248 165.696ZM6.39848 158.4L5.01977 157.809L5.01618 157.817L5.0127 157.826L6.39848 158.4ZM8.39048 155.472L7.34998 154.391L7.33997 154.401L8.39048 155.472ZM18.9505 153.528L18.3901 154.919L18.3901 154.919L18.9505 153.528ZM21.9505 155.472L20.8999 156.543L20.91 156.552L21.9505 155.472ZM23.9425 158.4L22.5567 158.974L22.5602 158.983L22.5638 158.991L23.9425 158.4ZM23.9425 165.696L22.5638 165.105L22.5638 165.105L23.9425 165.696ZM21.9265 168.648L22.977 169.719L22.9772 169.719L21.9265 168.648ZM18.9265 170.592L19.4869 171.983L18.9265 170.592ZM17.4385 167.496L16.8705 166.108L16.8593 166.112L17.4385 167.496ZM19.2865 166.296L20.3307 167.373L20.339 167.365L20.3471 167.357L19.2865 166.296ZM20.5105 164.424L19.1178 163.867V163.867L20.5105 164.424ZM20.5105 159.696L19.1177 160.253L19.1222 160.264L20.5105 159.696ZM17.4385 156.624L16.8593 158.008L16.8785 158.016L16.8979 158.023L17.4385 156.624ZM12.9025 156.624L13.454 158.019L13.4622 158.016L13.4704 158.012L12.9025 156.624ZM11.0785 157.824L10.0178 156.763L10.0178 156.763L11.0785 157.824ZM9.85448 159.696L11.2428 160.264L11.2472 160.253L9.85448 159.696ZM9.85448 164.424L8.46177 164.981L9.85448 164.424ZM11.0785 166.296L10.0178 167.357L10.026 167.365L10.0343 167.373L11.0785 166.296ZM12.9025 167.496L12.3233 168.88L12.3345 168.884L12.9025 167.496ZM18.9745 173.16L17.6725 173.905L18.1046 174.66H18.9745V173.16ZM13.6465 163.848V162.348H11.0601L12.3445 164.593L13.6465 163.848ZM17.4865 163.848L18.7841 163.096L18.3506 162.348H17.4865V163.848ZM22.8865 173.16V174.66H25.4903L24.1841 172.408L22.8865 173.16ZM15.1825 169.788C14.0146 169.788 12.9586 169.587 11.9989 169.201L10.8781 171.983C12.2224 172.525 13.6623 172.788 15.1825 172.788V169.788ZM11.9989 169.201C11.0189 168.806 10.1754 168.261 9.45495 167.568L7.37402 169.728C8.38153 170.699 9.55403 171.45 10.8781 171.983L11.9989 169.201ZM9.47514 167.587C8.76428 166.876 8.20727 166.053 7.8012 165.105L5.04377 166.287C5.5977 167.579 6.36869 168.724 7.35382 169.709L9.47514 167.587ZM7.8012 165.105C7.40721 164.186 7.20248 163.173 7.20248 162.048H4.20248C4.20248 163.547 4.47776 164.966 5.04377 166.287L7.8012 165.105ZM7.20248 162.048C7.20248 160.917 7.40168 159.898 7.78427 158.974L5.0127 157.826C4.46728 159.142 4.20248 160.555 4.20248 162.048H7.20248ZM7.7772 158.991C8.18216 158.046 8.73627 157.234 9.441 156.543L7.33997 154.401C6.3487 155.374 5.57481 156.514 5.01977 157.809L7.7772 158.991ZM9.43095 156.552C10.1514 155.859 10.9949 155.314 11.9749 154.919L10.8541 152.137C9.53003 152.67 8.35753 153.421 7.35002 154.392L9.43095 156.552ZM11.9749 154.919C12.9325 154.534 13.9962 154.332 15.1825 154.332V151.332C13.6488 151.332 12.2004 151.594 10.8541 152.137L11.9749 154.919ZM15.1825 154.332C16.3688 154.332 17.4324 154.534 18.3901 154.919L19.5109 152.137C18.1645 151.594 16.7162 151.332 15.1825 151.332V154.332ZM18.3901 154.919C19.3677 155.313 20.199 155.855 20.9 156.543L23.001 154.401C22.0059 153.425 20.8373 152.671 19.5109 152.137L18.3901 154.919ZM20.91 156.552C21.6237 157.24 22.1709 158.043 22.5567 158.974L25.3283 157.826C24.7861 156.517 24.0053 155.368 22.9909 154.392L20.91 156.552ZM22.5638 158.991C22.9578 159.91 23.1625 160.923 23.1625 162.048H26.1625C26.1625 160.549 25.8872 159.13 25.3212 157.809L22.5638 158.991ZM23.1625 162.048C23.1625 163.173 22.9578 164.186 22.5638 165.105L25.3212 166.287C25.8872 164.966 26.1625 163.547 26.1625 162.048H23.1625ZM22.5638 165.105C22.1603 166.047 21.5993 166.867 20.8758 167.577L22.9772 169.719C23.9817 168.733 24.7647 167.585 25.3212 166.287L22.5638 165.105ZM20.876 167.577C20.175 168.265 19.3437 168.807 18.3661 169.201L19.4869 171.983C20.8133 171.449 21.9819 170.695 22.977 169.719L20.876 167.577ZM18.3661 169.201C17.4064 169.587 16.3503 169.788 15.1825 169.788V172.788C16.7026 172.788 18.1426 172.525 19.4869 171.983L18.3661 169.201ZM15.1825 169.428C16.1785 169.428 17.1296 169.251 18.0177 168.88L16.8593 166.112C16.3713 166.317 15.8184 166.428 15.1825 166.428V169.428ZM18.0064 168.884C18.8814 168.526 19.6606 168.023 20.3307 167.373L18.2423 165.219C17.8564 165.593 17.4035 165.89 16.8705 166.108L18.0064 168.884ZM20.3471 167.357C21.0243 166.679 21.5427 165.882 21.9032 164.981L19.1178 163.867C18.9022 164.406 18.6046 164.857 18.2258 165.235L20.3471 167.357ZM21.9032 164.981C22.2697 164.065 22.4425 163.081 22.4425 162.048H19.4425C19.4425 162.743 19.3272 163.343 19.1178 163.867L21.9032 164.981ZM22.4425 162.048C22.4425 161.016 22.2699 160.035 21.8988 159.128L19.1222 160.264C19.3271 160.765 19.4425 161.352 19.4425 162.048H22.4425ZM21.9032 159.139C21.5427 158.238 21.0243 157.441 20.3471 156.763L18.2258 158.885C18.6046 159.263 18.9022 159.714 19.1178 160.253L21.9032 159.139ZM20.3471 156.763C19.6697 156.086 18.876 155.571 17.9791 155.225L16.8979 158.023C17.409 158.221 17.8473 158.506 18.2258 158.885L20.3471 156.763ZM18.0177 155.24C17.1296 154.869 16.1785 154.692 15.1825 154.692V157.692C15.8184 157.692 16.3713 157.803 16.8593 158.008L18.0177 155.24ZM15.1825 154.692C14.186 154.692 13.2316 154.869 12.3345 155.236L13.4704 158.012C13.9814 157.803 14.5469 157.692 15.1825 157.692V154.692ZM12.351 155.229C11.4704 155.577 10.6895 156.092 10.0178 156.763L12.1391 158.885C12.5235 158.5 12.9586 158.215 13.454 158.019L12.351 155.229ZM10.0178 156.763C9.34064 157.441 8.82225 158.238 8.46177 159.139L11.2472 160.253C11.4627 159.714 11.7603 159.263 12.1391 158.885L10.0178 156.763ZM8.46616 159.128C8.09507 160.035 7.92248 161.016 7.92248 162.048H10.9225C10.9225 161.352 11.0379 160.765 11.2428 160.264L8.46616 159.128ZM7.92248 162.048C7.92248 163.081 8.09524 164.065 8.46177 164.981L11.2472 163.867C11.0377 163.343 10.9225 162.743 10.9225 162.048H7.92248ZM8.46177 164.981C8.82225 165.882 9.34064 166.679 10.0178 167.357L12.1391 165.235C11.7603 164.857 11.4627 164.406 11.2472 163.867L8.46177 164.981ZM10.0343 167.373C10.6987 168.017 11.465 168.52 12.3233 168.88L13.4817 166.112C12.964 165.896 12.5143 165.599 12.1227 165.219L10.0343 167.373ZM12.3345 168.884C13.2316 169.251 14.186 169.428 15.1825 169.428V166.428C14.5469 166.428 13.9814 166.317 13.4704 166.108L12.3345 168.884ZM20.2764 172.415L14.9484 163.103L12.3445 164.593L17.6725 173.905L20.2764 172.415ZM13.6465 165.348H17.4865V162.348H13.6465V165.348ZM16.1889 164.6L21.5889 173.912L24.1841 172.408L18.7841 163.096L16.1889 164.6ZM22.8865 171.66H18.9745V174.66H22.8865V171.66Z" fill="white" mask="url(#path-6-outside-1_428_1846)"/>
<path d="M55.5485 170.716C54.6125 170.716 53.7365 170.548 52.9205 170.212C52.1165 169.864 51.4085 169.384 50.7965 168.772C50.1845 168.148 49.7045 167.416 49.3565 166.576C49.0085 165.724 48.8345 164.794 48.8345 163.786C48.8345 162.778 49.0085 161.854 49.3565 161.014C49.7045 160.162 50.1845 159.43 50.7965 158.818C51.4085 158.194 52.1165 157.714 52.9205 157.378C53.7365 157.042 54.6125 156.874 55.5485 156.874C56.4845 156.874 57.3545 157.048 58.1585 157.396C58.9745 157.732 59.6885 158.212 60.3005 158.836C60.9125 159.448 61.3925 160.174 61.7405 161.014C62.0885 161.854 62.2625 162.778 62.2625 163.786C62.2625 164.794 62.0885 165.724 61.7405 166.576C61.3925 167.416 60.9125 168.148 60.3005 168.772C59.6885 169.384 58.9745 169.864 58.1585 170.212C57.3545 170.548 56.4845 170.716 55.5485 170.716ZM55.5485 169.366C56.3285 169.366 57.0365 169.222 57.6725 168.934C58.3205 168.646 58.8785 168.244 59.3465 167.728C59.8145 167.212 60.1745 166.618 60.4265 165.946C60.6905 165.274 60.8225 164.554 60.8225 163.786C60.8225 163.03 60.6905 162.316 60.4265 161.644C60.1745 160.972 59.8145 160.378 59.3465 159.862C58.8785 159.346 58.3205 158.944 57.6725 158.656C57.0365 158.368 56.3285 158.224 55.5485 158.224C54.7685 158.224 54.0545 158.368 53.4065 158.656C52.7705 158.944 52.2185 159.346 51.7505 159.862C51.2825 160.378 50.9165 160.972 50.6525 161.644C50.4005 162.316 50.2745 163.03 50.2745 163.786C50.2745 164.554 50.4005 165.274 50.6525 165.946C50.9165 166.618 51.2825 167.212 51.7505 167.728C52.2185 168.244 52.7765 168.646 53.4245 168.934C54.0725 169.222 54.7805 169.366 55.5485 169.366ZM59.4185 172.12L54.6485 165.136H56.2865L61.0565 172.12H59.4185ZM67.8952 170.716C67.2232 170.716 66.6112 170.56 66.0592 170.248C65.5072 169.924 65.0692 169.48 64.7452 168.916C64.4332 168.34 64.2772 167.68 64.2772 166.936V160.852H65.6272V166.774C65.6272 167.29 65.7292 167.746 65.9332 168.142C66.1492 168.526 66.4432 168.826 66.8152 169.042C67.1992 169.258 67.6372 169.366 68.1292 169.366C68.6212 169.366 69.0592 169.258 69.4432 169.042C69.8272 168.814 70.1272 168.496 70.3432 168.088C70.5592 167.668 70.6672 167.17 70.6672 166.594V160.852H72.0172V170.5H70.6672V168.628L70.9732 168.7C70.7452 169.324 70.3552 169.816 69.8032 170.176C69.2512 170.536 68.6152 170.716 67.8952 170.716ZM74.4336 170.5V160.852H75.7836V170.5H74.4336ZM74.4336 159.07V157.09H75.7836V159.07H74.4336ZM82.5969 170.716C81.6489 170.716 80.8149 170.494 80.0949 170.05C79.3749 169.606 78.8109 169.006 78.4029 168.25C77.9949 167.482 77.7909 166.618 77.7909 165.658C77.7909 164.698 77.9949 163.84 78.4029 163.084C78.8109 162.328 79.3749 161.734 80.0949 161.302C80.8149 160.858 81.6489 160.636 82.5969 160.636C83.1969 160.636 83.7609 160.744 84.2889 160.96C84.8169 161.176 85.2849 161.47 85.6929 161.842C86.1009 162.202 86.4069 162.622 86.6109 163.102L85.3869 163.732C85.1469 163.216 84.7809 162.796 84.2889 162.472C83.7969 162.148 83.2329 161.986 82.5969 161.986C81.9609 161.986 81.3849 162.148 80.8689 162.472C80.3649 162.784 79.9629 163.222 79.6629 163.786C79.3749 164.338 79.2309 164.968 79.2309 165.676C79.2309 166.372 79.3749 167.002 79.6629 167.566C79.9629 168.118 80.3649 168.556 80.8689 168.88C81.3849 169.204 81.9609 169.366 82.5969 169.366C83.2329 169.366 83.7909 169.204 84.2709 168.88C84.7629 168.556 85.1349 168.124 85.3869 167.584L86.6109 168.25C86.4069 168.718 86.1009 169.138 85.6929 169.51C85.2849 169.882 84.8169 170.176 84.2889 170.392C83.7609 170.608 83.1969 170.716 82.5969 170.716ZM88.6198 170.5V156.874H89.9698V166.414L89.3938 166.324L94.8118 160.852H96.5578L92.7778 164.722L96.8998 170.5H95.2798L91.4098 165.154L92.2738 165.226L89.5198 168.07L89.9698 166.954V170.5H88.6198ZM101.018 170.5V157.09H106.652C107.408 157.09 108.062 157.234 108.614 157.522C109.178 157.798 109.61 158.188 109.91 158.692C110.222 159.196 110.378 159.784 110.378 160.456C110.378 161.152 110.204 161.77 109.856 162.31C109.52 162.838 109.034 163.24 108.398 163.516L108.38 163.084C108.908 163.276 109.358 163.546 109.73 163.894C110.114 164.242 110.408 164.65 110.612 165.118C110.816 165.574 110.918 166.066 110.918 166.594C110.918 167.794 110.534 168.748 109.766 169.456C109.01 170.152 107.978 170.5 106.67 170.5H101.018ZM102.458 169.15H106.67C107.522 169.15 108.2 168.928 108.704 168.484C109.22 168.028 109.478 167.404 109.478 166.612C109.478 165.832 109.22 165.214 108.704 164.758C108.2 164.29 107.522 164.056 106.67 164.056H102.458V169.15ZM102.458 162.76H106.544C107.264 162.76 107.84 162.55 108.272 162.13C108.716 161.71 108.938 161.17 108.938 160.51C108.938 159.838 108.716 159.328 108.272 158.98C107.84 158.62 107.264 158.44 106.544 158.44H102.458V162.76ZM117.458 170.716C116.546 170.716 115.718 170.5 114.974 170.068C114.23 169.624 113.636 169.024 113.192 168.268C112.76 167.5 112.544 166.63 112.544 165.658C112.544 164.698 112.76 163.84 113.192 163.084C113.624 162.328 114.206 161.734 114.938 161.302C115.682 160.858 116.522 160.636 117.458 160.636C118.394 160.636 119.228 160.852 119.96 161.284C120.704 161.716 121.286 162.31 121.706 163.066C122.138 163.822 122.354 164.686 122.354 165.658C122.354 166.642 122.132 167.518 121.688 168.286C121.244 169.042 120.65 169.636 119.906 170.068C119.174 170.5 118.358 170.716 117.458 170.716ZM117.458 169.366C118.106 169.366 118.688 169.204 119.204 168.88C119.732 168.556 120.146 168.112 120.446 167.548C120.758 166.984 120.914 166.354 120.914 165.658C120.914 164.962 120.758 164.338 120.446 163.786C120.146 163.234 119.732 162.796 119.204 162.472C118.688 162.148 118.106 161.986 117.458 161.986C116.81 161.986 116.222 162.148 115.694 162.472C115.178 162.796 114.764 163.234 114.452 163.786C114.14 164.338 113.984 164.962 113.984 165.658C113.984 166.354 114.14 166.984 114.452 167.548C114.764 168.112 115.178 168.556 115.694 168.88C116.222 169.204 116.81 169.366 117.458 169.366ZM128.893 170.716C127.981 170.716 127.153 170.5 126.409 170.068C125.665 169.624 125.071 169.024 124.627 168.268C124.195 167.5 123.979 166.63 123.979 165.658C123.979 164.698 124.195 163.84 124.627 163.084C125.059 162.328 125.641 161.734 126.373 161.302C127.117 160.858 127.957 160.636 128.893 160.636C129.829 160.636 130.663 160.852 131.395 161.284C132.139 161.716 132.721 162.31 133.141 163.066C133.573 163.822 133.789 164.686 133.789 165.658C133.789 166.642 133.567 167.518 133.123 168.286C132.679 169.042 132.085 169.636 131.341 170.068C130.609 170.5 129.793 170.716 128.893 170.716ZM128.893 169.366C129.541 169.366 130.123 169.204 130.639 168.88C131.167 168.556 131.581 168.112 131.881 167.548C132.193 166.984 132.349 166.354 132.349 165.658C132.349 164.962 132.193 164.338 131.881 163.786C131.581 163.234 131.167 162.796 130.639 162.472C130.123 162.148 129.541 161.986 128.893 161.986C128.245 161.986 127.657 162.148 127.129 162.472C126.613 162.796 126.199 163.234 125.887 163.786C125.575 164.338 125.419 164.962 125.419 165.658C125.419 166.354 125.575 166.984 125.887 167.548C126.199 168.112 126.613 168.556 127.129 168.88C127.657 169.204 128.245 169.366 128.893 169.366ZM135.81 170.5V156.874H137.16V166.414L136.584 166.324L142.002 160.852H143.748L139.968 164.722L144.09 170.5H142.47L138.6 165.154L139.464 165.226L136.71 168.07L137.16 166.954V170.5H135.81ZM148.659 170.716C147.735 170.716 146.925 170.482 146.229 170.014C145.533 169.546 145.029 168.91 144.717 168.106L145.851 167.566C146.127 168.154 146.511 168.622 147.003 168.97C147.507 169.318 148.059 169.492 148.659 169.492C149.235 169.492 149.721 169.354 150.117 169.078C150.513 168.79 150.711 168.418 150.711 167.962C150.711 167.626 150.615 167.362 150.423 167.17C150.231 166.966 150.009 166.81 149.757 166.702C149.505 166.594 149.283 166.516 149.091 166.468L147.705 166.072C146.817 165.82 146.175 165.466 145.779 165.01C145.383 164.554 145.185 164.026 145.185 163.426C145.185 162.862 145.329 162.37 145.617 161.95C145.905 161.53 146.295 161.206 146.787 160.978C147.279 160.75 147.825 160.636 148.425 160.636C149.241 160.636 149.979 160.852 150.639 161.284C151.311 161.704 151.785 162.292 152.061 163.048L150.909 163.588C150.669 163.048 150.321 162.628 149.865 162.328C149.421 162.016 148.923 161.86 148.371 161.86C147.831 161.86 147.399 161.998 147.075 162.274C146.751 162.55 146.589 162.898 146.589 163.318C146.589 163.642 146.673 163.9 146.841 164.092C147.009 164.284 147.201 164.428 147.417 164.524C147.645 164.62 147.843 164.692 148.011 164.74L149.613 165.208C150.393 165.436 150.999 165.79 151.431 166.27C151.875 166.75 152.097 167.314 152.097 167.962C152.097 168.49 151.947 168.964 151.647 169.384C151.359 169.804 150.957 170.134 150.441 170.374C149.925 170.602 149.331 170.716 148.659 170.716Z" fill="black"/>
<rect x="206" y="139" width="120" height="48" rx="12" fill="#F2F2F3"/>
<path d="M227.934 169.168C227.187 169.168 226.496 169.033 225.862 168.762C225.236 168.491 224.686 168.113 224.21 167.628C223.743 167.143 223.379 166.573 223.118 165.92C222.856 165.267 222.726 164.553 222.726 163.778C222.726 163.003 222.852 162.289 223.104 161.636C223.365 160.973 223.729 160.404 224.196 159.928C224.672 159.443 225.227 159.069 225.862 158.808C226.496 158.537 227.187 158.402 227.934 158.402C228.68 158.402 229.348 158.528 229.936 158.78C230.533 159.032 231.037 159.368 231.448 159.788C231.858 160.199 232.152 160.651 232.33 161.146L230.622 161.944C230.426 161.421 230.094 160.992 229.628 160.656C229.161 160.311 228.596 160.138 227.934 160.138C227.28 160.138 226.702 160.292 226.198 160.6C225.703 160.908 225.316 161.333 225.036 161.874C224.765 162.415 224.63 163.05 224.63 163.778C224.63 164.506 224.765 165.145 225.036 165.696C225.316 166.237 225.703 166.662 226.198 166.97C226.702 167.278 227.28 167.432 227.934 167.432C228.596 167.432 229.161 167.264 229.628 166.928C230.094 166.583 230.426 166.149 230.622 165.626L232.33 166.424C232.152 166.919 231.858 167.376 231.448 167.796C231.037 168.207 230.533 168.538 229.936 168.79C229.348 169.042 228.68 169.168 227.934 169.168ZM236.749 169.168C236.002 169.168 235.321 168.995 234.705 168.65C234.098 168.305 233.613 167.833 233.249 167.236C232.894 166.639 232.717 165.957 232.717 165.192C232.717 164.427 232.894 163.745 233.249 163.148C233.613 162.551 234.098 162.079 234.705 161.734C235.311 161.389 235.993 161.216 236.749 161.216C237.495 161.216 238.172 161.389 238.779 161.734C239.385 162.079 239.866 162.551 240.221 163.148C240.585 163.736 240.767 164.417 240.767 165.192C240.767 165.957 240.585 166.639 240.221 167.236C239.857 167.833 239.371 168.305 238.765 168.65C238.158 168.995 237.486 169.168 236.749 169.168ZM236.749 167.488C237.159 167.488 237.519 167.39 237.827 167.194C238.144 166.998 238.391 166.727 238.569 166.382C238.755 166.027 238.849 165.631 238.849 165.192C238.849 164.744 238.755 164.352 238.569 164.016C238.391 163.671 238.144 163.4 237.827 163.204C237.519 162.999 237.159 162.896 236.749 162.896C236.329 162.896 235.96 162.999 235.643 163.204C235.325 163.4 235.073 163.671 234.887 164.016C234.709 164.352 234.621 164.744 234.621 165.192C234.621 165.631 234.709 166.027 234.887 166.382C235.073 166.727 235.325 166.998 235.643 167.194C235.96 167.39 236.329 167.488 236.749 167.488ZM241.598 169V161.384H243.32V162.882L243.18 162.616C243.357 162.159 243.646 161.813 244.048 161.58C244.458 161.337 244.934 161.216 245.476 161.216C246.036 161.216 246.53 161.337 246.96 161.58C247.398 161.823 247.739 162.163 247.982 162.602C248.224 163.031 248.346 163.531 248.346 164.1V169H246.512V164.534C246.512 164.198 246.446 163.909 246.316 163.666C246.185 163.423 246.003 163.237 245.77 163.106C245.546 162.966 245.28 162.896 244.972 162.896C244.673 162.896 244.407 162.966 244.174 163.106C243.94 163.237 243.758 163.423 243.628 163.666C243.497 163.909 243.432 164.198 243.432 164.534V169H241.598ZM249.336 169V161.384H251.058V162.882L250.918 162.616C251.096 162.159 251.385 161.813 251.786 161.58C252.197 161.337 252.673 161.216 253.214 161.216C253.774 161.216 254.269 161.337 254.698 161.58C255.137 161.823 255.478 162.163 255.72 162.602C255.963 163.031 256.084 163.531 256.084 164.1V169H254.25V164.534C254.25 164.198 254.185 163.909 254.054 163.666C253.924 163.423 253.742 163.237 253.508 163.106C253.284 162.966 253.018 162.896 252.71 162.896C252.412 162.896 252.146 162.966 251.912 163.106C251.679 163.237 251.497 163.423 251.366 163.666C251.236 163.909 251.17 164.198 251.17 164.534V169H249.336ZM260.687 169.168C259.903 169.168 259.217 168.991 258.629 168.636C258.041 168.281 257.584 167.801 257.257 167.194C256.931 166.587 256.767 165.915 256.767 165.178C256.767 164.413 256.931 163.736 257.257 163.148C257.593 162.551 258.046 162.079 258.615 161.734C259.194 161.389 259.838 161.216 260.547 161.216C261.145 161.216 261.667 161.314 262.115 161.51C262.573 161.706 262.96 161.977 263.277 162.322C263.595 162.667 263.837 163.064 264.005 163.512C264.173 163.951 264.257 164.427 264.257 164.94C264.257 165.071 264.248 165.206 264.229 165.346C264.22 165.486 264.197 165.607 264.159 165.71H258.279V164.31H263.123L262.255 164.968C262.339 164.539 262.316 164.156 262.185 163.82C262.064 163.484 261.859 163.218 261.569 163.022C261.289 162.826 260.949 162.728 260.547 162.728C260.165 162.728 259.824 162.826 259.525 163.022C259.227 163.209 258.998 163.489 258.839 163.862C258.69 164.226 258.634 164.669 258.671 165.192C258.634 165.659 258.695 166.074 258.853 166.438C259.021 166.793 259.264 167.068 259.581 167.264C259.908 167.46 260.281 167.558 260.701 167.558C261.121 167.558 261.476 167.469 261.765 167.292C262.064 167.115 262.297 166.877 262.465 166.578L263.949 167.306C263.8 167.67 263.567 167.992 263.249 168.272C262.932 168.552 262.554 168.771 262.115 168.93C261.686 169.089 261.21 169.168 260.687 169.168ZM268.756 169.168C268 169.168 267.318 168.995 266.712 168.65C266.114 168.295 265.643 167.819 265.298 167.222C264.952 166.615 264.78 165.934 264.78 165.178C264.78 164.422 264.952 163.745 265.298 163.148C265.643 162.551 266.114 162.079 266.712 161.734C267.318 161.389 268 161.216 268.756 161.216C269.297 161.216 269.801 161.314 270.268 161.51C270.734 161.697 271.136 161.958 271.472 162.294C271.817 162.621 272.064 163.013 272.214 163.47L270.604 164.17C270.464 163.787 270.226 163.479 269.89 163.246C269.563 163.013 269.185 162.896 268.756 162.896C268.354 162.896 267.995 162.994 267.678 163.19C267.37 163.386 267.127 163.657 266.95 164.002C266.772 164.347 266.684 164.744 266.684 165.192C266.684 165.64 266.772 166.037 266.95 166.382C267.127 166.727 267.37 166.998 267.678 167.194C267.995 167.39 268.354 167.488 268.756 167.488C269.194 167.488 269.577 167.371 269.904 167.138C270.23 166.905 270.464 166.592 270.604 166.2L272.214 166.928C272.064 167.357 271.822 167.745 271.486 168.09C271.15 168.426 270.748 168.692 270.282 168.888C269.815 169.075 269.306 169.168 268.756 169.168ZM276.517 169.084C275.658 169.084 274.991 168.851 274.515 168.384C274.048 167.908 273.815 167.241 273.815 166.382V163.022H272.499V161.384H272.639C273.012 161.384 273.302 161.286 273.507 161.09C273.712 160.894 273.815 160.609 273.815 160.236V159.648H275.649V161.384H277.399V163.022H275.649V166.284C275.649 166.536 275.691 166.751 275.775 166.928C275.868 167.105 276.008 167.241 276.195 167.334C276.391 167.427 276.638 167.474 276.937 167.474C277.002 167.474 277.077 167.469 277.161 167.46C277.254 167.451 277.343 167.441 277.427 167.432V169C277.296 169.019 277.147 169.037 276.979 169.056C276.811 169.075 276.657 169.084 276.517 169.084Z" fill="#00000A"/>
<path d="M291.667 163H306.333M306.333 163L300.833 157.5M306.333 163L300.833 168.5" stroke="#00000A" stroke-width="1.5" stroke-linecap="round" stroke-linejoin="round"/>
<rect x="-24.3535" y="217" width="362" height="74" rx="8" fill="white"/>
<circle cx="13.6465" cy="254" r="22" fill="#00000A"/>
<mask id="path-14-outside-2_428_1846" maskUnits="userSpaceOnUse" x="1.64648" y="241" width="22" height="22" fill="black">
<rect fill="white" x="1.64648" y="241" width="22" height="22"/>
<path d="M4.91048 261L10.7665 252.048L4.91048 243.12H9.18248L13.8865 250.272H11.7985L16.4785 243.12H20.7505L14.9185 252.048L20.7505 261H16.4785L11.7985 253.824L13.8865 253.848L9.18248 261H4.91048Z"/>
</mask>
<path d="M4.91048 261L10.7665 252.048L4.91048 243.12H9.18248L13.8865 250.272H11.7985L16.4785 243.12H20.7505L14.9185 252.048L20.7505 261H16.4785L11.7985 253.824L13.8865 253.848L9.18248 261H4.91048Z" fill="#2B2B33"/>
<path d="M4.91048 261L3.65521 260.179L2.13682 262.5H4.91048V261ZM10.7665 252.048L12.0218 252.869L12.5596 252.047L12.0208 251.225L10.7665 252.048ZM4.91048 243.12V241.62H2.13273L3.65622 243.943L4.91048 243.12ZM9.18248 243.12L10.4357 242.296L9.99127 241.62H9.18248V243.12ZM13.8865 250.272V251.772H16.6684L15.1397 249.448L13.8865 250.272ZM11.7985 250.272L10.5433 249.451L9.02434 251.772H11.7985V250.272ZM16.4785 243.12V241.62H15.6674L15.2233 242.299L16.4785 243.12ZM20.7505 243.12L22.0063 243.94L23.522 241.62H20.7505V243.12ZM14.9185 252.048L13.6627 251.228L13.1275 252.047L13.6617 252.867L14.9185 252.048ZM20.7505 261V262.5H23.5179L22.0073 260.181L20.7505 261ZM16.4785 261L15.2221 261.819L15.6659 262.5H16.4785V261ZM11.7985 253.824L11.8157 252.324L9.00844 252.292L10.5421 254.643L11.7985 253.824ZM13.8865 253.848L15.1397 254.672L16.6476 252.38L13.9037 252.348L13.8865 253.848ZM9.18248 261V262.5H9.99127L10.4357 261.824L9.18248 261ZM6.16576 261.821L12.0218 252.869L9.51121 251.227L3.65521 260.179L6.16576 261.821ZM12.0208 251.225L6.16475 242.297L3.65622 243.943L9.51222 252.871L12.0208 251.225ZM4.91048 244.62H9.18248V241.62H4.91048V244.62ZM7.92926 243.944L12.6333 251.096L15.1397 249.448L10.4357 242.296L7.92926 243.944ZM13.8865 248.772H11.7985V251.772H13.8865V248.772ZM13.0536 251.093L17.7336 243.941L15.2233 242.299L10.5433 249.451L13.0536 251.093ZM16.4785 244.62H20.7505V241.62H16.4785V244.62ZM19.4947 242.3L13.6627 251.228L16.1743 252.868L22.0063 243.94L19.4947 242.3ZM13.6617 252.867L19.4937 261.819L22.0073 260.181L16.1753 251.229L13.6617 252.867ZM20.7505 259.5H16.4785V262.5H20.7505V259.5ZM17.7349 260.181L13.0549 253.005L10.5421 254.643L15.2221 261.819L17.7349 260.181ZM11.7812 255.324L13.8692 255.348L13.9037 252.348L11.8157 252.324L11.7812 255.324ZM12.6333 253.024L7.92926 260.176L10.4357 261.824L15.1397 254.672L12.6333 253.024ZM9.18248 259.5H4.91048V262.5H9.18248V259.5Z" fill="white" mask="url(#path-14-outside-2_428_1846)"/>
<path d="M47.8445 260.5L52.2005 253.66L47.9885 247.09H49.6085L53.2625 252.814H52.7765L56.4125 247.09H58.0325L53.8205 253.66L58.1945 260.5H56.5745L52.7765 254.524H53.2625L49.4285 260.5H47.8445ZM63.4532 260.716C62.5532 260.716 61.7372 260.5 61.0052 260.068C60.2852 259.624 59.7152 259.018 59.2952 258.25C58.8752 257.482 58.6652 256.612 58.6652 255.64C58.6652 254.668 58.8692 253.81 59.2772 253.066C59.6852 252.31 60.2372 251.716 60.9332 251.284C61.6412 250.852 62.4332 250.636 63.3092 250.636C64.0052 250.636 64.6232 250.768 65.1632 251.032C65.7152 251.284 66.1832 251.632 66.5672 252.076C66.9512 252.508 67.2452 253 67.4492 253.552C67.6532 254.092 67.7552 254.65 67.7552 255.226C67.7552 255.346 67.7492 255.484 67.7372 255.64C67.7252 255.784 67.7072 255.934 67.6832 256.09H59.5292V254.83H66.9092L66.2612 255.37C66.3692 254.71 66.2912 254.122 66.0272 253.606C65.7752 253.078 65.4092 252.664 64.9292 252.364C64.4492 252.052 63.9092 251.896 63.3092 251.896C62.7092 251.896 62.1512 252.052 61.6352 252.364C61.1312 252.676 60.7352 253.114 60.4472 253.678C60.1592 254.23 60.0452 254.89 60.1052 255.658C60.0452 256.426 60.1652 257.098 60.4652 257.674C60.7772 258.238 61.1972 258.676 61.7252 258.988C62.2652 259.3 62.8412 259.456 63.4532 259.456C64.1612 259.456 64.7552 259.288 65.2352 258.952C65.7152 258.616 66.1052 258.196 66.4052 257.692L67.5572 258.304C67.3652 258.736 67.0712 259.138 66.6752 259.51C66.2792 259.87 65.8052 260.164 65.2532 260.392C64.7132 260.608 64.1132 260.716 63.4532 260.716ZM69.7754 260.5V250.852H71.1254V252.436L70.9454 252.202C71.1734 251.746 71.5154 251.386 71.9714 251.122C72.4394 250.858 73.0034 250.726 73.6634 250.726H74.2754V252.076H73.4294C72.7334 252.076 72.1754 252.292 71.7554 252.724C71.3354 253.156 71.1254 253.768 71.1254 254.56V260.5H69.7754ZM80.0154 260.716C79.1034 260.716 78.2754 260.5 77.5314 260.068C76.7874 259.624 76.1934 259.024 75.7494 258.268C75.3174 257.5 75.1014 256.63 75.1014 255.658C75.1014 254.698 75.3174 253.84 75.7494 253.084C76.1814 252.328 76.7634 251.734 77.4954 251.302C78.2394 250.858 79.0794 250.636 80.0154 250.636C80.9514 250.636 81.7854 250.852 82.5174 251.284C83.2614 251.716 83.8434 252.31 84.2634 253.066C84.6954 253.822 84.9114 254.686 84.9114 255.658C84.9114 256.642 84.6894 257.518 84.2454 258.286C83.8014 259.042 83.2074 259.636 82.4634 260.068C81.7314 260.5 80.9154 260.716 80.0154 260.716ZM80.0154 259.366C80.6634 259.366 81.2454 259.204 81.7614 258.88C82.2894 258.556 82.7034 258.112 83.0034 257.548C83.3154 256.984 83.4714 256.354 83.4714 255.658C83.4714 254.962 83.3154 254.338 83.0034 253.786C82.7034 253.234 82.2894 252.796 81.7614 252.472C81.2454 252.148 80.6634 251.986 80.0154 251.986C79.3674 251.986 78.7794 252.148 78.2514 252.472C77.7354 252.796 77.3214 253.234 77.0094 253.786C76.6974 254.338 76.5414 254.962 76.5414 255.658C76.5414 256.354 76.6974 256.984 77.0094 257.548C77.3214 258.112 77.7354 258.556 78.2514 258.88C78.7794 259.204 79.3674 259.366 80.0154 259.366Z" fill="black"/>
<rect x="216.646" y="229" width="109" height="48" rx="12" fill="#F2F2F3"/>
<path d="M238.58 259.168C237.834 259.168 237.143 259.033 236.508 258.762C235.883 258.491 235.332 258.113 234.856 257.628C234.39 257.143 234.026 256.573 233.764 255.92C233.503 255.267 233.372 254.553 233.372 253.778C233.372 253.003 233.498 252.289 233.75 251.636C234.012 250.973 234.376 250.404 234.842 249.928C235.318 249.443 235.874 249.069 236.508 248.808C237.143 248.537 237.834 248.402 238.58 248.402C239.327 248.402 239.994 248.528 240.582 248.78C241.18 249.032 241.684 249.368 242.094 249.788C242.505 250.199 242.799 250.651 242.976 251.146L241.268 251.944C241.072 251.421 240.741 250.992 240.274 250.656C239.808 250.311 239.243 250.138 238.58 250.138C237.927 250.138 237.348 250.292 236.844 250.6C236.35 250.908 235.962 251.333 235.682 251.874C235.412 252.415 235.276 253.05 235.276 253.778C235.276 254.506 235.412 255.145 235.682 255.696C235.962 256.237 236.35 256.662 236.844 256.97C237.348 257.278 237.927 257.432 238.58 257.432C239.243 257.432 239.808 257.264 240.274 256.928C240.741 256.583 241.072 256.149 241.268 255.626L242.976 256.424C242.799 256.919 242.505 257.376 242.094 257.796C241.684 258.207 241.18 258.538 240.582 258.79C239.994 259.042 239.327 259.168 238.58 259.168ZM247.395 259.168C246.649 259.168 245.967 258.995 245.351 258.65C244.745 258.305 244.259 257.833 243.895 257.236C243.541 256.639 243.363 255.957 243.363 255.192C243.363 254.427 243.541 253.745 243.895 253.148C244.259 252.551 244.745 252.079 245.351 251.734C245.958 251.389 246.639 251.216 247.395 251.216C248.142 251.216 248.819 251.389 249.425 251.734C250.032 252.079 250.513 252.551 250.867 253.148C251.231 253.736 251.413 254.417 251.413 255.192C251.413 255.957 251.231 256.639 250.867 257.236C250.503 257.833 250.018 258.305 249.411 258.65C248.805 258.995 248.133 259.168 247.395 259.168ZM247.395 257.488C247.806 257.488 248.165 257.39 248.473 257.194C248.791 256.998 249.038 256.727 249.215 256.382C249.402 256.027 249.495 255.631 249.495 255.192C249.495 254.744 249.402 254.352 249.215 254.016C249.038 253.671 248.791 253.4 248.473 253.204C248.165 252.999 247.806 252.896 247.395 252.896C246.975 252.896 246.607 252.999 246.289 253.204C245.972 253.4 245.72 253.671 245.533 254.016C245.356 254.352 245.267 254.744 245.267 255.192C245.267 255.631 245.356 256.027 245.533 256.382C245.72 256.727 245.972 256.998 246.289 257.194C246.607 257.39 246.975 257.488 247.395 257.488ZM252.244 259V251.384H253.966V252.882L253.826 252.616C254.003 252.159 254.293 251.813 254.694 251.58C255.105 251.337 255.581 251.216 256.122 251.216C256.682 251.216 257.177 251.337 257.606 251.58C258.045 251.823 258.385 252.163 258.628 252.602C258.871 253.031 258.992 253.531 258.992 254.1V259H257.158V254.534C257.158 254.198 257.093 253.909 256.962 253.666C256.831 253.423 256.649 253.237 256.416 253.106C256.192 252.966 255.926 252.896 255.618 252.896C255.319 252.896 255.053 252.966 254.82 253.106C254.587 253.237 254.405 253.423 254.274 253.666C254.143 253.909 254.078 254.198 254.078 254.534V259H252.244ZM259.983 259V251.384H261.705V252.882L261.565 252.616C261.742 252.159 262.032 251.813 262.433 251.58C262.844 251.337 263.32 251.216 263.861 251.216C264.421 251.216 264.916 251.337 265.345 251.58C265.784 251.823 266.124 252.163 266.367 252.602C266.61 253.031 266.731 253.531 266.731 254.1V259H264.897V254.534C264.897 254.198 264.832 253.909 264.701 253.666C264.57 253.423 264.388 253.237 264.155 253.106C263.931 252.966 263.665 252.896 263.357 252.896C263.058 252.896 262.792 252.966 262.559 253.106C262.326 253.237 262.144 253.423 262.013 253.666C261.882 253.909 261.817 254.198 261.817 254.534V259H259.983ZM271.334 259.168C270.55 259.168 269.864 258.991 269.276 258.636C268.688 258.281 268.23 257.801 267.904 257.194C267.577 256.587 267.414 255.915 267.414 255.178C267.414 254.413 267.577 253.736 267.904 253.148C268.24 252.551 268.692 252.079 269.262 251.734C269.84 251.389 270.484 251.216 271.194 251.216C271.791 251.216 272.314 251.314 272.762 251.51C273.219 251.706 273.606 251.977 273.924 252.322C274.241 252.667 274.484 253.064 274.652 253.512C274.82 253.951 274.904 254.427 274.904 254.94C274.904 255.071 274.894 255.206 274.876 255.346C274.866 255.486 274.843 255.607 274.806 255.71H268.926V254.31H273.77L272.902 254.968C272.986 254.539 272.962 254.156 272.832 253.82C272.71 253.484 272.505 253.218 272.216 253.022C271.936 252.826 271.595 252.728 271.194 252.728C270.811 252.728 270.47 252.826 270.172 253.022C269.873 253.209 269.644 253.489 269.486 253.862C269.336 254.226 269.28 254.669 269.318 255.192C269.28 255.659 269.341 256.074 269.5 256.438C269.668 256.793 269.91 257.068 270.228 257.264C270.554 257.46 270.928 257.558 271.348 257.558C271.768 257.558 272.122 257.469 272.412 257.292C272.71 257.115 272.944 256.877 273.112 256.578L274.596 257.306C274.446 257.67 274.213 257.992 273.896 258.272C273.578 258.552 273.2 258.771 272.762 258.93C272.332 259.089 271.856 259.168 271.334 259.168ZM279.402 259.168C278.646 259.168 277.965 258.995 277.358 258.65C276.761 258.295 276.289 257.819 275.944 257.222C275.599 256.615 275.426 255.934 275.426 255.178C275.426 254.422 275.599 253.745 275.944 253.148C276.289 252.551 276.761 252.079 277.358 251.734C277.965 251.389 278.646 251.216 279.402 251.216C279.943 251.216 280.447 251.314 280.914 251.51C281.381 251.697 281.782 251.958 282.118 252.294C282.463 252.621 282.711 253.013 282.86 253.47L281.25 254.17C281.11 253.787 280.872 253.479 280.536 253.246C280.209 253.013 279.831 252.896 279.402 252.896C279.001 252.896 278.641 252.994 278.324 253.19C278.016 253.386 277.773 253.657 277.596 254.002C277.419 254.347 277.33 254.744 277.33 255.192C277.33 255.64 277.419 256.037 277.596 256.382C277.773 256.727 278.016 256.998 278.324 257.194C278.641 257.39 279.001 257.488 279.402 257.488C279.841 257.488 280.223 257.371 280.55 257.138C280.877 256.905 281.11 256.592 281.25 256.2L282.86 256.928C282.711 257.357 282.468 257.745 282.132 258.09C281.796 258.426 281.395 258.692 280.928 258.888C280.461 259.075 279.953 259.168 279.402 259.168ZM287.164 259.084C286.305 259.084 285.638 258.851 285.162 258.384C284.695 257.908 284.462 257.241 284.462 256.382V253.022H283.146V251.384H283.286C283.659 251.384 283.948 251.286 284.154 251.09C284.359 250.894 284.462 250.609 284.462 250.236V249.648H286.296V251.384H288.046V253.022H286.296V256.284C286.296 256.536 286.338 256.751 286.422 256.928C286.515 257.105 286.655 257.241 286.842 257.334C287.038 257.427 287.285 257.474 287.584 257.474C287.649 257.474 287.724 257.469 287.808 257.46C287.901 257.451 287.99 257.441 288.074 257.432V259C287.943 259.019 287.794 259.037 287.626 259.056C287.458 259.075 287.304 259.084 287.164 259.084Z" fill="#00000A"/>
<path d="M291.313 253H305.98M305.98 253L300.48 247.5M305.98 253L300.48 258.5" stroke="#00000A" stroke-width="1.5" stroke-linecap="round" stroke-linejoin="round"/>
</svg>
