<svg width="544" height="553" viewBox="0 0 544 553" fill="none" xmlns="http://www.w3.org/2000/svg">
<rect x="206" y="182" width="372.03" height="517" rx="13.973" fill="white"/>
<path d="M224.74 232V216.385H226.794V223.344H234.612V216.385H236.687V232H234.612V225.23H226.794V232H224.74ZM244.658 232.252C243.569 232.252 242.584 232 241.703 231.497C240.823 230.98 240.124 230.274 239.607 229.38C239.09 228.486 238.832 227.473 238.832 226.341C238.832 225.209 239.083 224.203 239.586 223.323C240.103 222.442 240.802 221.744 241.682 221.227C242.563 220.71 243.555 220.451 244.658 220.451C245.748 220.451 246.733 220.71 247.614 221.227C248.494 221.73 249.186 222.422 249.689 223.302C250.206 224.182 250.464 225.195 250.464 226.341C250.464 227.487 250.199 228.507 249.668 229.401C249.137 230.281 248.431 230.98 247.551 231.497C246.685 232 245.72 232.252 244.658 232.252ZM244.658 230.365C245.357 230.365 245.986 230.191 246.545 229.841C247.118 229.492 247.565 229.01 247.886 228.395C248.222 227.78 248.389 227.095 248.389 226.341C248.389 225.572 248.222 224.895 247.886 224.308C247.565 223.707 247.118 223.232 246.545 222.883C245.986 222.519 245.357 222.338 244.658 222.338C243.946 222.338 243.303 222.519 242.73 222.883C242.171 223.232 241.724 223.707 241.389 224.308C241.053 224.895 240.886 225.572 240.886 226.341C240.886 227.095 241.053 227.78 241.389 228.395C241.724 229.01 242.171 229.492 242.73 229.841C243.303 230.191 243.946 230.365 244.658 230.365ZM254.772 232L250.895 220.703H253.053L256.134 230.156L255.38 230.135L258.398 220.703H260.243L263.261 230.135L262.506 230.156L265.608 220.703H267.746L263.868 232H262.003L259.027 222.568H259.614L256.637 232H254.772ZM274.454 232L270.576 220.703H272.735L275.816 230.156L275.061 230.135L278.079 220.703H279.924L282.942 230.135L282.188 230.156L285.29 220.703H287.427L283.55 232H281.685L278.708 222.568H279.295L276.319 232H274.454ZM293.703 232.252C292.613 232.252 291.628 232 290.748 231.497C289.867 230.98 289.169 230.274 288.652 229.38C288.135 228.486 287.876 227.473 287.876 226.341C287.876 225.209 288.128 224.203 288.631 223.323C289.148 222.442 289.846 221.744 290.727 221.227C291.607 220.71 292.599 220.451 293.703 220.451C294.793 220.451 295.778 220.71 296.658 221.227C297.538 221.73 298.23 222.422 298.733 223.302C299.25 224.182 299.509 225.195 299.509 226.341C299.509 227.487 299.243 228.507 298.712 229.401C298.181 230.281 297.476 230.98 296.595 231.497C295.729 232 294.765 232.252 293.703 232.252ZM293.703 230.365C294.401 230.365 295.03 230.191 295.589 229.841C296.162 229.492 296.609 229.01 296.931 228.395C297.266 227.78 297.434 227.095 297.434 226.341C297.434 225.572 297.266 224.895 296.931 224.308C296.609 223.707 296.162 223.232 295.589 222.883C295.03 222.519 294.401 222.338 293.703 222.338C292.99 222.338 292.347 222.519 291.775 222.883C291.216 223.232 290.768 223.707 290.433 224.308C290.098 224.895 289.93 225.572 289.93 226.341C289.93 227.095 290.098 227.78 290.433 228.395C290.768 229.01 291.216 229.492 291.775 229.841C292.347 230.191 292.99 230.365 293.703 230.365ZM305.425 232.252C304.615 232.252 303.881 232.063 303.225 231.686C302.582 231.308 302.079 230.784 301.716 230.114C301.366 229.429 301.192 228.646 301.192 227.766V220.703H303.141V227.557C303.141 228.116 303.253 228.605 303.476 229.024C303.714 229.443 304.035 229.771 304.44 230.009C304.859 230.246 305.335 230.365 305.866 230.365C306.396 230.365 306.865 230.246 307.27 230.009C307.689 229.771 308.01 229.429 308.234 228.982C308.471 228.535 308.59 228.004 308.59 227.389V220.703H310.56V232H308.653V229.799L308.968 229.988C308.702 230.701 308.248 231.259 307.605 231.665C306.976 232.056 306.25 232.252 305.425 232.252ZM312.951 232V216.134H314.901V232H312.951ZM322.432 232.252C321.37 232.252 320.412 231.993 319.56 231.476C318.722 230.959 318.058 230.253 317.569 229.359C317.08 228.465 316.835 227.466 316.835 226.362C316.835 225.23 317.08 224.224 317.569 223.344C318.058 222.449 318.722 221.744 319.56 221.227C320.412 220.71 321.37 220.451 322.432 220.451C323.368 220.451 324.199 220.654 324.926 221.059C325.652 221.45 326.225 221.981 326.644 222.652L326.33 223.134V216.134H328.3V232H326.393V229.59L326.644 229.925C326.253 230.666 325.68 231.238 324.926 231.644C324.185 232.049 323.354 232.252 322.432 232.252ZM322.599 230.365C323.312 230.365 323.948 230.191 324.506 229.841C325.065 229.492 325.506 229.017 325.827 228.416C326.162 227.801 326.33 227.116 326.33 226.362C326.33 225.593 326.162 224.909 325.827 224.308C325.506 223.693 325.065 223.211 324.506 222.862C323.948 222.512 323.312 222.338 322.599 222.338C321.901 222.338 321.265 222.519 320.692 222.883C320.133 223.232 319.693 223.707 319.371 224.308C319.05 224.895 318.889 225.579 318.889 226.362C318.889 227.116 319.05 227.801 319.371 228.416C319.693 229.017 320.133 229.492 320.692 229.841C321.251 230.191 321.887 230.365 322.599 230.365ZM334.29 236.611C334.039 236.611 333.787 236.59 333.536 236.548C333.284 236.506 333.047 236.436 332.823 236.339V234.599C332.977 234.627 333.165 234.655 333.389 234.683C333.627 234.725 333.857 234.746 334.081 234.746C334.737 234.746 335.233 234.599 335.569 234.306C335.918 234.026 336.247 233.537 336.554 232.838L337.267 231.141L337.225 232.838L332.404 220.703H334.521L338.273 230.344H337.644L341.375 220.703H343.533L338.44 233.341C338.203 233.942 337.895 234.487 337.518 234.976C337.155 235.479 336.708 235.877 336.177 236.171C335.646 236.464 335.017 236.611 334.29 236.611ZM349.8 232.252C348.71 232.252 347.725 232 346.844 231.497C345.964 230.98 345.265 230.274 344.748 229.38C344.231 228.486 343.973 227.473 343.973 226.341C343.973 225.209 344.224 224.203 344.727 223.323C345.244 222.442 345.943 221.744 346.823 221.227C347.704 220.71 348.696 220.451 349.8 220.451C350.89 220.451 351.875 220.71 352.755 221.227C353.635 221.73 354.327 222.422 354.83 223.302C355.347 224.182 355.605 225.195 355.605 226.341C355.605 227.487 355.34 228.507 354.809 229.401C354.278 230.281 353.572 230.98 352.692 231.497C351.826 232 350.862 232.252 349.8 232.252ZM349.8 230.365C350.498 230.365 351.127 230.191 351.686 229.841C352.259 229.492 352.706 229.01 353.027 228.395C353.363 227.78 353.53 227.095 353.53 226.341C353.53 225.572 353.363 224.895 353.027 224.308C352.706 223.707 352.259 223.232 351.686 222.883C351.127 222.519 350.498 222.338 349.8 222.338C349.087 222.338 348.444 222.519 347.871 222.883C347.312 223.232 346.865 223.707 346.53 224.308C346.195 224.895 346.027 225.572 346.027 226.341C346.027 227.095 346.195 227.78 346.53 228.395C346.865 229.01 347.312 229.492 347.871 229.841C348.444 230.191 349.087 230.365 349.8 230.365ZM361.522 232.252C360.712 232.252 359.978 232.063 359.321 231.686C358.679 231.308 358.176 230.784 357.812 230.114C357.463 229.429 357.288 228.646 357.288 227.766V220.703H359.238V227.557C359.238 228.116 359.349 228.605 359.573 229.024C359.811 229.443 360.132 229.771 360.537 230.009C360.956 230.246 361.431 230.365 361.962 230.365C362.493 230.365 362.961 230.246 363.367 230.009C363.786 229.771 364.107 229.429 364.331 228.982C364.568 228.535 364.687 228.004 364.687 227.389V220.703H366.657V232H364.75V229.799L365.064 229.988C364.799 230.701 364.345 231.259 363.702 231.665C363.073 232.056 362.347 232.252 361.522 232.252ZM372.042 232V216.134H373.992V232H372.042ZM376.387 232V220.703H378.337V232H376.387ZM376.387 218.9V216.385H378.337V218.9H376.387ZM380.732 232V216.134H382.682V227.012L381.885 226.823L387.88 220.703H390.374L386.035 225.251L390.667 232H388.362L384.128 225.88L385.343 225.817L382.053 229.254L382.682 227.829V232H380.732ZM396.784 232.252C395.694 232.252 394.723 231.993 393.871 231.476C393.018 230.959 392.348 230.253 391.859 229.359C391.37 228.451 391.125 227.438 391.125 226.32C391.125 225.188 391.363 224.182 391.838 223.302C392.327 222.422 392.984 221.73 393.808 221.227C394.646 220.71 395.583 220.451 396.617 220.451C397.455 220.451 398.195 220.605 398.838 220.912C399.495 221.206 400.047 221.611 400.494 222.128C400.955 222.631 401.304 223.211 401.542 223.868C401.794 224.51 401.919 225.181 401.919 225.88C401.919 226.034 401.905 226.208 401.877 226.404C401.863 226.585 401.842 226.76 401.814 226.928H392.55V225.251H400.683L399.76 226.006C399.886 225.279 399.816 224.629 399.551 224.056C399.285 223.483 398.894 223.029 398.377 222.694C397.86 222.359 397.273 222.191 396.617 222.191C395.96 222.191 395.359 222.359 394.814 222.694C394.269 223.029 393.843 223.511 393.535 224.14C393.242 224.755 393.123 225.489 393.179 226.341C393.123 227.165 393.249 227.892 393.556 228.521C393.878 229.136 394.325 229.618 394.898 229.967C395.485 230.302 396.12 230.47 396.805 230.47C397.56 230.47 398.195 230.295 398.712 229.946C399.229 229.597 399.649 229.15 399.97 228.605L401.605 229.443C401.381 229.96 401.032 230.435 400.557 230.868C400.096 231.287 399.544 231.623 398.901 231.874C398.272 232.126 397.567 232.252 396.784 232.252ZM411.416 232.126C410.312 232.126 409.46 231.811 408.859 231.183C408.272 230.554 407.979 229.667 407.979 228.521V222.568H405.925V220.703H406.344C406.847 220.703 407.245 220.549 407.539 220.242C407.832 219.934 407.979 219.529 407.979 219.026V218.104H409.928V220.703H412.464V222.568H409.928V228.458C409.928 228.835 409.984 229.163 410.096 229.443C410.221 229.722 410.424 229.946 410.704 230.114C410.983 230.267 411.353 230.344 411.814 230.344C411.912 230.344 412.031 230.337 412.171 230.323C412.324 230.309 412.464 230.295 412.59 230.281V232C412.408 232.042 412.206 232.07 411.982 232.084C411.759 232.112 411.57 232.126 411.416 232.126ZM419.566 232.252C418.476 232.252 417.491 232 416.611 231.497C415.73 230.98 415.032 230.274 414.515 229.38C413.998 228.486 413.739 227.473 413.739 226.341C413.739 225.209 413.991 224.203 414.494 223.323C415.011 222.442 415.709 221.744 416.59 221.227C417.47 220.71 418.462 220.451 419.566 220.451C420.656 220.451 421.641 220.71 422.521 221.227C423.402 221.73 424.093 222.422 424.596 223.302C425.113 224.182 425.372 225.195 425.372 226.341C425.372 227.487 425.106 228.507 424.575 229.401C424.044 230.281 423.339 230.98 422.458 231.497C421.592 232 420.628 232.252 419.566 232.252ZM419.566 230.365C420.265 230.365 420.893 230.191 421.452 229.841C422.025 229.492 422.472 229.01 422.794 228.395C423.129 227.78 423.297 227.095 423.297 226.341C423.297 225.572 423.129 224.895 422.794 224.308C422.472 223.707 422.025 223.232 421.452 222.883C420.893 222.519 420.265 222.338 419.566 222.338C418.853 222.338 418.211 222.519 417.638 222.883C417.079 223.232 416.632 223.707 416.296 224.308C415.961 224.895 415.793 225.572 415.793 226.341C415.793 227.095 415.961 227.78 416.296 228.395C416.632 229.01 417.079 229.492 417.638 229.841C418.211 230.191 418.853 230.365 419.566 230.365ZM430.51 232V216.385H436.022C437.056 216.385 437.965 216.581 438.747 216.972C439.529 217.363 440.137 217.922 440.57 218.649C441.018 219.375 441.241 220.228 441.241 221.206C441.241 222.184 441.018 223.036 440.57 223.763C440.137 224.476 439.529 225.034 438.747 225.44C437.978 225.831 437.07 226.027 436.022 226.027H432.564V232H430.51ZM432.564 224.14H436.085C436.714 224.14 437.259 224.021 437.72 223.784C438.181 223.546 438.537 223.204 438.789 222.757C439.04 222.31 439.166 221.793 439.166 221.206C439.166 220.605 439.04 220.088 438.789 219.655C438.537 219.208 438.181 218.865 437.72 218.628C437.259 218.39 436.714 218.272 436.085 218.272H432.564V224.14ZM445.693 232.252C444.953 232.252 444.296 232.119 443.723 231.853C443.164 231.574 442.724 231.197 442.403 230.721C442.081 230.232 441.921 229.674 441.921 229.045C441.921 228.444 442.046 227.906 442.298 227.431C442.563 226.942 442.969 226.53 443.514 226.194C444.073 225.859 444.771 225.621 445.61 225.482L449.801 224.79V226.425L446.05 227.054C445.323 227.179 444.792 227.41 444.457 227.745C444.135 228.081 443.975 228.493 443.975 228.982C443.975 229.443 444.156 229.827 444.52 230.135C444.897 230.442 445.365 230.596 445.924 230.596C446.637 230.596 447.251 230.449 447.768 230.156C448.299 229.848 448.712 229.436 449.005 228.919C449.312 228.402 449.466 227.829 449.466 227.2V224.329C449.466 223.714 449.236 223.218 448.774 222.841C448.327 222.449 447.733 222.254 446.993 222.254C446.35 222.254 445.777 222.422 445.274 222.757C444.785 223.078 444.422 223.511 444.184 224.056L442.487 223.176C442.696 222.659 443.032 222.198 443.493 221.793C443.954 221.374 444.492 221.045 445.107 220.808C445.721 220.57 446.364 220.451 447.035 220.451C447.901 220.451 448.663 220.619 449.319 220.954C449.976 221.276 450.486 221.73 450.849 222.317C451.227 222.89 451.415 223.56 451.415 224.329V232H449.508V229.862L449.864 229.988C449.627 230.435 449.305 230.826 448.9 231.162C448.495 231.497 448.02 231.762 447.475 231.958C446.93 232.154 446.336 232.252 445.693 232.252ZM454.417 236.611C454.165 236.611 453.914 236.59 453.662 236.548C453.411 236.506 453.173 236.436 452.949 236.339V234.599C453.103 234.627 453.292 234.655 453.515 234.683C453.753 234.725 453.983 234.746 454.207 234.746C454.864 234.746 455.36 234.599 455.695 234.306C456.045 234.026 456.373 233.537 456.68 232.838L457.393 231.141L457.351 232.838L452.53 220.703H454.647L458.399 230.344H457.77L461.501 220.703H463.66L458.567 233.341C458.329 233.942 458.022 234.487 457.644 234.976C457.281 235.479 456.834 235.877 456.303 236.171C455.772 236.464 455.143 236.611 454.417 236.611ZM224.74 262V246.385H229.854C231.433 246.385 232.809 246.707 233.983 247.349C235.156 247.992 236.065 248.9 236.707 250.074C237.35 251.234 237.672 252.603 237.672 254.182C237.672 255.747 237.35 257.116 236.707 258.29C236.065 259.464 235.156 260.379 233.983 261.036C232.809 261.679 231.433 262 229.854 262H224.74ZM226.794 260.114H229.875C231.034 260.114 232.034 259.869 232.872 259.38C233.724 258.891 234.381 258.206 234.842 257.326C235.303 256.432 235.534 255.384 235.534 254.182C235.534 252.966 235.296 251.919 234.821 251.038C234.36 250.158 233.703 249.48 232.851 249.005C232.013 248.516 231.02 248.272 229.875 248.272H226.794V260.114ZM244.614 262.252C243.524 262.252 242.553 261.993 241.7 261.476C240.848 260.959 240.177 260.253 239.688 259.359C239.199 258.451 238.955 257.438 238.955 256.32C238.955 255.188 239.192 254.182 239.667 253.302C240.156 252.422 240.813 251.73 241.637 251.227C242.476 250.71 243.412 250.451 244.446 250.451C245.284 250.451 246.025 250.605 246.668 250.912C247.324 251.206 247.876 251.611 248.323 252.128C248.785 252.631 249.134 253.211 249.371 253.868C249.623 254.51 249.749 255.181 249.749 255.88C249.749 256.034 249.735 256.208 249.707 256.404C249.693 256.585 249.672 256.76 249.644 256.928H240.38V255.251H248.512L247.59 256.006C247.716 255.279 247.646 254.629 247.38 254.056C247.115 253.483 246.724 253.029 246.207 252.694C245.69 252.359 245.103 252.191 244.446 252.191C243.789 252.191 243.188 252.359 242.643 252.694C242.098 253.029 241.672 253.511 241.365 254.14C241.071 254.755 240.953 255.489 241.009 256.341C240.953 257.165 241.078 257.892 241.386 258.521C241.707 259.136 242.154 259.618 242.727 259.967C243.314 260.302 243.95 260.47 244.635 260.47C245.389 260.47 246.025 260.295 246.542 259.946C247.059 259.597 247.478 259.15 247.799 258.605L249.434 259.443C249.211 259.96 248.861 260.435 248.386 260.868C247.925 261.287 247.373 261.623 246.731 261.874C246.102 262.126 245.396 262.252 244.614 262.252ZM251.661 262V250.703H253.569V253.008L253.296 252.652C253.576 251.939 254.023 251.395 254.638 251.017C255.252 250.64 255.944 250.451 256.713 250.451C257.593 250.451 258.382 250.696 259.081 251.185C259.794 251.674 260.283 252.317 260.548 253.113L260.003 253.134C260.297 252.254 260.793 251.59 261.491 251.143C262.19 250.682 262.966 250.451 263.818 250.451C264.6 250.451 265.306 250.633 265.935 250.996C266.578 251.36 267.088 251.863 267.465 252.505C267.842 253.148 268.031 253.875 268.031 254.685V262H266.061V255.314C266.061 254.685 265.949 254.154 265.725 253.721C265.502 253.288 265.194 252.953 264.803 252.715C264.426 252.463 263.979 252.338 263.462 252.338C262.959 252.338 262.504 252.463 262.099 252.715C261.708 252.953 261.394 253.295 261.156 253.742C260.932 254.175 260.821 254.699 260.821 255.314V262H258.85V255.314C258.85 254.685 258.739 254.154 258.515 253.721C258.292 253.288 257.984 252.953 257.593 252.715C257.216 252.463 256.769 252.338 256.252 252.338C255.748 252.338 255.294 252.463 254.889 252.715C254.498 252.953 254.184 253.295 253.946 253.742C253.722 254.175 253.611 254.699 253.611 255.314V262H251.661ZM270.17 262V250.703H272.12V262H270.17ZM270.17 248.9V246.385H272.12V248.9H270.17ZM274.515 262V246.134H276.465V262H274.515ZM282.172 262.252C281.431 262.252 280.775 262.119 280.202 261.853C279.643 261.574 279.203 261.197 278.881 260.721C278.56 260.232 278.399 259.674 278.399 259.045C278.399 258.444 278.525 257.906 278.777 257.431C279.042 256.942 279.447 256.53 279.992 256.194C280.551 255.859 281.25 255.621 282.088 255.482L286.28 254.79V256.425L282.528 257.054C281.802 257.179 281.271 257.41 280.935 257.745C280.614 258.081 280.453 258.493 280.453 258.982C280.453 259.443 280.635 259.827 280.998 260.135C281.376 260.442 281.844 260.596 282.403 260.596C283.115 260.596 283.73 260.449 284.247 260.156C284.778 259.848 285.19 259.436 285.484 258.919C285.791 258.402 285.945 257.829 285.945 257.2V254.329C285.945 253.714 285.714 253.218 285.253 252.841C284.806 252.449 284.212 252.254 283.471 252.254C282.829 252.254 282.256 252.422 281.753 252.757C281.264 253.078 280.9 253.511 280.663 254.056L278.965 253.176C279.175 252.659 279.51 252.198 279.971 251.793C280.432 251.374 280.97 251.045 281.585 250.808C282.2 250.57 282.843 250.451 283.513 250.451C284.38 250.451 285.141 250.619 285.798 250.954C286.455 251.276 286.965 251.73 287.328 252.317C287.705 252.89 287.894 253.56 287.894 254.329V262H285.987V259.862L286.343 259.988C286.105 260.435 285.784 260.826 285.379 261.162C284.974 261.497 284.498 261.762 283.954 261.958C283.409 262.154 282.815 262.252 282.172 262.252ZM295.422 262.252C294.361 262.252 293.403 261.993 292.551 261.476C291.713 260.959 291.049 260.253 290.56 259.359C290.071 258.465 289.826 257.466 289.826 256.362C289.826 255.23 290.071 254.224 290.56 253.344C291.049 252.449 291.713 251.744 292.551 251.227C293.403 250.71 294.361 250.451 295.422 250.451C296.359 250.451 297.19 250.654 297.917 251.059C298.643 251.45 299.216 251.981 299.635 252.652L299.321 253.134V246.134H301.291V262H299.384V259.59L299.635 259.925C299.244 260.666 298.671 261.238 297.917 261.644C297.176 262.049 296.345 262.252 295.422 262.252ZM295.59 260.365C296.303 260.365 296.939 260.191 297.497 259.841C298.056 259.492 298.497 259.017 298.818 258.416C299.153 257.801 299.321 257.116 299.321 256.362C299.321 255.593 299.153 254.909 298.818 254.308C298.497 253.693 298.056 253.211 297.497 252.862C296.939 252.512 296.303 252.338 295.59 252.338C294.891 252.338 294.256 252.519 293.683 252.883C293.124 253.232 292.684 253.707 292.362 254.308C292.041 254.895 291.88 255.579 291.88 256.362C291.88 257.116 292.041 257.801 292.362 258.416C292.684 259.017 293.124 259.492 293.683 259.841C294.242 260.191 294.878 260.365 295.59 260.365ZM308.877 262.252C307.787 262.252 306.816 261.993 305.964 261.476C305.112 260.959 304.441 260.253 303.952 259.359C303.463 258.451 303.218 257.438 303.218 256.32C303.218 255.188 303.456 254.182 303.931 253.302C304.42 252.422 305.077 251.73 305.901 251.227C306.739 250.71 307.676 250.451 308.71 250.451C309.548 250.451 310.289 250.605 310.931 250.912C311.588 251.206 312.14 251.611 312.587 252.128C313.048 252.631 313.398 253.211 313.635 253.868C313.887 254.51 314.012 255.181 314.012 255.88C314.012 256.034 313.998 256.208 313.97 256.404C313.956 256.585 313.936 256.76 313.908 256.928H304.643V255.251H312.776L311.854 256.006C311.979 255.279 311.909 254.629 311.644 254.056C311.378 253.483 310.987 253.029 310.47 252.694C309.953 252.359 309.366 252.191 308.71 252.191C308.053 252.191 307.452 252.359 306.907 252.694C306.362 253.029 305.936 253.511 305.629 254.14C305.335 254.755 305.216 255.489 305.272 256.341C305.216 257.165 305.342 257.892 305.65 258.521C305.971 259.136 306.418 259.618 306.991 259.967C307.578 260.302 308.214 260.47 308.898 260.47C309.653 260.47 310.289 260.295 310.806 259.946C311.323 259.597 311.742 259.15 312.063 258.605L313.698 259.443C313.474 259.96 313.125 260.435 312.65 260.868C312.189 261.287 311.637 261.623 310.994 261.874C310.365 262.126 309.66 262.252 308.877 262.252ZM319.15 262V246.385H329.315V248.272H321.204V253.218H328.896V255.104H321.204V260.114H329.315V262H319.15ZM331.001 262V250.703H332.908V252.904L332.594 252.715C332.874 252.002 333.321 251.45 333.935 251.059C334.564 250.654 335.298 250.451 336.136 250.451C336.947 250.451 337.666 250.633 338.295 250.996C338.938 251.36 339.441 251.863 339.804 252.505C340.181 253.148 340.37 253.875 340.37 254.685V262H338.4V255.314C338.4 254.685 338.288 254.154 338.064 253.721C337.841 253.288 337.52 252.953 337.1 252.715C336.695 252.463 336.227 252.338 335.696 252.338C335.165 252.338 334.69 252.463 334.271 252.715C333.866 252.953 333.544 253.295 333.307 253.742C333.069 254.175 332.95 254.699 332.95 255.314V262H331.001ZM347.121 262.126C346.017 262.126 345.164 261.811 344.564 261.183C343.977 260.554 343.683 259.667 343.683 258.521V252.568H341.629V250.703H342.048C342.551 250.703 342.95 250.549 343.243 250.242C343.537 249.934 343.683 249.529 343.683 249.026V248.104H345.632V250.703H348.169V252.568H345.632V258.458C345.632 258.835 345.688 259.163 345.8 259.443C345.926 259.722 346.129 259.946 346.408 260.114C346.687 260.267 347.058 260.344 347.519 260.344C347.617 260.344 347.735 260.337 347.875 260.323C348.029 260.309 348.169 260.295 348.294 260.281V262C348.113 262.042 347.91 262.07 347.687 262.084C347.463 262.112 347.274 262.126 347.121 262.126ZM355.103 262.252C354.013 262.252 353.042 261.993 352.189 261.476C351.337 260.959 350.666 260.253 350.177 259.359C349.688 258.451 349.444 257.438 349.444 256.32C349.444 255.188 349.681 254.182 350.156 253.302C350.645 252.422 351.302 251.73 352.126 251.227C352.965 250.71 353.901 250.451 354.935 250.451C355.773 250.451 356.514 250.605 357.157 250.912C357.813 251.206 358.365 251.611 358.813 252.128C359.274 252.631 359.623 253.211 359.861 253.868C360.112 254.51 360.238 255.181 360.238 255.88C360.238 256.034 360.224 256.208 360.196 256.404C360.182 256.585 360.161 256.76 360.133 256.928H350.869V255.251H359.001L358.079 256.006C358.205 255.279 358.135 254.629 357.869 254.056C357.604 253.483 357.213 253.029 356.696 252.694C356.179 252.359 355.592 252.191 354.935 252.191C354.278 252.191 353.677 252.359 353.133 252.694C352.588 253.029 352.161 253.511 351.854 254.14C351.561 254.755 351.442 255.489 351.498 256.341C351.442 257.165 351.568 257.892 351.875 258.521C352.196 259.136 352.643 259.618 353.216 259.967C353.803 260.302 354.439 260.47 355.124 260.47C355.878 260.47 356.514 260.295 357.031 259.946C357.548 259.597 357.967 259.15 358.289 258.605L359.923 259.443C359.7 259.96 359.35 260.435 358.875 260.868C358.414 261.287 357.862 261.623 357.22 261.874C356.591 262.126 355.885 262.252 355.103 262.252ZM362.15 262V250.703H364.058V252.778L363.848 252.484C364.114 251.842 364.519 251.367 365.064 251.059C365.609 250.738 366.273 250.577 367.055 250.577H367.747V252.422H366.762C365.965 252.422 365.322 252.673 364.833 253.176C364.344 253.665 364.1 254.364 364.1 255.272V262H362.15ZM368.849 266.192V250.703H370.757V253.134L370.505 252.652C370.924 251.981 371.497 251.45 372.224 251.059C372.95 250.654 373.782 250.451 374.718 250.451C375.78 250.451 376.73 250.71 377.568 251.227C378.421 251.744 379.092 252.449 379.581 253.344C380.07 254.224 380.314 255.23 380.314 256.362C380.314 257.466 380.07 258.465 379.581 259.359C379.092 260.253 378.421 260.959 377.568 261.476C376.73 261.993 375.773 262.252 374.697 262.252C373.789 262.252 372.957 262.049 372.203 261.644C371.462 261.238 370.889 260.666 370.484 259.925L370.799 259.59V266.192H368.849ZM374.55 260.365C375.263 260.365 375.899 260.191 376.458 259.841C377.017 259.492 377.45 259.017 377.757 258.416C378.078 257.801 378.239 257.116 378.239 256.362C378.239 255.579 378.078 254.895 377.757 254.308C377.45 253.707 377.017 253.232 376.458 252.883C375.899 252.519 375.263 252.338 374.55 252.338C373.838 252.338 373.195 252.512 372.622 252.862C372.063 253.211 371.616 253.693 371.281 254.308C370.959 254.909 370.799 255.593 370.799 256.362C370.799 257.116 370.959 257.801 371.281 258.416C371.616 259.017 372.063 259.492 372.622 259.841C373.195 260.191 373.838 260.365 374.55 260.365ZM382.241 262V250.703H384.149V252.778L383.939 252.484C384.204 251.842 384.61 251.367 385.155 251.059C385.7 250.738 386.363 250.577 387.146 250.577H387.837V252.422H386.852C386.056 252.422 385.413 252.673 384.924 253.176C384.435 253.665 384.191 254.364 384.191 255.272V262H382.241ZM388.94 262V250.703H390.889V262H388.94ZM388.94 248.9V246.385H390.889V248.9H388.94ZM397.33 262.252C396.198 262.252 395.213 261.972 394.375 261.413C393.537 260.854 392.943 260.1 392.593 259.15L394.144 258.395C394.466 259.066 394.906 259.597 395.465 259.988C396.024 260.379 396.646 260.575 397.33 260.575C397.945 260.575 398.455 260.428 398.86 260.135C399.266 259.841 399.468 259.457 399.468 258.982C399.468 258.646 399.37 258.381 399.175 258.185C398.993 257.976 398.77 257.815 398.504 257.703C398.239 257.578 397.994 257.487 397.77 257.431L396.073 256.949C395.053 256.655 394.305 256.236 393.83 255.691C393.369 255.146 393.138 254.51 393.138 253.784C393.138 253.113 393.306 252.533 393.641 252.044C393.991 251.541 394.459 251.15 395.046 250.871C395.647 250.591 396.317 250.451 397.058 250.451C398.05 250.451 398.937 250.703 399.72 251.206C400.516 251.709 401.082 252.415 401.417 253.323L399.824 254.056C399.573 253.47 399.196 253.008 398.693 252.673C398.19 252.324 397.624 252.149 396.995 252.149C396.422 252.149 395.968 252.296 395.633 252.589C395.297 252.869 395.13 253.225 395.13 253.658C395.13 253.98 395.213 254.245 395.381 254.455C395.549 254.65 395.751 254.804 395.989 254.916C396.226 255.014 396.457 255.097 396.681 255.167L398.525 255.712C399.447 255.978 400.16 256.39 400.663 256.949C401.18 257.508 401.438 258.178 401.438 258.961C401.438 259.59 401.264 260.156 400.914 260.659C400.565 261.162 400.083 261.553 399.468 261.832C398.853 262.112 398.141 262.252 397.33 262.252ZM408.559 262.252C407.469 262.252 406.498 261.993 405.646 261.476C404.793 260.959 404.123 260.253 403.634 259.359C403.145 258.451 402.9 257.438 402.9 256.32C402.9 255.188 403.138 254.182 403.613 253.302C404.102 252.422 404.759 251.73 405.583 251.227C406.421 250.71 407.357 250.451 408.391 250.451C409.23 250.451 409.97 250.605 410.613 250.912C411.27 251.206 411.822 251.611 412.269 252.128C412.73 252.631 413.079 253.211 413.317 253.868C413.568 254.51 413.694 255.181 413.694 255.88C413.694 256.034 413.68 256.208 413.652 256.404C413.638 256.585 413.617 256.76 413.589 256.928H404.325V255.251H412.458L411.535 256.006C411.661 255.279 411.591 254.629 411.326 254.056C411.06 253.483 410.669 253.029 410.152 252.694C409.635 252.359 409.048 252.191 408.391 252.191C407.735 252.191 407.134 252.359 406.589 252.694C406.044 253.029 405.618 253.511 405.31 254.14C405.017 254.755 404.898 255.489 404.954 256.341C404.898 257.165 405.024 257.892 405.331 258.521C405.653 259.136 406.1 259.618 406.673 259.967C407.26 260.302 407.895 260.47 408.58 260.47C409.335 260.47 409.97 260.295 410.487 259.946C411.004 259.597 411.424 259.15 411.745 258.605L413.38 259.443C413.156 259.96 412.807 260.435 412.332 260.868C411.871 261.287 411.319 261.623 410.676 261.874C410.047 262.126 409.342 262.252 408.559 262.252ZM419.652 262.252C418.52 262.252 417.535 261.972 416.697 261.413C415.858 260.854 415.265 260.1 414.915 259.15L416.466 258.395C416.788 259.066 417.228 259.597 417.787 259.988C418.346 260.379 418.967 260.575 419.652 260.575C420.267 260.575 420.777 260.428 421.182 260.135C421.587 259.841 421.79 259.457 421.79 258.982C421.79 258.646 421.692 258.381 421.497 258.185C421.315 257.976 421.091 257.815 420.826 257.703C420.56 257.578 420.316 257.487 420.092 257.431L418.395 256.949C417.375 256.655 416.627 256.236 416.152 255.691C415.691 255.146 415.46 254.51 415.46 253.784C415.46 253.113 415.628 252.533 415.963 252.044C416.313 251.541 416.781 251.15 417.368 250.871C417.968 250.591 418.639 250.451 419.38 250.451C420.372 250.451 421.259 250.703 422.041 251.206C422.838 251.709 423.404 252.415 423.739 253.323L422.146 254.056C421.895 253.47 421.518 253.008 421.014 252.673C420.511 252.324 419.946 252.149 419.317 252.149C418.744 252.149 418.29 252.296 417.954 252.589C417.619 252.869 417.451 253.225 417.451 253.658C417.451 253.98 417.535 254.245 417.703 254.455C417.871 254.65 418.073 254.804 418.311 254.916C418.548 255.014 418.779 255.097 419.002 255.167L420.847 255.712C421.769 255.978 422.482 256.39 422.985 256.949C423.502 257.508 423.76 258.178 423.76 258.961C423.76 259.59 423.586 260.156 423.236 260.659C422.887 261.162 422.405 261.553 421.79 261.832C421.175 262.112 420.463 262.252 419.652 262.252ZM427.989 257.431V257.158C427.989 256.53 428.093 255.978 428.303 255.503C428.527 255.014 428.799 254.58 429.12 254.203C429.456 253.812 429.805 253.449 430.168 253.113C430.657 252.624 431.098 252.149 431.489 251.688C431.894 251.227 432.097 250.682 432.097 250.053C432.097 249.69 432.006 249.347 431.824 249.026C431.643 248.705 431.37 248.446 431.007 248.251C430.657 248.055 430.224 247.957 429.707 247.957C428.995 247.957 428.38 248.181 427.863 248.628C427.346 249.075 427.024 249.669 426.899 250.409L425.054 249.99C425.18 249.222 425.452 248.551 425.872 247.978C426.305 247.391 426.85 246.937 427.507 246.616C428.177 246.294 428.918 246.134 429.728 246.134C430.636 246.134 431.419 246.322 432.076 246.7C432.746 247.063 433.263 247.538 433.627 248.125C433.99 248.712 434.172 249.347 434.172 250.032C434.172 250.647 434.046 251.192 433.794 251.667C433.543 252.128 433.221 252.554 432.83 252.946C432.453 253.337 432.076 253.728 431.698 254.119C431.237 254.566 430.832 255.034 430.483 255.524C430.147 255.999 429.98 256.558 429.98 257.2V257.431H427.989ZM428.01 262V259.485H430.043V262H428.01Z" fill="#00000A"/>
<g clip-path="url(#clip0_5_2)">
<rect x="223.772" y="299.023" width="337.098" height="158.069" rx="10.4797" fill="#F8FCFA"/>
<path d="M280.175 333.603V321.892H284.199C284.964 321.892 285.635 322.044 286.211 322.348C286.788 322.641 287.233 323.06 287.548 323.605C287.872 324.14 288.035 324.763 288.035 325.476C288.035 326.189 287.872 326.812 287.548 327.347C287.233 327.881 286.788 328.3 286.211 328.604C285.645 328.898 284.975 329.044 284.199 329.044H281.433V333.603H280.175ZM281.433 327.865H284.262C284.765 327.865 285.205 327.771 285.583 327.582C285.96 327.383 286.253 327.106 286.463 326.749C286.673 326.382 286.777 325.953 286.777 325.46C286.777 324.968 286.673 324.543 286.463 324.187C286.253 323.831 285.96 323.558 285.583 323.37C285.205 323.17 284.765 323.071 284.262 323.071H281.433V327.865ZM291.596 333.792C291.062 333.792 290.585 333.692 290.165 333.493C289.746 333.283 289.416 333 289.175 332.644C288.934 332.288 288.814 331.879 288.814 331.418C288.814 330.978 288.908 330.58 289.097 330.223C289.285 329.857 289.579 329.547 289.977 329.296C290.375 329.044 290.883 328.866 291.502 328.761L294.803 328.211V329.28L291.785 329.783C291.177 329.888 290.737 330.082 290.464 330.365C290.202 330.648 290.071 330.983 290.071 331.371C290.071 331.748 290.218 332.068 290.511 332.33C290.815 332.592 291.203 332.723 291.675 332.723C292.251 332.723 292.754 332.602 293.184 332.361C293.613 332.11 293.949 331.774 294.19 331.355C294.431 330.936 294.551 330.47 294.551 329.956V327.818C294.551 327.315 294.368 326.906 294.001 326.592C293.634 326.278 293.157 326.121 292.571 326.121C292.057 326.121 291.606 326.251 291.219 326.513C290.831 326.765 290.543 327.095 290.354 327.504L289.285 326.922C289.442 326.566 289.689 326.241 290.024 325.948C290.37 325.654 290.763 325.424 291.203 325.256C291.643 325.078 292.099 324.989 292.571 324.989C293.189 324.989 293.734 325.109 294.205 325.35C294.687 325.591 295.06 325.927 295.322 326.356C295.594 326.775 295.73 327.263 295.73 327.818V333.603H294.551V331.921L294.724 332.094C294.577 332.408 294.347 332.697 294.033 332.959C293.729 333.21 293.367 333.414 292.948 333.572C292.539 333.718 292.089 333.792 291.596 333.792ZM298.014 337.061C297.846 337.061 297.673 337.046 297.495 337.014C297.327 336.993 297.16 336.951 296.992 336.888V335.788C297.097 335.799 297.228 335.814 297.385 335.835C297.553 335.867 297.72 335.882 297.888 335.882C298.401 335.882 298.794 335.772 299.067 335.552C299.339 335.343 299.607 334.934 299.869 334.326L300.403 333.069L300.372 334.106L296.803 325.177H298.077L301 332.55H300.67L303.578 325.177H304.883L301.032 334.672C300.864 335.081 300.649 335.468 300.387 335.835C300.136 336.202 299.816 336.495 299.429 336.716C299.041 336.946 298.569 337.061 298.014 337.061ZM311.533 333.697C310.779 333.697 310.197 333.477 309.789 333.037C309.38 332.597 309.176 331.968 309.176 331.151V326.356H307.619V325.177H308.012C308.369 325.177 308.652 325.062 308.861 324.831C309.071 324.59 309.176 324.292 309.176 323.935V323.228H310.354V325.177H312.209V326.356H310.354V331.151C310.354 331.434 310.396 331.685 310.48 331.905C310.564 332.115 310.706 332.283 310.905 332.408C311.114 332.534 311.392 332.597 311.738 332.597C311.822 332.597 311.921 332.592 312.036 332.581C312.152 332.571 312.251 332.56 312.335 332.55V333.603C312.209 333.634 312.068 333.655 311.911 333.666C311.754 333.687 311.628 333.697 311.533 333.697ZM317.73 333.792C316.933 333.792 316.21 333.603 315.56 333.226C314.911 332.838 314.392 332.314 314.004 331.654C313.627 330.983 313.438 330.223 313.438 329.374C313.438 328.536 313.627 327.787 314.004 327.127C314.381 326.466 314.89 325.948 315.529 325.57C316.179 325.183 316.912 324.989 317.73 324.989C318.547 324.989 319.275 325.177 319.915 325.555C320.564 325.932 321.073 326.451 321.439 327.111C321.817 327.771 322.005 328.526 322.005 329.374C322.005 330.234 321.811 330.999 321.424 331.67C321.036 332.33 320.517 332.848 319.867 333.226C319.228 333.603 318.516 333.792 317.73 333.792ZM317.73 332.613C318.295 332.613 318.804 332.471 319.254 332.188C319.715 331.905 320.077 331.518 320.339 331.025C320.611 330.532 320.748 329.982 320.748 329.374C320.748 328.767 320.611 328.222 320.339 327.74C320.077 327.258 319.715 326.875 319.254 326.592C318.804 326.309 318.295 326.168 317.73 326.168C317.164 326.168 316.65 326.309 316.189 326.592C315.738 326.875 315.377 327.258 315.104 327.74C314.832 328.222 314.696 328.767 314.696 329.374C314.696 329.982 314.832 330.532 315.104 331.025C315.377 331.518 315.738 331.905 316.189 332.188C316.65 332.471 317.164 332.613 317.73 332.613ZM326.3 333.603V321.892H331.22C331.88 321.892 332.451 322.018 332.933 322.269C333.426 322.51 333.803 322.851 334.065 323.291C334.338 323.731 334.474 324.245 334.474 324.831C334.474 325.439 334.322 325.979 334.018 326.451C333.725 326.912 333.3 327.263 332.745 327.504L332.729 327.127C333.19 327.294 333.583 327.53 333.908 327.834C334.243 328.138 334.5 328.494 334.678 328.903C334.856 329.301 334.946 329.731 334.946 330.192C334.946 331.24 334.61 332.073 333.94 332.691C333.279 333.299 332.378 333.603 331.236 333.603H326.3ZM327.557 332.424H331.236C331.98 332.424 332.572 332.23 333.012 331.842C333.463 331.444 333.688 330.899 333.688 330.208C333.688 329.526 333.463 328.987 333.012 328.588C332.572 328.18 331.98 327.975 331.236 327.975H327.557V332.424ZM327.557 326.844H331.126C331.754 326.844 332.258 326.66 332.635 326.293C333.023 325.927 333.216 325.455 333.216 324.879C333.216 324.292 333.023 323.846 332.635 323.542C332.258 323.228 331.754 323.071 331.126 323.071H327.557V326.844ZM339.148 333.792C338.614 333.792 338.137 333.692 337.718 333.493C337.299 333.283 336.969 333 336.728 332.644C336.487 332.288 336.366 331.879 336.366 331.418C336.366 330.978 336.46 330.58 336.649 330.223C336.838 329.857 337.131 329.547 337.529 329.296C337.927 329.044 338.436 328.866 339.054 328.761L342.355 328.211V329.28L339.337 329.783C338.729 329.888 338.289 330.082 338.017 330.365C337.755 330.648 337.624 330.983 337.624 331.371C337.624 331.748 337.77 332.068 338.064 332.33C338.368 332.592 338.755 332.723 339.227 332.723C339.803 332.723 340.306 332.602 340.736 332.361C341.166 332.11 341.501 331.774 341.742 331.355C341.983 330.936 342.104 330.47 342.104 329.956V327.818C342.104 327.315 341.92 326.906 341.553 326.592C341.187 326.278 340.71 326.121 340.123 326.121C339.609 326.121 339.159 326.251 338.771 326.513C338.383 326.765 338.095 327.095 337.907 327.504L336.838 326.922C336.995 326.566 337.241 326.241 337.576 325.948C337.922 325.654 338.315 325.424 338.755 325.256C339.196 325.078 339.651 324.989 340.123 324.989C340.741 324.989 341.286 325.109 341.758 325.35C342.24 325.591 342.612 325.927 342.874 326.356C343.146 326.775 343.283 327.263 343.283 327.818V333.603H342.104V331.921L342.277 332.094C342.13 332.408 341.899 332.697 341.585 332.959C341.281 333.21 340.919 333.414 340.5 333.572C340.092 333.718 339.641 333.792 339.148 333.792ZM345.393 333.603V325.177H346.572V326.812L346.305 326.749C346.515 326.204 346.855 325.775 347.327 325.46C347.809 325.146 348.364 324.989 348.993 324.989C349.59 324.989 350.125 325.125 350.596 325.397C351.078 325.67 351.456 326.047 351.728 326.529C352.011 327.001 352.153 327.535 352.153 328.133V333.603H350.974V328.588C350.974 328.075 350.879 327.64 350.691 327.284C350.513 326.927 350.256 326.655 349.92 326.466C349.596 326.267 349.218 326.168 348.789 326.168C348.359 326.168 347.976 326.267 347.641 326.466C347.306 326.655 347.044 326.933 346.855 327.299C346.666 327.656 346.572 328.085 346.572 328.588V333.603H345.393ZM354.09 333.603V321.703H355.269V330.035L354.766 329.956L359.497 325.177H361.022L357.721 328.557L361.321 333.603H359.906L356.526 328.934L357.281 328.997L354.876 331.481L355.269 330.506V333.603H354.09ZM363.707 333.603L367.983 321.892H369.334L373.61 333.603H372.29L371.284 330.742H366.049L365.027 333.603H363.707ZM366.458 329.563H370.843L368.47 322.835H368.847L366.458 329.563ZM378.229 333.792C377.401 333.792 376.673 333.598 376.044 333.21C375.415 332.822 374.922 332.298 374.566 331.638C374.21 330.967 374.032 330.213 374.032 329.374C374.032 328.536 374.21 327.787 374.566 327.127C374.922 326.466 375.415 325.948 376.044 325.57C376.673 325.183 377.401 324.989 378.229 324.989C378.753 324.989 379.245 325.083 379.706 325.272C380.167 325.46 380.576 325.717 380.933 326.042C381.289 326.356 381.556 326.723 381.734 327.142L380.665 327.692C380.456 327.242 380.136 326.875 379.706 326.592C379.277 326.309 378.784 326.168 378.229 326.168C377.673 326.168 377.17 326.309 376.72 326.592C376.28 326.865 375.928 327.247 375.666 327.74C375.415 328.222 375.289 328.772 375.289 329.39C375.289 329.998 375.415 330.548 375.666 331.041C375.928 331.523 376.28 331.905 376.72 332.188C377.17 332.471 377.673 332.613 378.229 332.613C378.784 332.613 379.271 332.471 379.691 332.188C380.12 331.905 380.445 331.528 380.665 331.056L381.734 331.638C381.556 332.047 381.289 332.414 380.933 332.738C380.576 333.063 380.167 333.32 379.706 333.509C379.245 333.697 378.753 333.792 378.229 333.792ZM387.34 333.792C386.512 333.792 385.784 333.598 385.155 333.21C384.526 332.822 384.034 332.298 383.677 331.638C383.321 330.967 383.143 330.213 383.143 329.374C383.143 328.536 383.321 327.787 383.677 327.127C384.034 326.466 384.526 325.948 385.155 325.57C385.784 325.183 386.512 324.989 387.34 324.989C387.864 324.989 388.357 325.083 388.818 325.272C389.279 325.46 389.687 325.717 390.044 326.042C390.4 326.356 390.667 326.723 390.845 327.142L389.777 327.692C389.567 327.242 389.247 326.875 388.818 326.592C388.388 326.309 387.895 326.168 387.34 326.168C386.785 326.168 386.282 326.309 385.831 326.592C385.391 326.865 385.04 327.247 384.778 327.74C384.526 328.222 384.4 328.772 384.4 329.39C384.4 329.998 384.526 330.548 384.778 331.041C385.04 331.523 385.391 331.905 385.831 332.188C386.282 332.471 386.785 332.613 387.34 332.613C387.895 332.613 388.383 332.471 388.802 332.188C389.232 331.905 389.556 331.528 389.777 331.056L390.845 331.638C390.667 332.047 390.4 332.414 390.044 332.738C389.687 333.063 389.279 333.32 388.818 333.509C388.357 333.697 387.864 333.792 387.34 333.792ZM396.546 333.792C395.749 333.792 395.026 333.603 394.376 333.226C393.726 332.838 393.208 332.314 392.82 331.654C392.443 330.983 392.254 330.223 392.254 329.374C392.254 328.536 392.443 327.787 392.82 327.127C393.197 326.466 393.706 325.948 394.345 325.57C394.995 325.183 395.728 324.989 396.546 324.989C397.363 324.989 398.091 325.177 398.731 325.555C399.38 325.932 399.889 326.451 400.255 327.111C400.633 327.771 400.821 328.526 400.821 329.374C400.821 330.234 400.627 330.999 400.24 331.67C399.852 332.33 399.333 332.848 398.683 333.226C398.044 333.603 397.331 333.792 396.546 333.792ZM396.546 332.613C397.111 332.613 397.62 332.471 398.07 332.188C398.531 331.905 398.893 331.518 399.155 331.025C399.427 330.532 399.564 329.982 399.564 329.374C399.564 328.767 399.427 328.222 399.155 327.74C398.893 327.258 398.531 326.875 398.07 326.592C397.62 326.309 397.111 326.168 396.546 326.168C395.98 326.168 395.466 326.309 395.005 326.592C394.554 326.875 394.193 327.258 393.92 327.74C393.648 328.222 393.512 328.767 393.512 329.374C393.512 329.982 393.648 330.532 393.92 331.025C394.193 331.518 394.554 331.905 395.005 332.188C395.466 332.471 395.98 332.613 396.546 332.613ZM405.573 333.792C404.986 333.792 404.452 333.655 403.969 333.383C403.487 333.1 403.105 332.712 402.822 332.22C402.549 331.717 402.413 331.14 402.413 330.491V325.177H403.592V330.349C403.592 330.8 403.681 331.198 403.859 331.544C404.048 331.879 404.305 332.141 404.63 332.33C404.965 332.518 405.348 332.613 405.777 332.613C406.207 332.613 406.589 332.518 406.925 332.33C407.26 332.131 407.522 331.853 407.711 331.497C407.899 331.13 407.994 330.695 407.994 330.192V325.177H409.173V333.603H407.994V331.968L408.261 332.031C408.062 332.576 407.721 333.006 407.239 333.32C406.757 333.634 406.202 333.792 405.573 333.792ZM411.283 333.603V325.177H412.462V326.812L412.195 326.749C412.404 326.204 412.745 325.775 413.216 325.46C413.698 325.146 414.254 324.989 414.883 324.989C415.48 324.989 416.014 325.125 416.486 325.397C416.968 325.67 417.345 326.047 417.618 326.529C417.901 327.001 418.042 327.535 418.042 328.133V333.603H416.863V328.588C416.863 328.075 416.769 327.64 416.58 327.284C416.402 326.927 416.145 326.655 415.81 326.466C415.485 326.267 415.108 326.168 414.678 326.168C414.249 326.168 413.866 326.267 413.531 326.466C413.195 326.655 412.933 326.933 412.745 327.299C412.556 327.656 412.462 328.085 412.462 328.588V333.603H411.283ZM423.202 333.697C422.448 333.697 421.866 333.477 421.457 333.037C421.049 332.597 420.844 331.968 420.844 331.151V326.356H419.288V325.177H419.681C420.037 325.177 420.32 325.062 420.53 324.831C420.739 324.59 420.844 324.292 420.844 323.935V323.228H422.023V325.177H423.878V326.356H422.023V331.151C422.023 331.434 422.065 331.685 422.149 331.905C422.233 332.115 422.374 332.283 422.573 332.408C422.783 332.534 423.061 332.597 423.406 332.597C423.49 332.597 423.59 332.592 423.705 332.581C423.82 332.571 423.92 332.56 424.004 332.55V333.603C423.878 333.634 423.737 333.655 423.579 333.666C423.422 333.687 423.296 333.697 423.202 333.697Z" fill="black"/>
<circle cx="253.463" cy="328.716" r="15.7196" fill="#01C467"/>
<path d="M258.847 335.266C259.254 335.266 259.458 335.266 259.614 335.187C259.751 335.117 259.862 335.006 259.932 334.869C260.011 334.713 260.011 334.509 260.011 334.102V333.519C260.011 333.112 260.011 332.908 259.932 332.752C259.862 332.615 259.751 332.504 259.614 332.434C259.458 332.355 259.254 332.355 258.847 332.355H248.076C247.668 332.355 247.465 332.355 247.309 332.434C247.172 332.504 247.061 332.615 246.991 332.752C246.912 332.908 246.912 333.112 246.912 333.519L246.912 334.102C246.912 334.509 246.912 334.713 246.991 334.869C247.061 335.006 247.172 335.117 247.309 335.187C247.465 335.266 247.668 335.266 248.076 335.266H258.847Z" fill="white"/>
<path d="M258.847 326.533C259.254 326.533 259.458 326.533 259.614 326.454C259.751 326.384 259.862 326.272 259.932 326.136C260.011 325.98 260.011 325.776 260.011 325.368V324.556C260.011 324.223 260.011 324.056 259.952 323.918C259.9 323.797 259.816 323.692 259.709 323.615C259.587 323.528 259.425 323.492 259.099 323.419L253.714 322.222C253.62 322.202 253.573 322.191 253.525 322.187C253.483 322.183 253.44 322.183 253.398 322.187C253.35 322.191 253.303 322.202 253.209 322.222L247.823 323.419C247.498 323.492 247.335 323.528 247.214 323.615C247.107 323.692 247.023 323.797 246.971 323.918C246.912 324.056 246.912 324.223 246.912 324.556L246.912 325.368C246.912 325.776 246.912 325.98 246.991 326.136C247.061 326.272 247.172 326.384 247.309 326.454C247.465 326.533 247.668 326.533 248.076 326.533H258.847Z" fill="white"/>
<path d="M248.367 326.533V332.355M251.642 326.533V332.355M255.281 326.533V332.355M258.556 326.533V332.355M246.912 333.519L246.912 334.102C246.912 334.509 246.912 334.713 246.991 334.869C247.061 335.006 247.172 335.117 247.309 335.187C247.465 335.266 247.668 335.266 248.076 335.266H258.847C259.254 335.266 259.458 335.266 259.614 335.187C259.751 335.117 259.862 335.006 259.932 334.869C260.011 334.713 260.011 334.509 260.011 334.102V333.519C260.011 333.112 260.011 332.908 259.932 332.752C259.862 332.615 259.751 332.504 259.614 332.434C259.458 332.355 259.254 332.355 258.847 332.355H248.076C247.668 332.355 247.465 332.355 247.309 332.434C247.172 332.504 247.061 332.615 246.991 332.752C246.912 332.908 246.912 333.112 246.912 333.519ZM253.209 322.222L247.823 323.419C247.498 323.492 247.335 323.528 247.214 323.615C247.107 323.692 247.023 323.797 246.971 323.918C246.912 324.056 246.912 324.223 246.912 324.556L246.912 325.368C246.912 325.776 246.912 325.98 246.991 326.136C247.061 326.272 247.172 326.384 247.309 326.454C247.465 326.533 247.668 326.533 248.076 326.533H258.847C259.254 326.533 259.458 326.533 259.614 326.454C259.751 326.384 259.862 326.272 259.932 326.136C260.011 325.98 260.011 325.776 260.011 325.368V324.556C260.011 324.223 260.011 324.056 259.952 323.918C259.9 323.797 259.816 323.692 259.709 323.615C259.587 323.528 259.425 323.492 259.099 323.419L253.714 322.222C253.62 322.202 253.573 322.191 253.525 322.187C253.483 322.183 253.44 322.183 253.398 322.187C253.35 322.191 253.303 322.202 253.209 322.222Z" stroke="white" stroke-width="1.04797" stroke-linecap="round" stroke-linejoin="round"/>
<circle cx="539.484" cy="325.298" r="9.38809" stroke="#01C467" stroke-width="1.30997"/>
<circle cx="539.484" cy="325.298" r="6.11318" fill="#01C467"/>
<g filter="url(#filter0_ddd_5_2)">
<rect x="237.749" y="356.662" width="309.152" height="86.4578" rx="8.73311" fill="white"/>
<path d="M251.255 384.748H249.423V383.93H251.193C251.824 383.93 252.346 383.808 252.759 383.566C253.175 383.324 253.486 382.978 253.69 382.527C253.895 382.077 253.997 381.542 253.997 380.921C253.997 380.307 253.897 379.778 253.695 379.334C253.494 378.888 253.192 378.545 252.79 378.306C252.391 378.064 251.893 377.943 251.296 377.943H249.382V377.124H251.357C252.097 377.124 252.73 377.276 253.255 377.579C253.784 377.883 254.188 378.32 254.468 378.889C254.748 379.456 254.888 380.133 254.888 380.921C254.888 381.716 254.746 382.4 254.463 382.973C254.18 383.542 253.767 383.981 253.225 384.288C252.686 384.595 252.029 384.748 251.255 384.748ZM249.822 377.124V384.748H248.901V377.124H249.822ZM256.361 384.748V377.124H260.966V377.943H257.282V380.491H260.721V381.31H257.282V383.93H261.018V384.748H256.361ZM262.552 377.124H263.658L266.247 383.449H266.339L268.928 377.124H270.069V384.748H269.164V378.956H269.092L266.692 384.748H265.863L263.494 378.956H263.422V384.748H262.552V377.124ZM272.766 377.124V384.748H271.844V377.124H272.766ZM274.536 384.748V377.124H275.457V383.93H279.008V384.748H274.536ZM281.157 384.748H280.184L282.989 377.124H283.94L286.734 384.748H285.772L283.49 378.332H283.429L281.157 384.748ZM281.515 381.77H285.414V382.589H281.515V381.77ZM290.203 384.748H288.371V383.93H290.142C290.773 383.93 291.295 383.808 291.708 383.566C292.124 383.324 292.434 382.978 292.639 382.527C292.844 382.077 292.946 381.542 292.946 380.921C292.946 380.307 292.845 379.778 292.644 379.334C292.443 378.888 292.141 378.545 291.738 378.306C291.339 378.064 290.841 377.943 290.244 377.943H288.33V377.124H290.306C291.046 377.124 291.679 377.276 292.204 377.579C292.733 377.883 293.137 378.32 293.417 378.889C293.696 379.456 293.836 380.133 293.836 380.921C293.836 381.716 293.695 382.4 293.412 382.973C293.128 383.542 292.716 383.981 292.173 384.288C291.634 384.595 290.978 384.748 290.203 384.748ZM288.77 377.124V384.748H287.849V377.124H288.77ZM295.31 384.748V377.124H299.915V377.943H296.231V380.491H299.669V381.31H296.231V383.93H299.966V384.748H295.31ZM304.376 384.748V377.124H308.982V377.943H305.297V380.491H308.736V381.31H305.297V383.93H309.033V384.748H304.376ZM316.626 377.124V384.748H315.715L311.57 378.761H311.489V384.748H310.567V377.124H311.458L315.633 383.121H315.705V377.124H316.626ZM317.977 377.943V377.124H323.697V377.943H321.303V384.748H320.382V377.943H317.977ZM325.048 384.748V377.124H329.653V377.943H325.969V380.491H329.408V381.31H325.969V383.93H329.704V384.748H325.048ZM331.239 384.748V377.124H333.818C334.415 377.124 334.903 377.226 335.282 377.431C335.664 377.632 335.947 377.91 336.131 378.265C336.315 378.616 336.407 379.017 336.407 379.467C336.407 379.914 336.315 380.312 336.131 380.66C335.95 381.008 335.669 381.281 335.287 381.478C334.908 381.673 334.422 381.77 333.828 381.77H331.751V380.941H333.798C334.207 380.941 334.536 380.882 334.785 380.762C335.034 380.643 335.215 380.474 335.328 380.256C335.44 380.034 335.497 379.771 335.497 379.467C335.497 379.16 335.439 378.893 335.323 378.664C335.21 378.436 335.029 378.258 334.78 378.132C334.531 378.006 334.2 377.943 333.787 377.943H332.16V384.748H331.239ZM335.63 384.748L333.787 381.32H334.831L336.704 384.748H335.63ZM337.87 384.748V377.124H340.449C341.046 377.124 341.534 377.231 341.913 377.446C342.295 377.661 342.578 377.951 342.762 378.316C342.947 378.681 343.039 379.089 343.039 379.539C343.039 379.986 342.947 380.394 342.762 380.762C342.582 381.131 342.3 381.424 341.918 381.642C341.539 381.857 341.053 381.965 340.46 381.965H338.618V381.146H340.429C340.838 381.146 341.168 381.076 341.417 380.936C341.666 380.796 341.846 380.605 341.959 380.363C342.072 380.117 342.128 379.843 342.128 379.539C342.128 379.232 342.072 378.959 341.959 378.72C341.846 378.478 341.664 378.289 341.411 378.152C341.162 378.013 340.831 377.943 340.419 377.943H338.791V384.748H337.87ZM344.451 384.748V377.124H347.03C347.627 377.124 348.114 377.226 348.493 377.431C348.875 377.632 349.158 377.91 349.342 378.265C349.527 378.616 349.619 379.017 349.619 379.467C349.619 379.914 349.527 380.312 349.342 380.66C349.162 381.008 348.88 381.281 348.498 381.478C348.119 381.673 347.633 381.77 347.04 381.77H344.962V380.941H347.009C347.418 380.941 347.748 380.882 347.997 380.762C348.246 380.643 348.426 380.474 348.539 380.256C348.652 380.034 348.708 379.771 348.708 379.467C348.708 379.16 348.65 378.893 348.534 378.664C348.421 378.436 348.241 378.258 347.992 378.132C347.743 378.006 347.412 377.943 346.999 377.943H345.372V384.748H344.451ZM348.841 384.748L346.999 381.32H348.043L349.916 384.748H348.841ZM352.003 377.124V384.748H351.082V377.124H352.003ZM356.188 384.881C355.642 384.881 355.17 384.794 354.771 384.62C354.372 384.443 354.058 384.197 353.829 383.884C353.604 383.566 353.476 383.2 353.446 382.783H354.397C354.425 383.07 354.522 383.307 354.689 383.495C354.86 383.682 355.076 383.822 355.339 383.914C355.601 384.006 355.885 384.052 356.188 384.052C356.54 384.052 356.855 383.994 357.135 383.878C357.418 383.762 357.641 383.6 357.805 383.392C357.969 383.184 358.051 382.94 358.051 382.661C358.051 382.408 357.979 382.203 357.836 382.046C357.693 381.89 357.505 381.762 357.273 381.663C357.044 381.564 356.795 381.477 356.526 381.402L355.595 381.136C354.998 380.965 354.525 380.721 354.177 380.404C353.833 380.083 353.66 379.665 353.66 379.15C353.66 378.724 353.775 378.352 354.003 378.035C354.235 377.714 354.547 377.465 354.94 377.288C355.335 377.11 355.775 377.022 356.26 377.022C356.751 377.022 357.188 377.11 357.57 377.288C357.952 377.462 358.256 377.7 358.481 378.004C358.706 378.304 358.825 378.645 358.839 379.027H357.938C357.894 378.652 357.713 378.361 357.396 378.152C357.082 377.944 356.693 377.84 356.229 377.84C355.895 377.84 355.601 377.895 355.349 378.004C355.097 378.113 354.9 378.263 354.761 378.454C354.621 378.645 354.551 378.864 354.551 379.109C354.551 379.379 354.634 379.597 354.802 379.764C354.969 379.928 355.167 380.056 355.395 380.148C355.627 380.24 355.837 380.314 356.024 380.368L356.792 380.583C356.99 380.638 357.21 380.711 357.452 380.803C357.698 380.895 357.933 381.02 358.158 381.177C358.387 381.334 358.574 381.535 358.721 381.78C358.868 382.023 358.941 382.323 358.941 382.681C358.941 383.09 358.834 383.462 358.619 383.797C358.404 384.127 358.092 384.392 357.682 384.59C357.273 384.784 356.775 384.881 356.188 384.881ZM360.384 384.748V377.124H364.989V377.943H361.305V380.491H364.744V381.31H361.305V383.93H365.04V384.748H360.384ZM371.477 383.346C371.177 383.346 370.902 383.273 370.653 383.126C370.404 382.979 370.206 382.782 370.059 382.533C369.913 382.284 369.839 382.009 369.839 381.709C369.839 381.405 369.913 381.131 370.059 380.885C370.206 380.636 370.404 380.438 370.653 380.291C370.902 380.145 371.177 380.071 371.477 380.071C371.78 380.071 372.055 380.145 372.301 380.291C372.55 380.438 372.748 380.636 372.894 380.885C373.041 381.131 373.114 381.405 373.114 381.709C373.114 382.009 373.041 382.284 372.894 382.533C372.748 382.782 372.55 382.979 372.301 383.126C372.055 383.273 371.78 383.346 371.477 383.346ZM382.662 377.124H383.583V382.169C383.583 382.691 383.46 383.157 383.214 383.566C382.972 383.972 382.629 384.293 382.186 384.528C381.742 384.764 381.222 384.881 380.625 384.881C380.028 384.881 379.506 384.764 379.059 384.528C378.616 384.293 378.271 383.972 378.026 383.566C377.78 383.157 377.657 382.691 377.657 382.169V377.124H378.578V382.098C378.578 382.469 378.66 382.8 378.824 383.09C378.988 383.38 379.223 383.609 379.53 383.776C379.837 383.94 380.202 384.022 380.625 384.022C381.048 384.022 381.412 383.94 381.715 383.776C382.019 383.609 382.252 383.38 382.416 383.09C382.58 382.8 382.662 382.469 382.662 382.098V377.124ZM385.353 384.748V377.124H388.024C388.553 377.124 388.99 377.216 389.334 377.4C389.679 377.581 389.934 377.825 390.102 378.132C390.272 378.439 390.357 378.778 390.357 379.15C390.357 379.478 390.299 379.749 390.184 379.964C390.068 380.175 389.916 380.344 389.728 380.47C389.54 380.593 389.337 380.685 389.119 380.747V380.818C389.355 380.832 389.59 380.914 389.825 381.064C390.061 381.214 390.257 381.427 390.414 381.704C390.574 381.98 390.654 382.319 390.654 382.722C390.654 383.104 390.567 383.449 390.393 383.756C390.219 384.059 389.945 384.301 389.569 384.482C389.198 384.66 388.71 384.748 388.106 384.748H385.353ZM386.274 383.93H388.106C388.71 383.93 389.138 383.812 389.39 383.576C389.646 383.341 389.774 383.056 389.774 382.722C389.774 382.463 389.708 382.224 389.575 382.006C389.445 381.787 389.259 381.612 389.017 381.478C388.775 381.345 388.488 381.279 388.157 381.279H386.274V383.93ZM386.274 380.481H387.993C388.27 380.481 388.52 380.426 388.746 380.317C388.971 380.204 389.148 380.049 389.278 379.851C389.411 379.65 389.477 379.416 389.477 379.15C389.477 378.816 389.361 378.531 389.129 378.296C388.897 378.06 388.529 377.943 388.024 377.943H386.274V380.481ZM392.414 384.748H391.442L394.246 377.124H395.198L397.992 384.748H397.03L394.748 378.332H394.686L392.414 384.748ZM392.772 381.77H396.672V382.589H392.772V381.77Z" fill="black"/>
<path d="M249.189 414.721V412.562L253.423 408.14C254.262 407.26 254.904 406.561 255.352 406.044C255.813 405.513 256.134 405.059 256.316 404.682C256.497 404.304 256.588 403.92 256.588 403.529C256.588 402.872 256.379 402.355 255.959 401.978C255.554 401.601 255.03 401.412 254.387 401.412C253.717 401.412 253.137 401.608 252.648 401.999C252.159 402.376 251.802 402.935 251.579 403.676L249.085 402.9C249.252 402.076 249.595 401.363 250.112 400.762C250.629 400.147 251.257 399.679 251.998 399.358C252.753 399.023 253.549 398.855 254.387 398.855C255.393 398.855 256.274 399.037 257.028 399.4C257.797 399.763 258.391 400.273 258.81 400.93C259.243 401.587 259.46 402.355 259.46 403.235C259.46 403.794 259.355 404.346 259.145 404.891C258.936 405.436 258.621 405.995 258.202 406.568C257.783 407.127 257.238 407.756 256.567 408.454L252.899 412.311H259.669V414.721H249.189ZM263.938 414.721V401.538H260.92V399.106H266.789V414.721H263.938ZM274.488 414.973C273.635 414.973 272.825 414.819 272.056 414.512C271.302 414.19 270.652 413.743 270.107 413.17C269.576 412.583 269.213 411.892 269.017 411.095L271.511 410.215C271.763 410.928 272.147 411.472 272.664 411.85C273.181 412.213 273.789 412.395 274.488 412.395C275.046 412.395 275.529 412.29 275.934 412.08C276.353 411.871 276.681 411.57 276.919 411.179C277.156 410.774 277.275 410.299 277.275 409.754C277.275 409.209 277.156 408.748 276.919 408.37C276.695 407.979 276.374 407.679 275.955 407.469C275.536 407.26 275.039 407.155 274.467 407.155C274.201 407.155 273.922 407.183 273.628 407.239C273.349 407.295 273.097 407.378 272.874 407.49L272.224 406.128L276.269 401.517H269.897V399.106H279.476V401.349L275.41 406.107L275.452 405.038C276.388 405.052 277.205 405.255 277.904 405.646C278.603 406.037 279.148 406.575 279.539 407.26C279.93 407.944 280.126 408.748 280.126 409.67C280.126 410.676 279.881 411.584 279.392 412.395C278.903 413.191 278.232 413.82 277.38 414.281C276.528 414.742 275.563 414.973 274.488 414.973ZM286.965 414.973C286.141 414.973 285.351 414.819 284.597 414.512C283.856 414.204 283.214 413.771 282.669 413.212C282.138 412.639 281.774 411.962 281.579 411.179L284.052 410.299C284.289 411.011 284.674 411.542 285.205 411.892C285.736 412.227 286.323 412.395 286.965 412.395C287.496 412.395 287.964 412.283 288.37 412.059C288.789 411.822 289.11 411.5 289.334 411.095C289.557 410.676 289.669 410.194 289.669 409.649C289.669 409.104 289.55 408.629 289.313 408.224C289.089 407.819 288.775 407.504 288.37 407.281C287.964 407.043 287.496 406.924 286.965 406.924C286.42 406.924 285.924 407.043 285.477 407.281C285.044 407.518 284.73 407.86 284.534 408.308L282.207 407.784L283.444 399.106H291.954V401.517H284.576L285.645 400.28L284.765 406.819L283.947 406.149C284.338 405.576 284.813 405.157 285.372 404.891C285.945 404.626 286.637 404.493 287.447 404.493C288.481 404.493 289.376 404.717 290.13 405.164C290.899 405.611 291.493 406.219 291.912 406.987C292.331 407.756 292.541 408.643 292.541 409.649C292.541 410.655 292.296 411.563 291.807 412.374C291.318 413.184 290.654 413.82 289.816 414.281C288.977 414.742 288.027 414.973 286.965 414.973ZM299.839 414.973C298.708 414.973 297.722 414.763 296.884 414.344C296.06 413.911 295.417 413.331 294.956 412.604C294.509 411.878 294.285 411.081 294.285 410.215C294.285 409.195 294.558 408.336 295.102 407.637C295.647 406.924 296.437 406.4 297.471 406.065L297.303 406.757C296.563 406.519 295.976 406.058 295.543 405.373C295.123 404.689 294.914 403.934 294.914 403.11C294.914 402.285 295.123 401.552 295.543 400.909C295.962 400.266 296.542 399.763 297.282 399.4C298.023 399.037 298.875 398.855 299.839 398.855C300.789 398.855 301.628 399.037 302.354 399.4C303.095 399.763 303.675 400.266 304.094 400.909C304.527 401.552 304.744 402.285 304.744 403.11C304.744 403.948 304.527 404.71 304.094 405.394C303.675 406.065 303.095 406.526 302.354 406.778L302.208 406.044C303.242 406.407 304.031 406.945 304.576 407.658C305.121 408.357 305.394 409.216 305.394 410.236C305.394 411.102 305.163 411.899 304.702 412.625C304.255 413.338 303.612 413.911 302.774 414.344C301.949 414.763 300.971 414.973 299.839 414.973ZM299.839 412.562C300.384 412.562 300.859 412.465 301.265 412.269C301.67 412.059 301.984 411.773 302.208 411.41C302.431 411.032 302.543 410.606 302.543 410.131C302.543 409.642 302.431 409.223 302.208 408.874C301.984 408.51 301.67 408.231 301.265 408.035C300.859 407.826 300.384 407.721 299.839 407.721C299.294 407.721 298.819 407.826 298.414 408.035C298.023 408.231 297.715 408.51 297.492 408.874C297.268 409.223 297.157 409.642 297.157 410.131C297.157 410.606 297.268 411.032 297.492 411.41C297.715 411.773 298.023 412.059 298.414 412.269C298.819 412.465 299.294 412.562 299.839 412.562ZM299.839 405.31C300.245 405.31 300.601 405.22 300.908 405.038C301.216 404.856 301.453 404.619 301.621 404.325C301.803 404.018 301.893 403.669 301.893 403.277C301.893 402.886 301.803 402.544 301.621 402.25C301.453 401.943 301.216 401.705 300.908 401.538C300.601 401.356 300.245 401.265 299.839 401.265C299.434 401.265 299.071 401.356 298.749 401.538C298.442 401.705 298.197 401.943 298.016 402.25C297.848 402.544 297.764 402.886 297.764 403.277C297.764 403.669 297.848 404.018 298.016 404.325C298.197 404.619 298.442 404.856 298.749 405.038C299.071 405.22 299.434 405.31 299.839 405.31ZM307.549 414.721L314.046 401.517H306.69V399.106H317.044V401.517L310.693 414.721H307.549ZM322.614 414.973C321.552 414.973 320.609 414.749 319.785 414.302C318.974 413.841 318.339 413.226 317.878 412.458C317.416 411.675 317.186 410.788 317.186 409.796C317.186 409.293 317.235 408.79 317.333 408.287C317.444 407.784 317.64 407.246 317.919 406.673C318.213 406.1 318.632 405.464 319.177 404.765L323.537 399.106H326.932L321.629 405.918L321.168 405.415C321.364 405.261 321.566 405.143 321.776 405.059C321.986 404.961 322.195 404.891 322.405 404.849C322.628 404.807 322.859 404.786 323.096 404.786C324.047 404.786 324.892 405.003 325.633 405.436C326.373 405.869 326.953 406.463 327.372 407.218C327.805 407.958 328.022 408.797 328.022 409.733C328.022 410.739 327.791 411.64 327.33 412.437C326.869 413.219 326.226 413.841 325.402 414.302C324.592 414.749 323.662 414.973 322.614 414.973ZM322.614 412.395C323.089 412.395 323.516 412.29 323.893 412.08C324.284 411.857 324.592 411.542 324.815 411.137C325.053 410.732 325.171 410.278 325.171 409.775C325.171 409.244 325.053 408.79 324.815 408.412C324.592 408.021 324.291 407.714 323.914 407.49C323.537 407.267 323.103 407.155 322.614 407.155C322.139 407.155 321.706 407.267 321.315 407.49C320.924 407.714 320.609 408.021 320.372 408.412C320.148 408.79 320.036 409.244 320.036 409.775C320.036 410.278 320.148 410.732 320.372 411.137C320.609 411.542 320.924 411.857 321.315 412.08C321.706 412.29 322.139 412.395 322.614 412.395ZM332.1 414.721V401.538H329.082V399.106H334.95V414.721H332.1ZM340.134 414.721V401.538H337.116V399.106H342.985V414.721H340.134ZM351.165 414.973C350.034 414.973 349.049 414.763 348.21 414.344C347.386 413.911 346.743 413.331 346.282 412.604C345.835 411.878 345.611 411.081 345.611 410.215C345.611 409.195 345.884 408.336 346.429 407.637C346.974 406.924 347.763 406.4 348.797 406.065L348.629 406.757C347.889 406.519 347.302 406.058 346.869 405.373C346.45 404.689 346.24 403.934 346.24 403.11C346.24 402.285 346.45 401.552 346.869 400.909C347.288 400.266 347.868 399.763 348.608 399.4C349.349 399.037 350.201 398.855 351.165 398.855C352.116 398.855 352.954 399.037 353.681 399.4C354.421 399.763 355.001 400.266 355.42 400.909C355.853 401.552 356.07 402.285 356.07 403.11C356.07 403.948 355.853 404.71 355.42 405.394C355.001 406.065 354.421 406.526 353.681 406.778L353.534 406.044C354.568 406.407 355.357 406.945 355.902 407.658C356.447 408.357 356.72 409.216 356.72 410.236C356.72 411.102 356.489 411.899 356.028 412.625C355.581 413.338 354.938 413.911 354.1 414.344C353.275 414.763 352.297 414.973 351.165 414.973ZM351.165 412.562C351.71 412.562 352.185 412.465 352.591 412.269C352.996 412.059 353.31 411.773 353.534 411.41C353.757 411.032 353.869 410.606 353.869 410.131C353.869 409.642 353.757 409.223 353.534 408.874C353.31 408.51 352.996 408.231 352.591 408.035C352.185 407.826 351.71 407.721 351.165 407.721C350.62 407.721 350.145 407.826 349.74 408.035C349.349 408.231 349.042 408.51 348.818 408.874C348.594 409.223 348.483 409.642 348.483 410.131C348.483 410.606 348.594 411.032 348.818 411.41C349.042 411.773 349.349 412.059 349.74 412.269C350.145 412.465 350.62 412.562 351.165 412.562ZM351.165 405.31C351.571 405.31 351.927 405.22 352.234 405.038C352.542 404.856 352.779 404.619 352.947 404.325C353.129 404.018 353.219 403.669 353.219 403.277C353.219 402.886 353.129 402.544 352.947 402.25C352.779 401.943 352.542 401.705 352.234 401.538C351.927 401.356 351.571 401.265 351.165 401.265C350.76 401.265 350.397 401.356 350.076 401.538C349.768 401.705 349.524 401.943 349.342 402.25C349.174 402.544 349.09 402.886 349.09 403.277C349.09 403.669 349.174 404.018 349.342 404.325C349.524 404.619 349.768 404.856 350.076 405.038C350.397 405.22 350.76 405.31 351.165 405.31Z" fill="black"/>
</g>
</g>
<rect x="222.899" y="298.15" width="338.845" height="159.816" rx="11.353" stroke="#01C467" stroke-width="1.74662"/>
<rect x="223.336" y="474.122" width="337.971" height="60.2584" rx="10.9164" fill="white"/>
<rect x="223.336" y="474.122" width="337.971" height="60.2584" rx="10.9164" stroke="#E5E5E6" stroke-width="0.873311"/>
<path d="M280.175 509.138V497.427H284.199C284.964 497.427 285.635 497.579 286.211 497.883C286.788 498.177 287.233 498.596 287.548 499.141C287.872 499.675 288.035 500.299 288.035 501.011C288.035 501.724 287.872 502.348 287.548 502.882C287.233 503.416 286.788 503.836 286.211 504.14C285.645 504.433 284.975 504.58 284.199 504.58H281.433V509.138H280.175ZM281.433 503.401H284.262C284.765 503.401 285.205 503.306 285.583 503.118C285.96 502.919 286.253 502.641 286.463 502.285C286.673 501.918 286.777 501.488 286.777 500.996C286.777 500.503 286.673 500.079 286.463 499.722C286.253 499.366 285.96 499.094 285.583 498.905C285.205 498.706 284.765 498.606 284.262 498.606H281.433V503.401ZM291.596 509.327C291.062 509.327 290.585 509.228 290.165 509.028C289.746 508.819 289.416 508.536 289.175 508.18C288.934 507.823 288.814 507.415 288.814 506.953C288.814 506.513 288.908 506.115 289.097 505.759C289.285 505.392 289.579 505.083 289.977 504.831C290.375 504.58 290.883 504.402 291.502 504.297L294.803 503.747V504.816L291.785 505.319C291.177 505.423 290.737 505.617 290.464 505.9C290.202 506.183 290.071 506.518 290.071 506.906C290.071 507.284 290.218 507.603 290.511 507.865C290.815 508.127 291.203 508.258 291.675 508.258C292.251 508.258 292.754 508.138 293.184 507.897C293.613 507.645 293.949 507.31 294.19 506.891C294.431 506.471 294.551 506.005 294.551 505.491V503.354C294.551 502.851 294.368 502.442 294.001 502.127C293.634 501.813 293.157 501.656 292.571 501.656C292.057 501.656 291.606 501.787 291.219 502.049C290.831 502.3 290.543 502.631 290.354 503.039L289.285 502.458C289.442 502.101 289.689 501.776 290.024 501.483C290.37 501.19 290.763 500.959 291.203 500.791C291.643 500.613 292.099 500.524 292.571 500.524C293.189 500.524 293.734 500.645 294.205 500.886C294.687 501.127 295.06 501.462 295.322 501.892C295.594 502.311 295.73 502.798 295.73 503.354V509.138H294.551V507.456L294.724 507.629C294.577 507.944 294.347 508.232 294.033 508.494C293.729 508.745 293.367 508.95 292.948 509.107C292.539 509.254 292.089 509.327 291.596 509.327ZM298.014 512.597C297.846 512.597 297.673 512.581 297.495 512.55C297.327 512.529 297.16 512.487 296.992 512.424V511.323C297.097 511.334 297.228 511.35 297.385 511.371C297.553 511.402 297.72 511.418 297.888 511.418C298.401 511.418 298.794 511.308 299.067 511.088C299.339 510.878 299.607 510.469 299.869 509.862L300.403 508.604L300.372 509.641L296.803 500.713H298.077L301 508.085H300.67L303.578 500.713H304.883L301.032 510.207C300.864 510.616 300.649 511.004 300.387 511.371C300.136 511.737 299.816 512.031 299.429 512.251C299.041 512.481 298.569 512.597 298.014 512.597ZM310.166 509.138L307.273 500.713H308.61L310.999 508.085H310.527L312.775 500.713H313.954L316.202 508.085H315.731L318.136 500.713H319.456L316.564 509.138H315.385L313.2 501.923H313.53L311.345 509.138H310.166ZM320.523 509.138V500.713H321.702V509.138H320.523ZM320.523 499.156V497.427H321.702V499.156H320.523ZM327.023 509.233C326.269 509.233 325.687 509.013 325.279 508.573C324.87 508.132 324.665 507.504 324.665 506.686V501.892H323.109V500.713H323.502C323.859 500.713 324.141 500.597 324.351 500.367C324.561 500.126 324.665 499.827 324.665 499.471V498.763H325.844V500.713H327.699V501.892H325.844V506.686C325.844 506.969 325.886 507.221 325.97 507.441C326.054 507.65 326.195 507.818 326.395 507.944C326.604 508.069 326.882 508.132 327.228 508.132C327.312 508.132 327.411 508.127 327.526 508.117C327.642 508.106 327.741 508.096 327.825 508.085V509.138C327.699 509.17 327.558 509.191 327.401 509.201C327.243 509.222 327.118 509.233 327.023 509.233ZM329.581 509.138V497.239H330.76V502.348L330.493 502.285C330.702 501.74 331.043 501.31 331.514 500.996C331.996 500.681 332.552 500.524 333.181 500.524C333.778 500.524 334.312 500.66 334.784 500.933C335.266 501.205 335.643 501.583 335.916 502.065C336.199 502.536 336.34 503.071 336.34 503.668V509.138H335.161V504.124C335.161 503.61 335.067 503.175 334.878 502.819C334.69 502.463 334.428 502.19 334.092 502.002C333.768 501.803 333.396 501.703 332.976 501.703C332.557 501.703 332.18 501.803 331.845 502.002C331.509 502.19 331.242 502.468 331.043 502.835C330.854 503.191 330.76 503.621 330.76 504.124V509.138H329.581ZM346.152 509.327C345.324 509.327 344.564 509.18 343.873 508.887C343.181 508.583 342.578 508.164 342.065 507.629C341.562 507.084 341.169 506.445 340.886 505.712C340.603 504.978 340.461 504.171 340.461 503.291C340.461 502.41 340.603 501.604 340.886 500.87C341.169 500.136 341.562 499.497 342.065 498.952C342.578 498.407 343.181 497.988 343.873 497.695C344.564 497.391 345.324 497.239 346.152 497.239C346.948 497.239 347.661 497.38 348.29 497.663C348.929 497.946 349.464 498.313 349.893 498.763C350.333 499.204 350.648 499.67 350.836 500.163L349.657 500.681C349.364 500 348.913 499.455 348.306 499.046C347.708 498.627 346.99 498.418 346.152 498.418C345.293 498.418 344.528 498.622 343.857 499.031C343.186 499.439 342.662 500.011 342.285 500.744C341.908 501.467 341.719 502.316 341.719 503.291C341.719 504.255 341.908 505.104 342.285 505.837C342.662 506.571 343.186 507.142 343.857 507.551C344.528 507.949 345.293 508.148 346.152 508.148C346.99 508.148 347.708 507.944 348.306 507.535C348.913 507.126 349.364 506.581 349.657 505.9L350.836 506.419C350.648 506.901 350.333 507.367 349.893 507.818C349.464 508.258 348.929 508.62 348.29 508.903C347.661 509.186 346.948 509.327 346.152 509.327ZM354.884 509.327C354.349 509.327 353.873 509.228 353.453 509.028C353.034 508.819 352.704 508.536 352.463 508.18C352.222 507.823 352.102 507.415 352.102 506.953C352.102 506.513 352.196 506.115 352.384 505.759C352.573 505.392 352.867 505.083 353.265 504.831C353.663 504.58 354.171 504.402 354.79 504.297L358.091 503.747V504.816L355.073 505.319C354.465 505.423 354.025 505.617 353.752 505.9C353.49 506.183 353.359 506.518 353.359 506.906C353.359 507.284 353.506 507.603 353.799 507.865C354.103 508.127 354.491 508.258 354.963 508.258C355.539 508.258 356.042 508.138 356.472 507.897C356.901 507.645 357.237 507.31 357.478 506.891C357.719 506.471 357.839 506.005 357.839 505.491V503.354C357.839 502.851 357.656 502.442 357.289 502.127C356.922 501.813 356.445 501.656 355.859 501.656C355.345 501.656 354.894 501.787 354.507 502.049C354.119 502.3 353.831 502.631 353.642 503.039L352.573 502.458C352.73 502.101 352.977 501.776 353.312 501.483C353.658 501.19 354.051 500.959 354.491 500.791C354.931 500.613 355.387 500.524 355.859 500.524C356.477 500.524 357.022 500.645 357.493 500.886C357.975 501.127 358.347 501.462 358.609 501.892C358.882 502.311 359.018 502.798 359.018 503.354V509.138H357.839V507.456L358.012 507.629C357.865 507.944 357.635 508.232 357.32 508.494C357.017 508.745 356.655 508.95 356.236 509.107C355.827 509.254 355.376 509.327 354.884 509.327ZM361.129 509.138V500.713H362.308V502.096L362.151 501.892C362.35 501.493 362.648 501.179 363.047 500.949C363.455 500.718 363.948 500.603 364.524 500.603H365.059V501.782H364.32C363.712 501.782 363.225 501.97 362.858 502.348C362.491 502.725 362.308 503.259 362.308 503.951V509.138H361.129ZM369.93 509.327C369.144 509.327 368.437 509.138 367.808 508.761C367.179 508.373 366.681 507.849 366.315 507.189C365.958 506.518 365.78 505.764 365.78 504.926C365.78 504.077 365.958 503.322 366.315 502.662C366.681 502.002 367.174 501.483 367.792 501.106C368.421 500.718 369.134 500.524 369.93 500.524C370.653 500.524 371.298 500.681 371.864 500.996C372.429 501.31 372.875 501.734 373.2 502.269L373.011 502.599V497.239H374.19V509.138H373.011V507.252L373.2 507.425C372.906 508.033 372.466 508.504 371.879 508.84C371.303 509.165 370.653 509.327 369.93 509.327ZM369.993 508.148C370.559 508.148 371.067 508.007 371.518 507.724C371.979 507.441 372.34 507.058 372.602 506.576C372.875 506.084 373.011 505.533 373.011 504.926C373.011 504.318 372.875 503.773 372.602 503.291C372.34 502.798 371.979 502.41 371.518 502.127C371.067 501.845 370.559 501.703 369.993 501.703C369.437 501.703 368.934 501.845 368.484 502.127C368.033 502.41 367.677 502.793 367.415 503.275C367.163 503.757 367.038 504.307 367.038 504.926C367.038 505.533 367.163 506.084 367.415 506.576C367.677 507.058 368.028 507.441 368.468 507.724C368.919 508.007 369.427 508.148 369.993 508.148Z" fill="black"/>
<circle cx="534.673" cy="504.252" r="9.16976" stroke="#01C467" stroke-width="0.873311"/>
<circle cx="253.463" cy="504.252" r="15.7196" fill="#F2F2F3"/>
<path d="M258.409 509.346C259.225 509.346 259.632 509.346 259.944 509.188C260.217 509.048 260.44 508.825 260.58 508.552C260.738 508.24 260.738 507.833 260.738 507.018V501.487C260.738 500.671 260.738 500.264 260.58 499.952C260.44 499.679 260.217 499.456 259.944 499.316C259.632 499.158 259.225 499.158 258.409 499.158L248.512 499.158C247.697 499.158 247.289 499.158 246.978 499.316C246.704 499.456 246.481 499.679 246.342 499.952C246.183 500.264 246.183 500.671 246.183 501.487L246.183 507.018C246.183 507.833 246.183 508.24 246.342 508.552C246.481 508.825 246.704 509.048 246.978 509.188C247.289 509.346 247.697 509.346 248.512 509.346L258.409 509.346Z" fill="#01C467"/>
<path d="M260.738 502.797H246.183M252.733 505.708H249.094M246.183 501.487L246.183 507.018C246.183 507.833 246.183 508.24 246.342 508.552C246.481 508.825 246.704 509.048 246.978 509.188C247.289 509.346 247.697 509.346 248.512 509.346L258.409 509.346C259.225 509.346 259.632 509.346 259.944 509.188C260.217 509.048 260.44 508.825 260.58 508.552C260.738 508.24 260.738 507.833 260.738 507.018V501.487C260.738 500.671 260.738 500.264 260.58 499.952C260.44 499.679 260.217 499.456 259.944 499.316C259.632 499.158 259.225 499.158 258.409 499.158L248.512 499.158C247.697 499.158 247.289 499.158 246.978 499.316C246.704 499.456 246.481 499.679 246.342 499.952C246.183 500.264 246.183 500.671 246.183 501.487Z" stroke="#F2F2F3" stroke-width="1.30997" stroke-linecap="round" stroke-linejoin="round"/>
<g filter="url(#filter1_ddd_5_2)">
<circle cx="105" cy="237" r="46" fill="#01C467" stroke="white" stroke-width="12"/>
<path d="M118.704 253.667C119.741 253.667 120.26 253.667 120.656 253.465C121.004 253.287 121.288 253.004 121.465 252.656C121.667 252.26 121.667 251.741 121.667 250.704V249.222C121.667 248.185 121.667 247.667 121.465 247.271C121.288 246.922 121.004 246.639 120.656 246.461C120.26 246.259 119.741 246.259 118.704 246.259H91.2967C90.2596 246.259 89.741 246.259 89.3449 246.461C88.9964 246.639 88.7131 246.922 88.5356 247.271C88.3337 247.667 88.3337 248.185 88.3337 249.222L88.3337 250.704C88.3337 251.741 88.3337 252.26 88.5356 252.656C88.7131 253.004 88.9964 253.287 89.3449 253.465C89.741 253.667 90.2596 253.667 91.2967 253.667H118.704Z" fill="white"/>
<path d="M118.704 231.445C119.741 231.445 120.26 231.445 120.656 231.243C121.004 231.065 121.288 230.782 121.465 230.433C121.667 230.037 121.667 229.519 121.667 228.482V226.414C121.667 225.566 121.667 225.142 121.517 224.792C121.384 224.483 121.17 224.217 120.898 224.02C120.589 223.798 120.175 223.706 119.347 223.522L105.643 220.476C105.403 220.423 105.283 220.396 105.162 220.386C105.055 220.376 104.946 220.376 104.839 220.386C104.717 220.396 104.598 220.423 104.358 220.476L90.6539 223.522C89.8261 223.706 89.4121 223.798 89.1031 224.02C88.8306 224.217 88.6166 224.483 88.484 224.792C88.3337 225.142 88.3337 225.566 88.3337 226.414L88.3337 228.482C88.3337 229.519 88.3337 230.037 88.5356 230.433C88.7131 230.782 88.9964 231.065 89.3449 231.243C89.741 231.445 90.2596 231.445 91.2967 231.445H118.704Z" fill="white"/>
<path d="M92.0374 231.445V246.259M100.371 231.445V246.259M109.63 231.445V246.259M117.963 231.445V246.259M88.3337 249.222L88.3337 250.704C88.3337 251.741 88.3337 252.26 88.5356 252.656C88.7131 253.004 88.9964 253.287 89.3449 253.465C89.741 253.667 90.2596 253.667 91.2967 253.667H118.704C119.741 253.667 120.26 253.667 120.656 253.465C121.004 253.287 121.288 253.004 121.465 252.656C121.667 252.26 121.667 251.741 121.667 250.704V249.222C121.667 248.185 121.667 247.667 121.465 247.271C121.288 246.922 121.004 246.639 120.656 246.461C120.26 246.259 119.741 246.259 118.704 246.259H91.2967C90.2596 246.259 89.741 246.259 89.3449 246.461C88.9964 246.639 88.7131 246.922 88.5356 247.271C88.3337 247.667 88.3337 248.185 88.3337 249.222ZM104.358 220.476L90.6539 223.522C89.8261 223.706 89.4121 223.798 89.1031 224.02C88.8306 224.217 88.6166 224.483 88.484 224.792C88.3337 225.142 88.3337 225.566 88.3337 226.414L88.3337 228.482C88.3337 229.519 88.3337 230.037 88.5356 230.433C88.7131 230.782 88.9964 231.065 89.3449 231.243C89.741 231.445 90.2596 231.445 91.2967 231.445H118.704C119.741 231.445 120.26 231.445 120.656 231.243C121.004 231.065 121.288 230.782 121.465 230.433C121.667 230.037 121.667 229.519 121.667 228.482V226.414C121.667 225.566 121.667 225.142 121.517 224.792C121.384 224.483 121.17 224.217 120.898 224.02C120.589 223.798 120.175 223.706 119.347 223.522L105.643 220.476C105.403 220.423 105.283 220.396 105.162 220.386C105.055 220.376 104.946 220.376 104.839 220.386C104.717 220.396 104.598 220.423 104.358 220.476Z" stroke="white" stroke-width="2" stroke-linecap="round" stroke-linejoin="round"/>
</g>
<g filter="url(#filter2_ddd_5_2)">
<circle cx="105" cy="357" r="46" fill="#00000A" stroke="white" stroke-width="12"/>
<g clip-path="url(#clip1_5_2)">
<path d="M118.878 368.576C120.941 368.359 121.973 368.25 122.718 367.766C123.374 367.34 123.879 366.717 124.159 365.987C124.477 365.157 124.369 364.126 124.152 362.063L122.681 348.066C122.464 346.003 122.356 344.971 121.872 344.226C121.446 343.57 120.823 343.065 120.093 342.785C119.263 342.466 118.231 342.575 116.168 342.792L91.121 345.424C89.0581 345.641 88.0266 345.75 87.2809 346.234C86.625 346.66 86.1207 347.282 85.8404 348.013C85.5217 348.843 85.6301 349.874 85.847 351.937L87.3181 365.934C87.5349 367.997 87.6433 369.028 88.1276 369.774C88.5536 370.43 89.1763 370.934 89.9065 371.215C90.7366 371.533 91.7681 371.425 93.831 371.208L118.878 368.576Z" fill="white"/>
<path d="M123.03 351.381L86.1954 355.252M103.545 360.877L94.3365 361.845M85.847 351.937L87.3181 365.934C87.5349 367.997 87.6433 369.028 88.1276 369.774C88.5536 370.43 89.1763 370.934 89.9065 371.215C90.7366 371.533 91.7681 371.425 93.831 371.208L118.878 368.576C120.941 368.359 121.973 368.25 122.718 367.766C123.374 367.34 123.879 366.717 124.159 365.987C124.477 365.157 124.369 364.126 124.152 362.063L122.681 348.066C122.464 346.003 122.356 344.971 121.872 344.226C121.446 343.57 120.823 343.065 120.093 342.785C119.263 342.466 118.231 342.575 116.168 342.792L91.121 345.424C89.0581 345.641 88.0266 345.75 87.2809 346.234C86.625 346.66 86.1207 347.282 85.8404 348.013C85.5217 348.843 85.6301 349.874 85.847 351.937Z" stroke="#00000A" stroke-width="2" stroke-linecap="round" stroke-linejoin="round"/>
</g>
</g>
<g filter="url(#filter3_ddd_5_2)">
<circle cx="105" cy="477" r="46" fill="#A77EFF" stroke="white" stroke-width="12"/>
<path d="M90.1855 469.593H119.815M90.1855 484.408H119.815M97.593 460.333V493.667M112.408 460.333V493.667" stroke="white" stroke-width="6" stroke-linecap="round" stroke-linejoin="round"/>
</g>
<defs>
<filter id="filter0_ddd_5_2" x="-30.6969" y="195.595" width="846.044" height="623.349" filterUnits="userSpaceOnUse" color-interpolation-filters="sRGB">
<feFlood flood-opacity="0" result="BackgroundImageFix"/>
<feColorMatrix in="SourceAlpha" type="matrix" values="0 0 0 0 0 0 0 0 0 0 0 0 0 0 0 0 0 0 127 0" result="hardAlpha"/>
<feOffset dy="107.378"/>
<feGaussianBlur stdDeviation="134.223"/>
<feColorMatrix type="matrix" values="0 0 0 0 0.913725 0 0 0 0 0.913725 0 0 0 0 0.913725 0 0 0 0.1 0"/>
<feBlend mode="normal" in2="BackgroundImageFix" result="effect1_dropShadow_5_2"/>
<feColorMatrix in="SourceAlpha" type="matrix" values="0 0 0 0 0 0 0 0 0 0 0 0 0 0 0 0 0 0 127 0" result="hardAlpha"/>
<feOffset dy="107.378"/>
<feGaussianBlur stdDeviation="134.223"/>
<feColorMatrix type="matrix" values="0 0 0 0 0.913725 0 0 0 0 0.913725 0 0 0 0 0.913725 0 0 0 0.1 0"/>
<feBlend mode="normal" in2="effect1_dropShadow_5_2" result="effect2_dropShadow_5_2"/>
<feColorMatrix in="SourceAlpha" type="matrix" values="0 0 0 0 0 0 0 0 0 0 0 0 0 0 0 0 0 0 127 0" result="hardAlpha"/>
<feOffset dy="107.378"/>
<feGaussianBlur stdDeviation="87.3311"/>
<feColorMatrix type="matrix" values="0 0 0 0 0.913725 0 0 0 0 0.913725 0 0 0 0 0.913725 0 0 0 0.5 0"/>
<feBlend mode="normal" in2="effect2_dropShadow_5_2" result="effect3_dropShadow_5_2"/>
<feBlend mode="normal" in="SourceGraphic" in2="effect3_dropShadow_5_2" result="shape"/>
</filter>
<filter id="filter1_ddd_5_2" x="-254.389" y="0.566864" width="718.777" height="718.777" filterUnits="userSpaceOnUse" color-interpolation-filters="sRGB">
<feFlood flood-opacity="0" result="BackgroundImageFix"/>
<feColorMatrix in="SourceAlpha" type="matrix" values="0 0 0 0 0 0 0 0 0 0 0 0 0 0 0 0 0 0 127 0" result="hardAlpha"/>
<feOffset dy="122.955"/>
<feGaussianBlur stdDeviation="153.694"/>
<feColorMatrix type="matrix" values="0 0 0 0 0.634861 0 0 0 0 0.631806 0 0 0 0 0.631806 0 0 0 0.25 0"/>
<feBlend mode="normal" in2="BackgroundImageFix" result="effect1_dropShadow_5_2"/>
<feColorMatrix in="SourceAlpha" type="matrix" values="0 0 0 0 0 0 0 0 0 0 0 0 0 0 0 0 0 0 127 0" result="hardAlpha"/>
<feOffset dy="122.955"/>
<feGaussianBlur stdDeviation="153.694"/>
<feColorMatrix type="matrix" values="0 0 0 0 0.913725 0 0 0 0 0.913725 0 0 0 0 0.913725 0 0 0 0.4 0"/>
<feBlend mode="normal" in2="effect1_dropShadow_5_2" result="effect2_dropShadow_5_2"/>
<feColorMatrix in="SourceAlpha" type="matrix" values="0 0 0 0 0 0 0 0 0 0 0 0 0 0 0 0 0 0 127 0" result="hardAlpha"/>
<feOffset dy="122.955"/>
<feGaussianBlur stdDeviation="100"/>
<feColorMatrix type="matrix" values="0 0 0 0 0.913725 0 0 0 0 0.913725 0 0 0 0 0.913725 0 0 0 0.8 0"/>
<feBlend mode="normal" in2="effect2_dropShadow_5_2" result="effect3_dropShadow_5_2"/>
<feBlend mode="normal" in="SourceGraphic" in2="effect3_dropShadow_5_2" result="shape"/>
</filter>
<filter id="filter2_ddd_5_2" x="-254.389" y="120.567" width="718.777" height="718.777" filterUnits="userSpaceOnUse" color-interpolation-filters="sRGB">
<feFlood flood-opacity="0" result="BackgroundImageFix"/>
<feColorMatrix in="SourceAlpha" type="matrix" values="0 0 0 0 0 0 0 0 0 0 0 0 0 0 0 0 0 0 127 0" result="hardAlpha"/>
<feOffset dy="122.955"/>
<feGaussianBlur stdDeviation="153.694"/>
<feColorMatrix type="matrix" values="0 0 0 0 0.634861 0 0 0 0 0.631806 0 0 0 0 0.631806 0 0 0 0.25 0"/>
<feBlend mode="normal" in2="BackgroundImageFix" result="effect1_dropShadow_5_2"/>
<feColorMatrix in="SourceAlpha" type="matrix" values="0 0 0 0 0 0 0 0 0 0 0 0 0 0 0 0 0 0 127 0" result="hardAlpha"/>
<feOffset dy="122.955"/>
<feGaussianBlur stdDeviation="153.694"/>
<feColorMatrix type="matrix" values="0 0 0 0 0.913725 0 0 0 0 0.913725 0 0 0 0 0.913725 0 0 0 0.4 0"/>
<feBlend mode="normal" in2="effect1_dropShadow_5_2" result="effect2_dropShadow_5_2"/>
<feColorMatrix in="SourceAlpha" type="matrix" values="0 0 0 0 0 0 0 0 0 0 0 0 0 0 0 0 0 0 127 0" result="hardAlpha"/>
<feOffset dy="122.955"/>
<feGaussianBlur stdDeviation="100"/>
<feColorMatrix type="matrix" values="0 0 0 0 0.913725 0 0 0 0 0.913725 0 0 0 0 0.913725 0 0 0 0.8 0"/>
<feBlend mode="normal" in2="effect2_dropShadow_5_2" result="effect3_dropShadow_5_2"/>
<feBlend mode="normal" in="SourceGraphic" in2="effect3_dropShadow_5_2" result="shape"/>
</filter>
<filter id="filter3_ddd_5_2" x="-254.389" y="240.567" width="718.777" height="718.777" filterUnits="userSpaceOnUse" color-interpolation-filters="sRGB">
<feFlood flood-opacity="0" result="BackgroundImageFix"/>
<feColorMatrix in="SourceAlpha" type="matrix" values="0 0 0 0 0 0 0 0 0 0 0 0 0 0 0 0 0 0 127 0" result="hardAlpha"/>
<feOffset dy="122.955"/>
<feGaussianBlur stdDeviation="153.694"/>
<feColorMatrix type="matrix" values="0 0 0 0 0.634861 0 0 0 0 0.631806 0 0 0 0 0.631806 0 0 0 0.25 0"/>
<feBlend mode="normal" in2="BackgroundImageFix" result="effect1_dropShadow_5_2"/>
<feColorMatrix in="SourceAlpha" type="matrix" values="0 0 0 0 0 0 0 0 0 0 0 0 0 0 0 0 0 0 127 0" result="hardAlpha"/>
<feOffset dy="122.955"/>
<feGaussianBlur stdDeviation="153.694"/>
<feColorMatrix type="matrix" values="0 0 0 0 0.913725 0 0 0 0 0.913725 0 0 0 0 0.913725 0 0 0 0.4 0"/>
<feBlend mode="normal" in2="effect1_dropShadow_5_2" result="effect2_dropShadow_5_2"/>
<feColorMatrix in="SourceAlpha" type="matrix" values="0 0 0 0 0 0 0 0 0 0 0 0 0 0 0 0 0 0 127 0" result="hardAlpha"/>
<feOffset dy="122.955"/>
<feGaussianBlur stdDeviation="100"/>
<feColorMatrix type="matrix" values="0 0 0 0 0.913725 0 0 0 0 0.913725 0 0 0 0 0.913725 0 0 0 0.8 0"/>
<feBlend mode="normal" in2="effect2_dropShadow_5_2" result="effect3_dropShadow_5_2"/>
<feBlend mode="normal" in="SourceGraphic" in2="effect3_dropShadow_5_2" result="shape"/>
</filter>
<clipPath id="clip0_5_2">
<rect x="223.772" y="299.023" width="337.098" height="158.069" rx="10.4797" fill="white"/>
</clipPath>
<clipPath id="clip1_5_2">
<rect width="44.4444" height="44.4444" fill="white" transform="translate(80.5762 337.222) rotate(-6)"/>
</clipPath>
</defs>
</svg>
