<svg width="27" height="24" viewBox="0 0 27 24" fill="none" xmlns="http://www.w3.org/2000/svg">
<path d="M6.40006 22.5C8.97739 22.5 11.0667 20.4107 11.0667 17.8333V17.6C11.0667 17.2733 11.0667 17.11 11.0032 16.9852C10.9472 16.8754 10.858 16.7862 10.7482 16.7302C10.6234 16.6667 10.4601 16.6667 10.1334 16.6667H2.66673C2.34003 16.6667 2.17669 16.6667 2.0519 16.7302C1.94214 16.7862 1.8529 16.8754 1.79698 16.9852C1.7334 17.11 1.7334 17.2733 1.7334 17.6V17.8333C1.7334 20.4107 3.82274 22.5 6.40006 22.5Z" fill="#01C467"/>
<path d="M20.4001 20.1667C22.9774 20.1667 25.0667 18.0773 25.0667 15.5V15.2667C25.0667 14.94 25.0667 14.7766 25.0032 14.6518C24.9472 14.5421 24.858 14.4528 24.7482 14.3969C24.6234 14.3333 24.4601 14.3333 24.1334 14.3333H16.6667C16.34 14.3333 16.1767 14.3333 16.0519 14.3969C15.9421 14.4528 15.8529 14.5421 15.797 14.6518C15.7334 14.7766 15.7334 14.94 15.7334 15.2667V15.5C15.7334 18.0773 17.8227 20.1667 20.4001 20.1667Z" fill="#01C467"/>
<path d="M1.7334 17.8333V17.6581C1.7334 17.2889 1.7334 17.1042 1.76164 16.9244C1.78672 16.7647 1.82832 16.608 1.88578 16.4569C1.9505 16.2867 2.0421 16.1264 2.22529 15.8059L6.40006 8.5M1.7334 17.8333C1.7334 20.4107 3.82274 22.5 6.40006 22.5C8.97739 22.5 11.0667 20.4107 11.0667 17.8333M1.7334 17.8333V17.6C1.7334 17.2733 1.7334 17.11 1.79698 16.9852C1.8529 16.8754 1.94214 16.7862 2.0519 16.7302C2.17669 16.6667 2.34003 16.6667 2.66673 16.6667H10.1334C10.4601 16.6667 10.6234 16.6667 10.7482 16.7302C10.858 16.7862 10.9472 16.8754 11.0032 16.9852C11.0667 17.11 11.0667 17.2733 11.0667 17.6V17.8333M6.40006 8.5L10.5748 15.8059C10.758 16.1264 10.8496 16.2867 10.9143 16.4569C10.9718 16.608 11.0134 16.7647 11.0385 16.9244C11.0667 17.1042 11.0667 17.2889 11.0667 17.6581V17.8333M6.40006 8.5L20.4001 6.16667M15.7334 15.5V15.3248C15.7334 14.9555 15.7334 14.7709 15.7616 14.591C15.7867 14.4313 15.8283 14.2747 15.8858 14.1236C15.9505 13.9534 16.0421 13.7931 16.2253 13.4725L20.4001 6.16667M15.7334 15.5C15.7334 18.0773 17.8227 20.1667 20.4001 20.1667C22.9774 20.1667 25.0667 18.0773 25.0667 15.5M15.7334 15.5V15.2667C15.7334 14.94 15.7334 14.7766 15.797 14.6518C15.8529 14.5421 15.9421 14.4528 16.0519 14.3969C16.1767 14.3333 16.34 14.3333 16.6667 14.3333H24.1334C24.4601 14.3333 24.6234 14.3333 24.7482 14.3969C24.858 14.4528 24.9472 14.5421 25.0032 14.6518C25.0667 14.7766 25.0667 14.94 25.0667 15.2667V15.5M20.4001 6.16667L24.5748 13.4725C24.758 13.7931 24.8496 13.9534 24.9143 14.1236C24.9718 14.2747 25.0134 14.4313 25.0385 14.591C25.0667 14.7709 25.0667 14.9555 25.0667 15.3248V15.5M13.4001 1.5V7.33333" stroke="#01C467" stroke-width="2.5" stroke-linecap="round" stroke-linejoin="round"/>
</svg>
